<svg width="109" height="79" viewBox="0 0 109 79" fill="none" xmlns="http://www.w3.org/2000/svg">
<g clip-path="url(#clip0_433_5510)">
<path d="M114.55 57.0961V70.1383C114.55 74.5677 102.738 78.259 88.2197 78.259C73.7011 78.259 62.1355 74.6909 62.1355 70.2615V68.7851L61.8894 58.4498H62.0123C63.9809 62.264 74.8084 65.217 87.8504 65.217C100.892 65.217 114.304 61.526 114.304 57.0964H114.55V57.0961Z" fill="#E2A63B"/>
<path d="M87.4814 8.61884V21.5379H87.2353C87.2353 26.0904 75.0545 29.6585 60.6589 29.6585C55.1222 29.7814 49.4623 29.1663 44.0486 27.8129L43.8025 28.059C41.0956 25.8443 38.0197 24.1218 34.6976 23.0145V22.7684L34.3286 9.11104C35.1899 13.2943 46.6325 16.6163 60.536 16.6163C74.4394 16.6163 87.2353 13.0482 87.2353 8.61884H87.4814Z" fill="#F4B844"/>
<path d="M87.4814 8.86496C87.4814 13.2943 75.3006 16.8624 60.7821 16.8624C46.2635 16.8624 35.313 13.5404 34.4518 9.35716C34.4518 9.23423 34.3289 8.98813 34.3289 8.86496C34.3289 4.4356 46.1406 0.744317 60.7823 0.744317C75.4236 0.621384 87.4814 4.31244 87.4814 8.86496Z" fill="#FEDB41"/>
<path d="M62.0123 58.4496L61.8894 55.7427L61.6433 44.6693C62.5045 48.8526 73.9472 52.1746 87.8506 52.1746C101.754 52.1746 114.058 48.6065 114.427 44.3H114.55V57.0961H114.304C114.304 61.5255 102.369 65.2168 87.8504 65.2168C73.3321 65.2166 63.9812 62.2638 62.0123 58.4496Z" fill="#F4B844"/>
<path d="M44.418 66.6931C47.74 63.6172 50.3239 59.6798 51.6771 55.3737H52.2923C54.9992 55.6198 57.706 55.7427 60.659 55.7427H61.8893V58.4496L62.1354 68.7849H60.7819C55.3682 68.9078 50.0776 68.2927 44.787 67.0624L44.418 66.6931Z" fill="#E2A63B"/>
<path d="M62.0124 43.6849V44.3L62.2585 55.7427H61.028C57.9521 55.7427 55.1221 55.6197 52.4154 55.3736H51.8003C52.6615 52.7899 53.0306 50.083 53.0306 47.3762C53.0306 45.5305 52.7845 43.808 52.4154 42.0856H53.0306C55.6143 42.3317 58.1982 42.4546 61.028 42.4546L62.1354 43.0697C62.0124 43.3156 62.0124 43.5617 62.0124 43.6849Z" fill="#F4B844"/>
<path d="M44.0488 27.8129C49.4626 29.1663 55.1222 29.7815 60.6592 29.6585C75.0546 29.6585 87.2355 26.0904 87.2355 21.5379H87.4816V36.0565C74.0704 36.0565 63.1199 39.2556 61.7665 43.3156L60.6592 42.7005C57.9523 42.7005 55.3686 42.5776 52.9078 42.3315H52.2927C51.1853 36.6716 48.2323 31.6271 43.803 27.9358L44.0488 27.8129Z" fill="#E2A63B"/>
<path d="M52.5386 42.3315C51.3083 36.6716 48.2322 31.5042 43.8028 27.69C41.0959 25.2292 37.8968 23.5067 34.4519 22.5223C31.9911 21.6611 29.2842 21.292 26.7005 21.292C12.0588 21.1686 0.123894 32.8574 0.000960862 47.4989C-0.121972 62.1404 11.5666 74.0753 26.2083 74.1982C32.9755 74.1982 39.3734 71.7374 44.4179 67.1849C47.8631 63.9858 50.4468 59.9257 51.8003 55.4961C52.6615 52.9124 53.0305 50.3285 53.0305 47.6216C53.0308 45.8996 52.5386 44.054 52.5386 42.3315Z" fill="#FEDB41"/>
<path d="M114.427 44.0539V44.3C114.058 48.6065 102.123 52.1746 87.8506 52.1746C73.5782 52.1746 62.5045 48.8526 61.6433 44.6693V44.0542C61.6433 43.8081 61.6433 43.562 61.7662 43.3159C63.1197 39.2556 74.0701 36.0567 87.4814 36.0567H87.8504C102.369 36.0565 114.427 39.6246 114.427 44.0539Z" fill="#FEDB41"/>
<path d="M26.7005 44.423C24.4858 44.423 22.6402 42.5773 22.6402 40.3627C22.6402 38.148 24.4858 36.3023 26.7005 36.3023C28.9152 36.3023 30.7608 38.148 30.7608 40.3627C30.7608 41.7161 31.8682 42.8234 33.2216 42.8234C34.575 42.8234 35.6824 41.7161 35.6824 40.3627C35.6824 36.4255 32.9755 32.8574 29.1613 31.7501V30.7657C29.1613 29.4122 28.0539 28.3049 26.7005 28.3049C25.3471 28.3049 24.2397 29.4122 24.2397 30.7657V31.7501C20.3026 32.7345 17.5957 36.3026 17.7186 40.3627C17.7186 45.2842 21.7789 49.3445 26.7005 49.3445C28.9152 49.3445 30.7608 51.1902 30.7608 53.4049C30.7608 55.6195 28.9152 57.4652 26.7005 57.4652C24.4858 57.4652 22.6402 55.6195 22.6402 53.4049C22.6402 52.0514 21.5328 50.9441 20.1794 50.9441C18.826 50.9441 17.7186 52.0514 17.7186 53.4049C17.7186 57.4652 20.4255 60.9101 24.2397 62.0175V63.9861C24.2397 65.3395 25.3471 66.4468 26.7005 66.4468C28.0539 66.4468 29.1613 65.3395 29.1613 63.9861V62.0175C33.9597 60.664 36.6666 55.6196 35.1902 50.8209C34.0828 47.1299 30.6377 44.423 26.7005 44.423Z" fill="#E2A63B"/>
</g>
<defs>
<clipPath id="clip0_433_5510">
<rect width="109" height="79" fill="white"/>
</clipPath>
</defs>
</svg>
