<svg width="200" height="106" viewBox="0 0 200 106" fill="none" xmlns="http://www.w3.org/2000/svg">
<g clip-path="url(#clip0_433_5636)">
<path d="M133.579 66.9663L148.199 69.1667L135.338 77.4157L133.579 66.9663Z" fill="#83A4C4"/>
<path d="M181.62 67.4697C191.771 67.4697 200 63.1659 200 57.8569C200 52.5478 191.771 48.244 181.62 48.244C171.47 48.244 163.241 52.5478 163.241 57.8569C163.241 63.1659 171.47 67.4697 181.62 67.4697Z" fill="black" fill-opacity="0.14"/>
<path d="M174.4 67.0698C184.551 67.0698 192.78 62.7659 192.78 57.4569C192.78 52.1479 184.551 47.8441 174.4 47.8441C164.25 47.8441 156.021 52.1479 156.021 57.4569C156.021 62.7659 164.25 67.0698 174.4 67.0698Z" fill="black" fill-opacity="0.14"/>
<path d="M48.019 103.477C58.1698 103.477 66.3986 99.1727 66.3986 93.8637C66.3986 88.5547 58.1698 84.2509 48.019 84.2509C37.8682 84.2509 29.6394 88.5547 29.6394 93.8637C29.6394 99.1727 37.8682 103.477 48.019 103.477Z" fill="black" fill-opacity="0.14"/>
<path d="M18.3796 106C28.5304 106 36.7592 101.696 36.7592 96.3871C36.7592 91.0781 28.5304 86.7743 18.3796 86.7743C8.22883 86.7743 0 91.0781 0 96.3871C0 101.696 8.22883 106 18.3796 106Z" fill="black" fill-opacity="0.14"/>
<path d="M51.7679 19.4888L22.1909 71.7658L57.7986 69.1667L80.3214 29.5218L85.3803 10.903L72.1983 12.1482L51.7679 19.4888Z" fill="#AD6161"/>
<path d="M12.8755 39.7408C12.8755 39.7408 16.8138 36.4163 20.6297 36.7859C24.445 37.155 26.7833 38.2489 26.7833 38.2489L31.583 31.2452C31.583 31.2452 18.4137 28.1673 14.7214 32.9687C11.029 37.7701 12.8755 39.7402 12.8755 39.7402V39.7408Z" fill="#E23939"/>
<path d="M17.0798 31.2453C17.0798 31.2453 15.1665 31.8401 14.0289 33.2457C12.8906 34.6512 10.5371 37.4011 10.4141 42.4491C10.2912 47.4971 13.9835 50.9441 16.5678 52.0525L21.9987 44.0496C21.9987 44.0496 14.8809 41.1445 14.7018 38.4754C14.3675 33.4917 17.0798 31.2446 17.0798 31.2446V31.2453Z" fill="#F46C6C"/>
<path d="M44.1367 6.74437C44.1367 6.74437 48.9364 1.43264 53.8597 1.56449C58.783 1.69633 60.137 4.40519 61.1214 7.4831C62.1058 10.561 55.2137 12.8649 55.2137 12.8649L55.3366 9.20657C55.3366 9.20657 50.0444 8.46785 47.952 8.83752C45.8596 9.20657 44.1367 6.74437 44.1367 6.74437Z" fill="#E23939"/>
<path d="M30.2289 16.2248L27.7676 11.6694L40.6904 1.57334C40.6904 1.57334 44.0138 1.20366 47.2136 5.26695C50.4134 9.33023 51.7673 13.6389 51.7673 13.6389L38.229 24.1652L30.2289 16.2241V16.2248Z" fill="#F46C6C"/>
<path d="M27.7677 11.6694C27.7677 11.6694 26.4138 14.9933 28.9987 19.6723C31.583 24.3507 33.0606 27.5522 33.0606 27.5522L37.7373 21.6425C37.7373 21.6425 33.6754 9.57688 27.7677 11.6694Z" fill="#E23939"/>
<path d="M55.7247 24.2964L43.5296 13.3935L9.99609 60.8629L22.1911 71.7658L55.7247 24.2964Z" fill="white"/>
<path d="M55.7246 24.2964L43.5295 13.3935L73.1847 0L85.3804 10.9029L55.7246 24.2964Z" fill="#EFF0F2"/>
<path d="M78.0071 53.3141L41.3784 79.9977L91.4527 94.9652L112.565 92.122C112.565 92.122 118.451 95.1324 124.149 92.122C129.846 89.1116 132.488 95.4333 137.034 97.7946C141.579 100.156 143.849 92.3295 143.849 92.3295L136.277 85.5315L132.7 69.807L78.0071 53.3141Z" fill="black" fill-opacity="0.14"/>
<path d="M138.66 31.2452L95.2137 21.6418L49.0601 28.783L91.3984 40.8486L138.66 31.2452Z" fill="#F0F0F0"/>
<path d="M130.62 31.2452L94.9711 23.3653L57.1013 29.2246L91.8406 39.1251L130.62 31.2452Z" fill="#AD6161"/>
<path d="M120.568 87.1421L112.999 86.0343L109.349 89.0056C109.349 89.0056 111.429 89.8509 115.014 89.8509C118.599 89.8509 120.568 87.1421 120.568 87.1421Z" fill="#F46C6C"/>
<path d="M67.6479 29.5788C67.6479 44.1231 79.4384 55.9227 93.9826 55.9227C108.527 55.9227 120.317 44.1231 120.317 29.5788C120.317 15.0346 108.527 3.23499 93.9826 3.23499C79.4384 3.23499 67.6479 15.0346 67.6479 29.5788Z" fill="#FFE200"/>
<path d="M72.2275 29.5792C72.2275 41.5981 81.9676 51.3422 93.9823 51.3422C105.997 51.3422 115.738 41.5987 115.738 29.5792C115.738 17.5597 105.998 7.81622 93.9823 7.81622C81.9669 7.81622 72.2275 17.5597 72.2275 29.5792Z" fill="#FBAE17"/>
<path d="M72.968 29.5792C72.968 41.1893 82.3763 50.6009 93.9824 50.6009C105.588 50.6009 114.997 41.1893 114.997 29.5792C114.997 17.9691 105.588 8.55682 93.9824 8.55682C82.3763 8.55682 72.968 17.9691 72.968 29.5792Z" fill="#FFC40D"/>
<path d="M87.2971 18.3463H94.8539C99.6019 18.3463 103.511 20.0263 103.511 25.355C103.511 30.6838 99.5439 32.7404 94.999 32.7404H92.4802V39.8942H87.2978V18.3463H87.2971ZM94.7379 28.6569C97.2566 28.6569 98.4724 27.4696 98.4724 25.355C98.4724 23.2404 97.0825 22.4298 94.5928 22.4298H92.4796V28.6569H94.7379Z" fill="#FFE200"/>
<path d="M91.4306 94.5293L49.0601 77.5387V28.783L91.3984 40.8486L91.4306 94.5293Z" fill="#F7F7F7"/>
<path d="M137.553 74.522L148.199 69.1667L135.337 65.9651L137.553 74.522Z" fill="#F46C6C"/>
<path d="M91.3669 94.5293L138.66 80.0009V31.2452L91.3985 40.8486L91.3669 94.5293Z" fill="#EFF0F2"/>
<path d="M115.876 89.7973C115.876 89.7973 116.753 88.1887 117.245 85.9725C117.738 83.7563 117.738 81.1093 119.707 80.6166C121.676 80.1239 128.261 81.3553 128.261 81.3553L127.137 86.0337C127.137 86.0337 121.414 89.4813 115.876 89.7967V89.7973Z" fill="#E23939"/>
<path d="M119.707 80.6166C128.322 81.6013 126.476 90.7127 133.368 95.514C140.26 100.316 154.415 104.379 154.415 104.379L165.492 100.439C165.492 100.439 149.614 98.3459 142.353 90.343C135.092 82.3401 134.969 77.415 132.507 77.415L119.707 80.616L119.707 80.6166Z" fill="#F46C6C"/>
<path d="M29.2888 89.8988L29.3134 92.8872L29.3166 93.2606C29.3563 98.1093 36.9963 101.976 46.3807 101.899C55.6017 101.822 63.0702 97.9648 63.289 93.231L63.2991 92.9793L63.2682 89.244" fill="#FBAE17"/>
<path d="M63.2687 89.2446C63.3091 94.0933 55.734 98.0866 46.3497 98.1636C36.9653 98.2412 29.3259 94.3734 29.2856 89.5254C29.2458 84.6767 36.8203 80.6834 46.2046 80.6058C55.589 80.5282 63.2284 84.396 63.2687 89.2446Z" fill="#FFE200"/>
<path d="M46.0698 98.2885C41.6163 98.2885 37.4314 97.4091 34.2575 95.8023C30.9915 94.1489 29.1816 91.9201 29.162 89.5266C29.1419 87.1332 30.9152 84.8748 34.1534 83.1677C37.3659 81.4739 41.6453 80.5207 46.2035 80.4828C55.6313 80.4077 63.3514 84.3354 63.3918 89.244C63.4114 91.6375 61.6387 93.8959 58.4004 95.603C55.1874 97.2968 50.9086 98.25 46.3504 98.2878C46.2571 98.2885 46.1631 98.2891 46.0698 98.2891M46.4809 80.7288C46.3889 80.7288 46.298 80.7288 46.2053 80.7301C41.6863 80.7673 37.4472 81.7104 34.2688 83.3866C31.1163 85.0489 29.3903 87.2285 29.4092 89.5254C29.4282 91.8217 31.1901 93.9728 34.3697 95.5821C37.5752 97.2053 41.8256 98.0765 46.3485 98.0405C50.8676 98.0033 55.1073 97.0602 58.2856 95.384C61.4381 93.7218 63.1641 91.5422 63.1452 89.2459C63.1061 84.5209 55.6559 80.7288 46.4816 80.7288" fill="#FFE200"/>
<path d="M59.9076 89.2724C59.9378 92.949 53.8599 95.9796 46.3321 96.0414C38.8043 96.1032 32.6771 93.1736 32.6468 89.4976C32.6166 85.8217 38.6945 82.7905 46.2223 82.7286C53.7501 82.6662 59.8773 85.5965 59.9076 89.2724Z" fill="#FFC40D"/>
<path d="M45.7167 87.682C45.7179 87.935 45.9147 88.128 46.5125 88.4069C48.5412 89.3203 49.1315 90.0269 49.1384 91.2419C49.1441 92.2424 48.552 93.0032 47.4685 93.2903L47.4736 94.1842L45.4209 94.1943L45.4158 93.2808C44.4756 93.0039 43.9736 92.3453 43.7163 91.7731L45.2159 90.8035C45.4631 91.288 45.8554 91.5971 46.4425 91.5946C47.0782 91.5914 47.2428 91.3674 47.2415 91.1145C47.2402 90.8811 47.053 90.6199 46.445 90.3411C44.4359 89.4377 43.8065 88.7311 43.7996 87.5458C43.7945 86.6228 44.3671 85.862 45.3717 85.5561L45.3667 84.6912L47.4193 84.6811L47.4244 85.5845C48.2663 85.8816 48.7197 86.5206 48.9871 87.0827L47.5947 88.0517C47.3374 87.5477 46.9842 87.2575 46.4463 87.2606C45.8598 87.2638 45.7141 87.4291 45.7154 87.682" fill="#FDDD00"/>
<path d="M43.8163 101.738C43.748 101.738 43.693 101.683 43.6923 101.616L43.6658 98.3831C43.6658 98.315 43.7202 98.2589 43.7885 98.2589H43.7897C43.8581 98.2589 43.9131 98.3137 43.9137 98.3819L43.9403 101.614C43.9403 101.682 43.8859 101.739 43.8176 101.739H43.8163V101.738Z" fill="#FAD549"/>
<path d="M45.3771 101.846C45.3094 101.846 45.2538 101.792 45.2531 101.723L45.2266 98.491C45.2266 98.4228 45.281 98.3667 45.3493 98.3667H45.3505C45.4182 98.3667 45.4739 98.4216 45.4745 98.4891L45.5011 101.722C45.5011 101.79 45.4467 101.846 45.3784 101.846H45.3771Z" fill="#FAD549"/>
<path d="M46.6925 101.84C46.6242 101.84 46.5692 101.785 46.5686 101.717L46.542 98.4841C46.542 98.4159 46.5964 98.3598 46.6647 98.3598H46.666C46.7336 98.3598 46.7893 98.4141 46.7899 98.4822L46.8165 101.715C46.8165 101.783 46.7621 101.839 46.6938 101.84H46.6932H46.6925Z" fill="#FAD549"/>
<path d="M54.0565 100.809C53.9889 100.809 53.9332 100.754 53.9326 100.686L53.906 97.4533C53.906 97.3851 53.9604 97.3296 54.0287 97.329H54.03C54.0977 97.329 54.1533 97.3839 54.1539 97.4514L54.1805 100.684C54.1805 100.753 54.1261 100.808 54.0578 100.809H54.0565Z" fill="#FAD549"/>
<path d="M56.1918 100.142C56.1241 100.142 56.0685 100.088 56.0678 100.02L56.0413 96.7871C56.0413 96.7189 56.0957 96.6628 56.164 96.6622H56.1646C56.2329 96.6622 56.2879 96.7171 56.2886 96.7846L56.3151 100.018C56.3151 100.086 56.2607 100.142 56.1924 100.142H56.1912H56.1918Z" fill="#FAD549"/>
<path d="M57.4808 99.576C57.4131 99.576 57.3574 99.5218 57.3568 99.4537L57.3296 96.2212C57.3296 96.1531 57.384 96.0976 57.4523 96.0969H57.4536C57.5219 96.0969 57.5769 96.1518 57.5775 96.2193L57.6047 99.4518C57.6047 99.5205 57.5503 99.576 57.482 99.576H57.4808Z" fill="#E8E3CF"/>
<path d="M60.7045 97.6217C60.6362 97.6217 60.5812 97.5675 60.5805 97.4993L60.554 94.2669C60.554 94.1987 60.6084 94.1426 60.6767 94.1426H60.6779C60.7456 94.1426 60.8013 94.1968 60.8019 94.265L60.8285 97.4974C60.8285 97.5656 60.7741 97.6211 60.7058 97.6217H60.7051H60.7045Z" fill="#FAD549"/>
<path d="M46.2223 83.1961C53.607 83.1349 59.6433 85.9535 59.8987 89.531C59.905 89.4452 59.9088 89.3595 59.9076 89.2724C59.8773 85.5965 53.7501 82.6668 46.2223 82.7286C38.6945 82.7911 32.6166 85.8217 32.6468 89.4976C32.6475 89.5676 32.6513 89.637 32.6557 89.7064C32.9048 86.1478 38.8718 83.2566 46.2223 83.1961Z" fill="#FBAE17"/>
<path d="M29.2888 84.9246L29.3134 87.9129L29.3166 88.2864C29.3563 93.1351 36.9963 97.0028 46.3807 96.9246C55.6017 96.8482 63.0702 92.9906 63.289 88.2567L63.2991 88.0057L63.2682 84.2698" fill="#FBAE17"/>
<path d="M63.2687 84.2704C63.3091 89.1191 55.734 93.1124 46.3497 93.19C36.9653 93.2676 29.3259 89.3998 29.2856 84.5518C29.2458 79.7031 36.8203 75.7098 46.2046 75.6329C55.589 75.5553 63.2284 79.423 63.2687 84.271" fill="#FFE200"/>
<path d="M46.0698 93.3143C41.6163 93.3143 37.4314 92.4349 34.2575 90.8281C30.9915 89.1747 29.1816 86.9459 29.162 84.5525C29.1419 82.159 30.9152 79.9006 34.1534 78.1935C37.3659 76.4997 41.6453 75.5465 46.2035 75.5086C55.6313 75.4336 63.3514 79.3606 63.3918 84.2698C63.4114 86.6633 61.6387 88.9217 58.4004 90.6288C55.1874 92.3226 50.9086 93.2758 46.3504 93.3137C46.2571 93.3137 46.1631 93.3149 46.0698 93.3149M46.4809 75.7547C46.3889 75.7547 46.298 75.7547 46.2053 75.7559C41.6863 75.7931 37.4472 76.7369 34.2688 78.4124C31.1163 80.0747 29.3903 82.2543 29.4092 84.5512C29.4282 86.8475 31.1901 88.9987 34.3697 90.6086C37.5752 92.2318 41.8256 93.103 46.3485 93.067C50.8676 93.0298 55.1073 92.0867 58.2856 90.4105C61.4381 88.7482 63.1641 86.5686 63.1452 84.2717C63.1061 79.5467 55.6559 75.7547 46.4816 75.7547" fill="#FFE200"/>
<path d="M59.9076 84.2982C59.9378 87.9742 53.8599 91.0054 46.3321 91.0672C38.8043 91.1297 32.6771 88.1994 32.6468 84.5234C32.6166 80.8468 38.6945 77.8163 46.2223 77.7544C53.7501 77.6926 59.8773 80.6223 59.9076 84.2982Z" fill="#FFC40D"/>
<path d="M45.7167 82.7078C45.7179 82.9608 45.9147 83.1538 46.5125 83.4327C48.5412 84.3461 49.1315 85.0527 49.1384 86.267C49.1441 87.2682 48.552 88.0284 47.4685 88.3154L47.4736 89.2093L45.4209 89.2194L45.4158 88.306C44.4756 88.029 43.9736 87.3704 43.7163 86.7982L45.2159 85.8292C45.4631 86.3137 45.8554 86.6228 46.4425 86.6203C47.0782 86.6172 47.2428 86.3932 47.2415 86.1402C47.2402 85.9068 47.053 85.6457 46.445 85.3668C44.4359 84.4628 43.8065 83.7569 43.7996 82.5715C43.7945 81.6486 44.3671 80.8872 45.3717 80.5812L45.3667 79.7163L47.4193 79.7062L47.4244 80.6102C48.2663 80.9074 48.7197 81.5464 48.9871 82.1085L47.5947 83.0775C47.3374 82.5734 46.9842 82.2833 46.4463 82.2864C45.8598 82.2896 45.7141 82.4548 45.7154 82.7078" fill="#FDDD00"/>
<path d="M43.8163 96.7638C43.748 96.7638 43.693 96.7095 43.6923 96.6407L43.6658 93.4083C43.6658 93.3401 43.7202 93.2846 43.7885 93.284H43.7897C43.8581 93.284 43.9131 93.3383 43.9137 93.4064L43.9403 96.6388C43.9403 96.707 43.8859 96.7625 43.8176 96.7631H43.8163V96.7638Z" fill="#FAD549"/>
<path d="M45.3771 96.8716C45.3094 96.8716 45.2538 96.8174 45.2531 96.7493L45.2266 93.5168C45.2266 93.4487 45.281 93.3925 45.3493 93.3925H45.3505C45.4182 93.3925 45.4739 93.4474 45.4745 93.5149L45.5011 96.7474C45.5011 96.8155 45.4467 96.871 45.3784 96.8716H45.3771Z" fill="#FAD549"/>
<path d="M46.6925 96.8653C46.6242 96.8653 46.5692 96.811 46.5686 96.7429L46.542 93.5105C46.542 93.4423 46.5964 93.3862 46.6647 93.3862H46.666C46.7336 93.3862 46.7893 93.4404 46.7899 93.5086L46.8165 96.7417C46.8165 96.8098 46.7621 96.8659 46.6938 96.8659H46.6932L46.6925 96.8653Z" fill="#FAD549"/>
<path d="M54.0565 95.8345C53.9889 95.8345 53.9332 95.7802 53.9326 95.7121L53.906 92.4796C53.906 92.4109 53.9604 92.356 54.0287 92.3553H54.03C54.0977 92.3553 54.1533 92.4102 54.1539 92.4777L54.1805 95.7102C54.1805 95.7783 54.1261 95.8345 54.0578 95.8345H54.0565Z" fill="#FAD549"/>
<path d="M56.1918 95.1677C56.1241 95.1677 56.0685 95.1128 56.0678 95.0453L56.0413 91.8129C56.0413 91.7447 56.0957 91.6886 56.164 91.6886H56.1646C56.2329 91.6886 56.2879 91.7435 56.2886 91.811L56.3151 95.0434C56.3151 95.1116 56.2607 95.1677 56.1924 95.1677H56.1912H56.1918Z" fill="#FAD549"/>
<path d="M57.4808 94.6025C57.4131 94.6025 57.3574 94.5476 57.3568 94.4801L57.3296 91.2476C57.3296 91.1795 57.384 91.124 57.4523 91.1234H57.4536C57.5219 91.1234 57.5769 91.1776 57.5775 91.2464L57.6047 94.4788C57.6047 94.547 57.5503 94.6025 57.482 94.6031H57.4808V94.6025Z" fill="#FAD549"/>
<path d="M60.7045 92.6481C60.6362 92.6481 60.5812 92.5938 60.5805 92.5257L60.554 89.2932C60.554 89.2251 60.6084 89.1696 60.6767 89.1689H60.6779C60.7456 89.1689 60.8013 89.2238 60.8019 89.292L60.8285 92.5244C60.8285 92.5926 60.7741 92.6487 60.7058 92.6487H60.7051L60.7045 92.6481Z" fill="#FAD549"/>
<path d="M46.2223 78.2219C53.607 78.1607 59.6433 80.9793 59.8987 84.5568C59.905 84.471 59.9088 84.3846 59.9076 84.2982C59.8773 80.6222 53.7501 77.6919 46.2223 77.7544C38.6945 77.8169 32.6166 80.8474 32.6468 84.5234C32.6475 84.5934 32.6513 84.6628 32.6557 84.7322C32.9048 81.1736 38.8718 78.2824 46.2223 78.2219Z" fill="#FBAE17"/>
<path d="M29.2888 79.951L29.3134 82.9394L29.3166 83.3128C29.3563 88.1615 36.9963 92.0286 46.3807 91.951C55.6017 91.8747 63.0702 88.0171 63.289 83.2832L63.2991 83.0315L63.2682 79.2956" fill="#FBAE17"/>
<path d="M63.2687 79.2962C63.3091 84.1449 55.734 88.1381 46.3497 88.2151C36.9653 88.2927 29.3259 84.425 29.2856 79.5769C29.2458 74.7282 36.8203 70.735 46.2046 70.658C55.589 70.5804 63.2284 74.4481 63.2687 79.2962Z" fill="#FFE200"/>
<path d="M46.0698 88.3407C41.6163 88.3407 37.4314 87.4607 34.2575 85.8539C30.9915 84.2004 29.1816 81.9716 29.162 79.5782C29.1419 77.1848 30.9152 74.9263 34.1534 73.2193C37.3659 71.5254 41.6453 70.5722 46.2035 70.5344C55.6313 70.4593 63.3514 74.387 63.3918 79.2956C63.4114 81.689 61.6387 83.9475 58.4004 85.6545C55.1874 87.3484 50.9086 88.3016 46.3504 88.3394C46.2571 88.3394 46.1631 88.3407 46.0698 88.3407ZM46.4809 70.7804C46.3889 70.7804 46.298 70.7804 46.2053 70.7817C41.6863 70.8189 37.4472 71.762 34.2688 73.4375C31.1163 75.0998 29.3903 77.2794 29.4092 79.5757C29.4282 81.872 31.1901 84.0232 34.3697 85.6331C37.5752 87.2556 41.8256 88.1275 46.3485 88.0915C50.8676 88.0543 55.1073 87.1112 58.2856 85.435C61.4381 83.7727 63.1641 81.5931 63.1452 79.2969C63.1061 74.5718 55.6559 70.7798 46.4816 70.7798" fill="#FFE200"/>
<path d="M59.9076 79.324C59.9378 83.0006 53.8599 86.0312 46.3321 86.093C38.8043 86.1554 32.6771 83.2258 32.6468 79.5492C32.6166 75.8733 38.6945 72.842 46.2223 72.7802C53.7501 72.7178 59.8773 75.6481 59.9076 79.324Z" fill="#FFC40D"/>
<path d="M45.7167 77.7342C45.7179 77.9872 45.9147 78.1802 46.5125 78.4591C48.5412 79.3725 49.1315 80.0791 49.1384 81.2935C49.1441 82.294 48.552 83.0548 47.4685 83.3418L47.4736 84.2357L45.4209 84.2458L45.4158 83.3324C44.4756 83.0554 43.9736 82.3974 43.7163 81.8246L45.2159 80.8556C45.4631 81.3401 45.8554 81.6493 46.4425 81.6467C47.0782 81.6436 47.2428 81.4196 47.2415 81.1667C47.2402 80.9332 47.053 80.6721 46.445 80.3932C44.4359 79.4892 43.8065 78.7833 43.7996 77.598C43.7945 76.675 44.3671 75.9136 45.3717 75.6083L45.3667 74.7434L47.4193 74.7333L47.4244 75.6373C48.2663 75.9344 48.7197 76.5735 48.9871 77.1355L47.5947 78.1045C47.3374 77.6005 46.9842 77.3109 46.4463 77.3134C45.8598 77.3166 45.7141 77.4819 45.7154 77.7348" fill="#FDDD00"/>
<path d="M43.8163 91.7901C43.748 91.7901 43.693 91.7352 43.6923 91.6677L43.6658 88.4353C43.6658 88.3665 43.7202 88.311 43.7885 88.3104H43.7897C43.8581 88.3104 43.9131 88.3653 43.9137 88.4328L43.9403 91.6652C43.9403 91.734 43.8859 91.7895 43.8176 91.7901H43.8163Z" fill="#FAD549"/>
<path d="M45.3771 91.898C45.3094 91.898 45.2538 91.8438 45.2531 91.775L45.2266 88.5426C45.2266 88.4744 45.281 88.4183 45.3493 88.4183H45.3505C45.4182 88.4183 45.4739 88.4725 45.4745 88.5407L45.5011 91.7731C45.5011 91.8413 45.4467 91.8974 45.3784 91.8974H45.3771V91.898Z" fill="#FAD549"/>
<path d="M46.6925 91.8911C46.6242 91.8911 46.5692 91.8362 46.5686 91.7687L46.542 88.5356C46.542 88.4675 46.5964 88.4113 46.6647 88.4113H46.666C46.7336 88.4113 46.7893 88.4656 46.7899 88.5337L46.8165 91.7668C46.8165 91.8349 46.7621 91.8911 46.6938 91.8911H46.6932H46.6925Z" fill="#FAD549"/>
<path d="M54.0565 90.8609C53.9889 90.8609 53.9332 90.8067 53.9326 90.7385L53.906 87.5054C53.906 87.4373 53.9604 87.3818 54.0287 87.3812H54.03C54.0977 87.3812 54.1533 87.436 54.1539 87.5042L54.1805 90.7373C54.1805 90.8054 54.1261 90.8609 54.0578 90.8616H54.0565V90.8609Z" fill="#FAD549"/>
<path d="M56.1918 90.1941C56.1241 90.1941 56.0685 90.1392 56.0678 90.0717L56.0413 86.8386C56.0413 86.7705 56.0957 86.715 56.164 86.7144H56.1646C56.2329 86.7144 56.2879 86.7692 56.2886 86.8367L56.3151 90.0698C56.3151 90.138 56.2607 90.1935 56.1924 90.1941H56.1912H56.1918Z" fill="#FAD549"/>
<path d="M57.4808 89.6282C57.4131 89.6282 57.3574 89.574 57.3568 89.5058L57.3296 86.2734C57.3296 86.2053 57.384 86.1497 57.4523 86.1491H57.4536C57.5219 86.1491 57.5769 86.204 57.5775 86.2721L57.6047 89.5046C57.6047 89.5727 57.5503 89.6289 57.482 89.6289H57.4808V89.6282Z" fill="#FAD549"/>
<path d="M60.7045 87.6738C60.6362 87.6738 60.5812 87.619 60.5805 87.5508L60.554 84.3184C60.554 84.2502 60.6084 84.1941 60.6767 84.1941H60.6779C60.7456 84.1941 60.8013 84.2483 60.8019 84.3165L60.8285 87.5489C60.8285 87.6171 60.7741 87.6726 60.7058 87.6732H60.7051L60.7045 87.6738Z" fill="#FAD549"/>
<path d="M46.2223 73.2477C53.607 73.1865 59.6433 76.0051 59.8987 79.5826C59.905 79.4969 59.9088 79.4104 59.9076 79.324C59.8773 75.6474 53.7501 72.7178 46.2223 72.7802C38.6945 72.842 32.6166 75.8733 32.6468 79.5492C32.6475 79.6192 32.6513 79.6886 32.6557 79.758C32.9048 76.1994 38.8718 73.3082 46.2223 73.2477Z" fill="#FBAE17"/>
<path d="M24.3894 74.9768L24.414 77.9658L24.4172 78.3392C24.4575 83.1879 32.0969 87.055 41.4813 86.9774C50.7023 86.9011 58.1708 83.0435 58.3896 78.3096L58.3997 78.0579L58.3688 74.3226" fill="#FBAE17"/>
<path d="M58.3696 74.3226C58.4099 79.1713 50.8349 83.1639 41.4505 83.2415C32.0662 83.3191 24.4267 79.4514 24.3864 74.6033C24.3467 69.7546 31.9211 65.7614 41.3055 65.6838C50.6898 65.6062 58.3292 69.4739 58.3696 74.3226Z" fill="#FFE200"/>
<path d="M41.1711 83.3664C36.7176 83.3664 32.5327 82.487 29.3588 80.8802C26.0928 79.2268 24.2829 76.998 24.2633 74.6046C24.2438 72.2111 26.0165 69.9527 29.2548 68.2456C32.4672 66.5518 36.7466 65.5986 41.3048 65.5608C50.7326 65.4857 58.4528 69.4133 58.4931 74.322C58.5127 76.7154 56.74 78.9738 53.5017 80.6809C50.2887 82.3747 46.0099 83.3279 41.4517 83.3658C41.3584 83.3664 41.2644 83.367 41.1711 83.367M41.5822 65.8074C41.4902 65.8074 41.3994 65.8074 41.3067 65.8087C36.7876 65.8459 32.5485 66.7896 29.3702 68.4652C26.2177 70.1275 24.4916 72.307 24.5106 74.6039C24.5295 76.9002 26.2908 79.0514 29.4704 80.6607C32.6759 82.2839 36.9263 83.1551 41.4492 83.1191C45.9682 83.0819 50.2079 82.1388 53.3863 80.4626C56.5388 78.8003 58.2648 76.6208 58.2459 74.3245C58.2068 69.5994 50.756 65.8074 41.5816 65.8074" fill="#FFE200"/>
<path d="M55.0084 74.3497C55.0387 78.0263 48.9607 81.0569 41.4329 81.1187C33.9051 81.1806 27.7779 78.2509 27.7477 74.575C27.7174 70.899 33.7954 67.8678 41.3232 67.806C48.851 67.7435 54.9781 70.6738 55.0084 74.3497Z" fill="#FFC40D"/>
<path d="M40.8172 72.76C40.8185 73.0129 41.0153 73.206 41.6131 73.4848C43.6418 74.3983 44.2321 75.1048 44.239 76.3198C44.2447 77.3204 43.6525 78.0812 42.5691 78.3682L42.5742 79.2621L40.5215 79.2722L40.5164 78.3587C39.5762 78.0818 39.0742 77.4232 38.8169 76.851L40.3165 75.882C40.5637 76.3665 40.9566 76.6756 41.5431 76.6731C42.1788 76.67 42.3434 76.4454 42.3421 76.193C42.3408 75.9596 42.1535 75.6985 41.5456 75.4196C39.5364 74.5156 38.9071 73.8097 38.9001 72.6243C38.8951 71.7014 39.4677 70.9406 40.4723 70.634L40.4672 69.7691L42.5199 69.759L42.5256 70.663C43.3675 70.9602 43.8209 71.5992 44.0883 72.1613L42.6959 73.1303C42.4392 72.6262 42.0854 72.336 41.5481 72.3392C40.9617 72.3423 40.816 72.5076 40.8172 72.7606" fill="#FDDD00"/>
<path d="M41.7934 86.9175C41.725 86.9175 41.67 86.8632 41.6694 86.7944L41.6428 83.562C41.6428 83.4938 41.6972 83.4377 41.7655 83.4371H41.7668C41.8351 83.4371 41.8901 83.492 41.8908 83.5601L41.9173 86.7932C41.9173 86.8613 41.8629 86.9175 41.7946 86.9175H41.7934Z" fill="#FAD549"/>
<path d="M49.1571 85.8867C49.0888 85.8867 49.0338 85.8324 49.0332 85.7643L49.0066 82.5318C49.0066 82.4637 49.061 82.4076 49.1293 82.4069H49.1306C49.1982 82.4069 49.2539 82.4618 49.2545 82.5299L49.2811 85.763C49.2811 85.8312 49.2267 85.8867 49.1584 85.8873H49.1571V85.8867Z" fill="#FAD549"/>
<path d="M51.2924 85.2198C51.2241 85.2198 51.169 85.1656 51.1684 85.0975L51.1418 81.865C51.1418 81.7969 51.1962 81.7407 51.2652 81.7407H51.2665C51.3348 81.7407 51.3898 81.795 51.3904 81.8631L51.417 85.0962C51.417 85.1643 51.3626 85.2205 51.2943 85.2205H51.293L51.2924 85.2198Z" fill="#FAD549"/>
<path d="M52.5814 84.654C52.5131 84.654 52.4581 84.5991 52.4575 84.5316L52.4309 81.2991C52.4309 81.231 52.4853 81.1755 52.5536 81.1749H52.5542C52.6226 81.1749 52.6776 81.2297 52.6782 81.2972L52.7048 84.5297C52.7048 84.5978 52.6504 84.654 52.5821 84.654H52.5808H52.5814Z" fill="#FAD549"/>
<path d="M55.8053 82.6996C55.7376 82.6996 55.682 82.6454 55.6813 82.5773L55.6548 79.3448C55.6548 79.2767 55.7092 79.2205 55.7775 79.2205H55.7788C55.8464 79.2205 55.9021 79.2748 55.9027 79.3429L55.9293 82.5754C55.9293 82.6435 55.8749 82.6996 55.8066 82.6996H55.8053Z" fill="#FAD549"/>
<path d="M41.3232 68.274C48.7078 68.2129 54.7442 71.0315 54.9996 74.609C55.0052 74.5232 55.009 74.4368 55.0084 74.3504C54.9781 70.6744 48.851 67.7441 41.3232 67.8066C33.7954 67.8684 27.7174 70.8996 27.7477 74.5756C27.7477 74.6456 27.7515 74.715 27.7565 74.7844C28.0056 71.2258 33.9726 68.3346 41.3232 68.274Z" fill="#FBAE17"/>
<path d="M29.2888 70.0026L29.3134 72.9915L29.3166 73.365C29.3563 78.2137 36.9963 82.0808 46.3807 82.0032C55.6017 81.9269 63.0702 78.0692 63.289 73.3353L63.2991 73.0843L63.2682 69.3484" fill="#FBAE17"/>
<path d="M63.2687 69.3484C63.3091 74.1971 55.734 78.1903 46.3497 78.2673C36.9653 78.3449 29.3259 74.4772 29.2856 69.6291C29.2458 64.7804 36.8203 60.7872 46.2046 60.7102C55.589 60.6326 63.2284 64.5003 63.2687 69.3484Z" fill="#FFE200"/>
<path d="M46.0698 78.3922C41.6163 78.3922 37.4314 77.5122 34.2575 75.9061C30.9915 74.2526 29.1816 72.0238 29.162 69.6304C29.1419 67.237 30.9152 64.9785 34.1534 63.2715C37.3659 61.5776 41.6453 60.6244 46.2035 60.5866C55.6313 60.5115 63.3514 64.4392 63.3918 69.3478C63.4114 71.7412 61.6387 73.9996 58.4004 75.7067C55.1874 77.4005 50.9086 78.3538 46.3504 78.3916C46.2571 78.3916 46.1631 78.3929 46.0698 78.3929M46.4809 60.8326C46.3889 60.8326 46.298 60.8326 46.2053 60.8339C41.6863 60.8711 37.4472 61.8142 34.2688 63.4904C31.1163 65.1526 29.3903 67.3322 29.4092 69.6285C29.4282 71.9248 31.1901 74.076 34.3697 75.6859C37.5752 77.3091 41.8256 78.1803 46.3485 78.1443C50.8676 78.1071 55.1073 77.164 58.2856 75.4878C61.4381 73.8255 63.1641 71.646 63.1452 69.3497C63.1061 64.6246 55.6559 60.8326 46.4816 60.8326" fill="#FFE200"/>
<path d="M59.9076 69.3762C59.9378 73.0521 53.8599 76.0833 46.3321 76.1452C38.8043 76.2076 32.6771 73.2773 32.6468 69.6014C32.6166 65.9248 38.6945 62.8942 46.2223 62.8324C53.7501 62.7706 59.8773 65.7002 59.9076 69.3762Z" fill="#FFC40D"/>
<path d="M45.7167 67.7858C45.7179 68.0388 45.9147 68.2324 46.5125 68.5106C48.5412 69.4241 49.1315 70.13 49.1384 71.345C49.1441 72.3456 48.552 73.1064 47.4685 73.394L47.4736 74.2879L45.4209 74.298L45.4158 73.3846C44.4756 73.1076 43.9736 72.449 43.7163 71.8768L45.2159 70.9079C45.4631 71.3923 45.8554 71.7015 46.4425 71.6989C47.0782 71.6958 47.2428 71.4718 47.2415 71.2189C47.2402 70.9854 47.053 70.7243 46.445 70.4454C44.4359 69.5414 43.8065 68.8355 43.7996 67.6502C43.7945 66.7272 44.3671 65.9658 45.3717 65.6598L45.3667 64.7949L47.4193 64.7849L47.4244 65.6889C48.2663 65.986 48.7197 66.625 48.9871 67.1871L47.5947 68.1561C47.3374 67.6521 46.9842 67.3625 46.4463 67.365C45.8598 67.3682 45.7141 67.5341 45.7154 67.7864" fill="#FDDD00"/>
<path d="M43.8163 81.8417C43.748 81.8417 43.693 81.7874 43.6923 81.7187L43.6658 78.4862C43.6658 78.4181 43.7202 78.3626 43.7885 78.3619H43.7897C43.8581 78.3619 43.9131 78.4168 43.9137 78.4843L43.9403 81.7168C43.9403 81.7849 43.8859 81.8411 43.8176 81.8411H43.8163V81.8417Z" fill="#FAD549"/>
<path d="M45.3771 81.9496C45.3094 81.9496 45.2538 81.8947 45.2531 81.8272L45.2266 78.5947C45.2266 78.5266 45.281 78.4705 45.3493 78.4705H45.3505C45.4182 78.4705 45.4739 78.5247 45.4745 78.5928L45.5011 81.8253C45.5011 81.8934 45.4467 81.949 45.3784 81.9496H45.3771Z" fill="#FAD549"/>
<path d="M46.6925 81.9432C46.6242 81.9432 46.5692 81.889 46.5686 81.8208L46.542 78.5884C46.542 78.5196 46.5964 78.4641 46.6647 78.4641H46.666C46.7336 78.4641 46.7893 78.5184 46.7899 78.5865L46.8165 81.819C46.8165 81.8871 46.7621 81.9432 46.6938 81.9432H46.6932H46.6925Z" fill="#FAD549"/>
<path d="M54.0565 80.9124C53.9889 80.9124 53.9332 80.8582 53.9326 80.7901L53.906 77.557C53.906 77.4888 53.9604 77.4333 54.0287 77.4327H54.03C54.0977 77.4327 54.1533 77.4869 54.1539 77.5551L54.1805 80.7875C54.1805 80.8557 54.1261 80.9118 54.0578 80.9118H54.0565V80.9124Z" fill="#FAD549"/>
<path d="M56.1918 80.2457C56.1241 80.2457 56.0685 80.1908 56.0678 80.1233L56.0413 76.8908C56.0413 76.8227 56.0957 76.7672 56.164 76.7665H56.1646C56.2329 76.7665 56.2879 76.8208 56.2886 76.8889L56.3151 80.122C56.3151 80.1901 56.2607 80.2463 56.1924 80.2463H56.1912L56.1918 80.2457Z" fill="#FAD549"/>
<path d="M57.4808 79.6797C57.4131 79.6797 57.3574 79.6255 57.3568 79.5574L57.3296 76.3249C57.3296 76.2568 57.384 76.2006 57.4523 76.2006H57.4536C57.5219 76.2006 57.5769 76.2549 57.5775 76.323L57.6047 79.5555C57.6047 79.6236 57.5503 79.6797 57.482 79.6797H57.4808Z" fill="#FAD549"/>
<path d="M60.7045 77.7254C60.6362 77.7254 60.5812 77.6705 60.5805 77.603L60.554 74.3706C60.554 74.3024 60.6084 74.2463 60.6767 74.2463H60.6779C60.7456 74.2463 60.8013 74.3012 60.8019 74.3693L60.8285 77.6017C60.8285 77.6699 60.7741 77.726 60.7058 77.726H60.7051L60.7045 77.7254Z" fill="#FAD549"/>
<path d="M46.2223 63.2998C53.607 63.2386 59.6433 66.0572 59.8987 69.6348C59.905 69.549 59.9088 69.4625 59.9076 69.3761C59.8773 65.6995 53.7501 62.7699 46.2223 62.8323C38.6945 62.8948 32.6166 65.9254 32.6468 69.6013C32.6475 69.6714 32.6513 69.7407 32.6557 69.8101C32.9048 66.2515 38.8718 63.3604 46.2223 63.2998Z" fill="#FBAE17"/>
<path d="M29.2888 65.0283L29.3134 68.0166L29.3166 68.3901C29.3563 73.2388 36.9963 77.1059 46.3807 77.0283C55.6017 76.952 63.0702 73.0943 63.289 68.3605L63.2991 68.1087L63.2682 64.3729" fill="#FBAE17"/>
<path d="M63.2687 64.3741C63.3091 69.2228 55.734 73.2155 46.3497 73.2931C36.9653 73.3706 29.3259 69.5029 29.2856 64.6549C29.2458 59.8062 36.8203 55.8129 46.2046 55.7359C55.589 55.6584 63.2284 59.5261 63.2687 64.3741Z" fill="#FFE200"/>
<path d="M46.0698 73.418C41.6163 73.418 37.4314 72.5386 34.2575 70.9318C30.9915 69.2784 29.1816 67.0496 29.162 64.6562C29.1419 62.2627 30.9152 60.0043 34.1534 58.2972C37.3659 56.6034 41.6453 55.6502 46.2035 55.6123C55.6313 55.5373 63.3514 59.4643 63.3918 64.3735C63.4114 66.767 61.6387 69.0254 58.4004 70.7325C55.1874 72.4263 50.9086 73.3795 46.3504 73.4174C46.2571 73.4174 46.1631 73.4186 46.0698 73.4186M46.4809 55.8584C46.3889 55.8584 46.298 55.8584 46.2053 55.8596C41.6863 55.8968 37.4472 56.84 34.2688 58.5161C31.1163 60.1784 29.3903 62.358 29.4092 64.6543C29.4282 66.9505 31.1901 69.1017 34.3697 70.7117C37.5752 72.3348 41.8256 73.206 46.3485 73.1701C50.8676 73.1328 55.1073 72.1897 58.2856 70.5136C61.4381 68.8513 63.1641 66.6717 63.1452 64.3754C63.1061 59.6504 55.6559 55.8584 46.4816 55.8584" fill="#FFE200"/>
<path d="M59.9076 64.4019C59.9378 68.0785 53.8599 71.109 46.3321 71.1709C38.8043 71.2333 32.6771 68.3037 32.6468 64.6271C32.6166 60.9505 38.6945 57.9199 46.2223 57.8581C53.7501 57.7956 59.8773 60.7259 59.9076 64.4019Z" fill="#FFC40D"/>
<path d="M45.7167 62.8115C45.7179 63.0645 45.9147 63.2575 46.5125 63.5364C48.5412 64.4498 49.1315 65.1564 49.1384 66.3714C49.1441 67.3726 48.552 68.1327 47.4685 68.4198L47.4736 69.3137L45.4209 69.3238L45.4158 68.4103C44.4756 68.1334 43.9736 67.4748 43.7163 66.9026L45.2159 65.9336C45.4631 66.4181 45.8554 66.7272 46.4425 66.7247C47.0782 66.7215 47.2428 66.4976 47.2415 66.2446C47.2402 66.0112 47.053 65.75 46.445 65.4712C44.4359 64.5672 43.8065 63.8613 43.7996 62.6759C43.7945 61.753 44.3671 60.9915 45.3717 60.6862L45.3667 59.8213L47.4193 59.8112L47.4244 60.7152C48.2663 61.0124 48.7197 61.6514 48.9871 62.2135L47.5947 63.1825C47.3374 62.6784 46.9842 62.3889 46.4463 62.3914C45.8598 62.3939 45.7141 62.5598 45.7154 62.8128" fill="#FDDD00"/>
<path d="M43.8163 76.8675C43.748 76.8675 43.693 76.8126 43.6923 76.7451L43.6658 73.5126C43.6658 73.4438 43.7202 73.3883 43.7885 73.3877H43.7897C43.8581 73.3877 43.9131 73.4426 43.9137 73.5101L43.9403 76.7425C43.9403 76.8113 43.8859 76.8668 43.8176 76.8675H43.8163Z" fill="#FAD549"/>
<path d="M45.3771 76.9753C45.3094 76.9753 45.2538 76.921 45.2531 76.8523L45.2266 73.6198C45.2266 73.5517 45.281 73.4962 45.3493 73.4955H45.3505C45.4182 73.4955 45.4739 73.5498 45.4745 73.6179L45.5011 76.8504C45.5011 76.9185 45.4467 76.9747 45.3784 76.9747H45.3771V76.9753Z" fill="#FAD549"/>
<path d="M46.6925 76.969C46.6242 76.969 46.5692 76.9141 46.5686 76.846L46.542 73.6129C46.542 73.5448 46.5964 73.4893 46.6647 73.4886H46.666C46.7336 73.4886 46.7893 73.5429 46.7899 73.611L46.8165 76.8441C46.8165 76.9123 46.7621 76.9678 46.6938 76.9684H46.6932L46.6925 76.969Z" fill="#FAD549"/>
<path d="M54.0565 75.9389C53.9889 75.9389 53.9332 75.884 53.9326 75.8165L53.906 72.5834C53.906 72.5153 53.9604 72.4591 54.0287 72.4591H54.03C54.0977 72.4591 54.1533 72.5134 54.1539 72.5815L54.1805 75.8146C54.1805 75.8827 54.1261 75.9389 54.0578 75.9389H54.0565Z" fill="#FAD549"/>
<path d="M56.1918 75.2714C56.1241 75.2714 56.0685 75.2165 56.0678 75.149L56.0413 71.9159C56.0413 71.8478 56.0957 71.7923 56.164 71.7916H56.1646C56.2329 71.7916 56.2879 71.8465 56.2886 71.914L56.3151 75.1471C56.3151 75.2152 56.2607 75.2708 56.1924 75.2714H56.1912H56.1918Z" fill="#FAD549"/>
<path d="M57.4808 74.7056C57.4131 74.7056 57.3574 74.6513 57.3568 74.5832L57.3296 71.3507C57.3296 71.2826 57.384 71.2271 57.4523 71.2264H57.4536C57.5219 71.2264 57.5769 71.2807 57.5775 71.3488L57.6047 74.5813C57.6047 74.6494 57.5503 74.7056 57.482 74.7056H57.4808Z" fill="#FAD549"/>
<path d="M60.7045 72.7518C60.6362 72.7518 60.5812 72.6969 60.5805 72.6288L60.554 69.3963C60.554 69.3282 60.6084 69.272 60.6767 69.272H60.6779C60.7456 69.272 60.8013 69.3269 60.8019 69.3944L60.8285 72.6269C60.8285 72.695 60.7741 72.7505 60.7058 72.7512H60.7051L60.7045 72.7518Z" fill="#FAD549"/>
<path d="M46.2223 58.3256C53.607 58.2644 59.6433 61.083 59.8987 64.6605C59.905 64.5747 59.9088 64.4883 59.9076 64.4019C59.8773 60.7253 53.7501 57.7956 46.2223 57.8581C38.6945 57.9199 32.6166 60.9511 32.6468 64.6271C32.6475 64.6971 32.6513 64.7665 32.6557 64.8359C32.9048 61.2773 38.8718 58.3861 46.2223 58.3256Z" fill="#FBAE17"/>
<path d="M29.3833 60.8231L29.4079 63.8114L29.411 64.1849C29.4508 69.0336 37.0908 72.9007 46.4752 72.8231C55.6962 72.7467 63.1647 68.8891 63.3835 64.1552L63.3936 63.9041L63.3627 60.1683" fill="#FBAE17"/>
<path d="M63.3628 60.1683C63.4032 65.017 55.8281 69.0102 46.4438 69.0872C37.06 69.1648 29.42 65.2971 29.3803 60.449C29.3406 55.6009 36.915 51.607 46.2994 51.5301C55.6837 51.4525 63.3231 55.3202 63.3635 60.1683" fill="#FFE200"/>
<path d="M46.1645 69.2121C41.711 69.2121 37.5262 68.3327 34.3522 66.7259C31.0862 65.0725 29.2763 62.8437 29.2568 60.4503C29.2372 58.0568 31.0099 55.7984 34.2482 54.0913C37.4606 52.3975 41.74 51.4443 46.2982 51.4065C55.726 51.3314 63.4462 55.2584 63.4865 60.1677C63.5061 62.5611 61.7334 64.8195 58.4951 66.5266C55.2827 68.2204 51.0033 69.1736 46.4451 69.2115C46.3518 69.2121 46.2578 69.2127 46.1645 69.2127M46.5756 51.6525C46.4836 51.6525 46.3928 51.6525 46.3001 51.6537C41.781 51.691 37.5419 52.6341 34.3636 54.3102C31.2111 55.9725 29.485 58.1521 29.504 60.4484C29.5229 62.7447 31.2848 64.8959 34.4645 66.5058C37.6699 68.129 41.9204 69.0001 46.4432 68.9642C50.9623 68.927 55.202 67.9839 58.3803 66.3077C61.5328 64.646 63.2589 62.4658 63.24 60.1696C63.2009 55.4445 55.75 51.6525 46.5763 51.6525" fill="#FFE200"/>
<path d="M60.0023 60.1961C60.0326 63.872 53.9546 66.9026 46.4268 66.9651C38.899 67.0269 32.7718 64.0972 32.7416 60.4213C32.7113 56.7447 38.7893 53.7141 46.3171 53.6523C53.8449 53.5898 59.972 56.5201 60.0023 60.1961Z" fill="#FFC40D"/>
<path d="M43.911 72.6622C43.8434 72.6622 43.7877 72.608 43.7871 72.5398L43.7605 69.3074C43.7605 69.2392 43.8149 69.1831 43.8832 69.1831H43.8838C43.9522 69.1831 44.0072 69.238 44.0078 69.3055L44.035 72.5379C44.035 72.6061 43.9806 72.6622 43.9123 72.6622H43.911Z" fill="#FAD549"/>
<path d="M45.4718 72.7701C45.4035 72.7701 45.3485 72.7152 45.3479 72.6477L45.3213 69.4152C45.3213 69.3471 45.3757 69.291 45.444 69.291H45.4453C45.5129 69.291 45.5686 69.3452 45.5692 69.4133L45.5958 72.6458C45.5958 72.7139 45.5414 72.7694 45.4731 72.7701H45.4725H45.4718Z" fill="#FAD549"/>
<path d="M46.7865 72.7631C46.7182 72.7631 46.6632 72.7089 46.6626 72.6408L46.636 69.4077C46.636 69.3395 46.6904 69.2834 46.7587 69.2834H46.76C46.8276 69.2834 46.8833 69.3383 46.8839 69.4058L46.9105 72.6389C46.9105 72.707 46.8561 72.7625 46.7878 72.7631H46.7865Z" fill="#FAD549"/>
<path d="M54.1512 71.733C54.0835 71.733 54.0278 71.6781 54.0272 71.6106L54 68.3775C54 68.3094 54.0544 68.2532 54.1227 68.2532H54.124C54.1923 68.2532 54.2473 68.3075 54.2479 68.3756L54.2745 71.6087C54.2745 71.6768 54.2201 71.7324 54.1518 71.733H54.1505H54.1512Z" fill="#FAD549"/>
<path d="M56.2863 71.0656C56.218 71.0656 56.1629 71.0107 56.1623 70.9432L56.1357 67.7101C56.1357 67.642 56.1901 67.5864 56.2591 67.5858H56.2603C56.3287 67.5858 56.3837 67.6401 56.3843 67.7082L56.4109 70.9413C56.4109 71.0094 56.3565 71.0656 56.2882 71.0656H56.2869H56.2863Z" fill="#FAD549"/>
<path d="M57.5753 70.5003C57.507 70.5003 57.452 70.4454 57.4514 70.3779L57.4248 67.1455C57.4248 67.0773 57.4792 67.0218 57.5475 67.0212H57.5481C57.6158 67.0212 57.6715 67.0761 57.6721 67.1436L57.6993 70.376C57.6993 70.4442 57.6449 70.5003 57.5766 70.5003H57.5753Z" fill="#FAD549"/>
<path d="M60.7992 68.5459C60.7315 68.5459 60.6759 68.4911 60.6752 68.4236L60.6487 65.1911C60.6487 65.123 60.7031 65.0675 60.7714 65.0668H60.7727C60.8403 65.0668 60.896 65.1217 60.8966 65.1898L60.9232 68.4223C60.9232 68.4904 60.8688 68.546 60.8005 68.5466H60.7992V68.5459Z" fill="#FAD549"/>
<path d="M46.3171 54.1197C53.7017 54.0585 59.7381 56.8772 59.9935 60.4547C59.9998 60.3689 60.0035 60.2831 60.0023 60.196C59.972 56.5195 53.8449 53.5904 46.3171 53.6523C38.7893 53.7147 32.7113 56.7453 32.7416 60.4213C32.7416 60.4913 32.7454 60.5607 32.7504 60.6301C32.9995 57.0715 38.9665 54.1803 46.3171 54.1197Z" fill="#FBAE17"/>
<path d="M45.4492 61.4439V64.2852H43.5403V56.2211H47.1544C47.85 56.2211 48.4617 56.3321 48.9902 56.5535C49.5186 56.775 49.9247 57.0897 50.2085 57.4979C50.4923 57.9061 50.6348 58.3704 50.6348 58.8908C50.6348 59.6813 50.3239 60.3039 49.7028 60.76C49.0816 61.2161 48.2214 61.4439 47.1229 61.4439H45.4492ZM45.4492 60.0976H47.1544C47.6589 60.0976 48.0442 59.9942 48.3091 59.7872C48.5739 59.5803 48.7064 59.2851 48.7064 58.9009C48.7064 58.5167 48.5727 58.1868 48.3059 57.9426C48.0385 57.6991 47.6696 57.5736 47.1985 57.566H45.4486V60.097L45.4492 60.0976Z" fill="#FFE200"/>
<path d="M33.401 92.3774C33.4312 96.0534 27.3533 99.0846 19.8255 99.1464C12.2977 99.2089 6.17052 96.2786 6.14025 92.6027C6.10998 88.9261 12.188 85.8955 19.7157 85.8337C27.2435 85.7718 33.3707 88.7015 33.401 92.3774Z" fill="#FFC40D"/>
<path d="M19.2093 90.7871C19.2106 91.0401 19.4073 91.2338 20.0052 91.512C22.0339 92.4254 22.6242 93.132 22.6311 94.3464C22.6368 95.3469 22.0446 96.1077 20.9612 96.3954L20.9663 97.2893L18.9136 97.2994L18.9085 96.3859C17.9683 96.1089 17.4663 95.4503 17.209 94.8782L18.7086 93.9092C18.9558 94.3937 19.3481 94.7028 19.9352 94.7003C20.5709 94.6971 20.7354 94.4732 20.7342 94.2202C20.7329 93.9868 20.5456 93.7256 19.9377 93.4468C17.9285 92.5428 17.2992 91.8368 17.2922 90.6515C17.2872 89.7286 17.8598 88.9671 18.8644 88.6618L18.8593 87.7969L20.912 87.7868L20.9171 88.6908C21.759 88.9879 22.2124 89.627 22.4798 90.1891L21.0873 91.1581C20.83 90.654 20.4769 90.3644 19.9396 90.367C19.3531 90.3701 19.2074 90.536 19.2087 90.7884" fill="#FDDD00"/>
<path d="M11.8487 95.7614C11.85 96.0143 12.0468 96.2074 12.6446 96.4862C14.6733 97.3997 15.2636 98.1062 15.2705 99.3212C15.2762 100.322 14.684 101.083 13.6006 101.37L13.6057 102.263L11.553 102.274L11.5479 101.36C10.6077 101.083 10.1057 100.425 9.84839 99.8524L11.348 98.8834C11.5952 99.3679 11.9881 99.677 12.5746 99.6745C13.2103 99.6713 13.3749 99.4468 13.3736 99.1944C13.3723 98.961 13.185 98.6998 12.5771 98.421C10.5679 97.517 9.93857 96.8111 9.93163 95.6257C9.92659 94.7028 10.4992 93.942 11.5038 93.636L11.4987 92.7711L13.5514 92.761L13.5571 93.665C14.399 93.9622 14.8524 94.6012 15.1198 95.1633L13.7274 96.1323C13.4707 95.6282 13.1169 95.3381 12.5796 95.3412C11.9931 95.3444 11.8475 95.5096 11.8487 95.7626" fill="#FDDD00"/>
<path d="M0.320312 93.0039L0.344907 95.9923L0.34806 96.3657C0.38779 101.214 8.02783 105.082 17.4122 105.004C26.6332 104.928 34.1017 101.07 34.3205 96.3361L34.3306 96.085L34.2997 92.3491" fill="#FBAE17"/>
<path d="M34.3002 92.3497C34.3406 97.1984 26.7655 101.192 17.3812 101.269C7.99682 101.346 0.35741 97.4785 0.31705 92.6305C0.277321 87.7818 7.85178 83.7885 17.2361 83.7115C26.6205 83.6339 34.2599 87.5017 34.3002 92.3497Z" fill="#FFE200"/>
<path d="M17.1013 101.394C12.6478 101.394 8.46293 100.514 5.28899 98.908C2.02298 97.2546 0.213079 95.0258 0.19353 92.6323C0.17335 90.2389 1.94667 87.9805 5.18494 86.2734C8.39735 84.5796 12.6768 83.6264 17.2349 83.5885C26.6628 83.5135 34.3829 87.4411 34.4233 92.3497C34.4428 94.7432 32.6702 97.0016 29.4319 98.7087C26.2188 100.402 21.9401 101.356 17.3819 101.394C17.2886 101.394 17.1946 101.395 17.1013 101.395M17.5124 83.8346C17.4204 83.8346 17.3295 83.8345 17.2368 83.8358C12.7178 83.873 8.4787 84.8162 5.30034 86.4923C2.14784 88.1546 0.421816 90.3342 0.440735 92.6305C0.459654 94.9267 2.22162 97.0779 5.40061 98.6872C8.60609 100.31 12.8565 101.182 17.3794 101.146C21.8984 101.108 26.1381 100.165 29.3165 98.4891C32.469 96.8268 34.195 94.6473 34.1761 92.351C34.137 87.6259 26.6868 83.8339 17.5124 83.8339" fill="#FFE200"/>
<path d="M14.8478 104.844C14.7795 104.844 14.7245 104.789 14.7238 104.721L14.6973 101.488C14.6973 101.42 14.7517 101.365 14.82 101.364H14.8212C14.8889 101.364 14.9446 101.419 14.9452 101.487L14.9718 104.719C14.9718 104.787 14.9174 104.844 14.8491 104.844H14.8478Z" fill="#FAD549"/>
<path d="M16.4086 104.952C16.3409 104.952 16.2853 104.897 16.2846 104.829L16.2581 101.597C16.2581 101.529 16.3125 101.472 16.3808 101.472H16.382C16.4497 101.472 16.5054 101.527 16.506 101.595L16.5326 104.827C16.5326 104.895 16.4782 104.951 16.4099 104.952H16.4086Z" fill="#FAD549"/>
<path d="M17.724 104.945C17.6557 104.945 17.6007 104.89 17.6001 104.822L17.5735 101.59C17.5735 101.522 17.6279 101.465 17.6962 101.465H17.6975C17.7651 101.465 17.8208 101.52 17.8214 101.588L17.848 104.82C17.848 104.888 17.7936 104.945 17.7253 104.945H17.7247H17.724Z" fill="#FAD549"/>
<path d="M25.0879 103.914C25.0203 103.914 24.9646 103.86 24.964 103.792L24.9368 100.559C24.9368 100.491 24.9912 100.435 25.0595 100.435H25.0607C25.1284 100.435 25.1841 100.489 25.1847 100.557L25.2119 103.79C25.2119 103.858 25.1575 103.914 25.0892 103.914H25.0879Z" fill="#FAD549"/>
<path d="M27.2233 103.248C27.1556 103.248 27.1 103.193 27.0993 103.125L27.0728 99.8922C27.0728 99.824 27.1272 99.7685 27.1955 99.7679H27.1961C27.2644 99.7679 27.3194 99.8221 27.3201 99.8903L27.3466 103.123C27.3466 103.191 27.2922 103.248 27.2239 103.248H27.2227H27.2233Z" fill="#FAD549"/>
<path d="M28.5123 102.682C28.4446 102.682 28.3889 102.628 28.3883 102.559L28.3611 99.3269C28.3611 99.2588 28.4155 99.2026 28.4838 99.2026H28.4851C28.5534 99.2026 28.6084 99.2569 28.609 99.325L28.6356 102.557C28.6356 102.626 28.5812 102.682 28.5129 102.682H28.5116H28.5123Z" fill="#FAD549"/>
<path d="M31.736 100.727C31.6677 100.727 31.6126 100.672 31.612 100.605L31.5854 97.3725C31.5854 97.3044 31.6398 97.2482 31.7082 97.2482H31.7094C31.7771 97.2482 31.8328 97.3031 31.8334 97.3712L31.86 100.604C31.86 100.672 31.8056 100.728 31.7373 100.728H31.7366L31.736 100.727Z" fill="#FAD549"/>
<path d="M19.7153 86.3011C27.0999 86.24 33.1362 89.0586 33.3916 92.6361C33.398 92.5503 33.4017 92.4639 33.4005 92.3775C33.3702 88.7009 27.243 85.7712 19.7153 85.8337C12.1875 85.8961 6.10949 88.9267 6.13976 92.6027C6.14039 92.6727 6.14418 92.7421 6.14859 92.8115C6.39769 89.2529 12.3647 86.3617 19.7153 86.3011Z" fill="#FBAE17"/>
<path d="M2.78223 88.0303L2.80682 91.0186L2.80997 91.392C2.8497 96.2407 10.4897 100.108 19.8741 100.03C29.0951 99.9539 36.5636 96.0963 36.7824 91.3624L36.7925 91.1107L36.7616 87.3748" fill="#FBAE17"/>
<path d="M36.7617 87.3755C36.802 92.2242 29.2269 96.2168 19.8426 96.2944C10.4582 96.372 2.81884 92.5043 2.77848 87.6562C2.73875 82.8075 10.3132 78.8143 19.6976 78.7373C29.0819 78.6597 36.7213 82.5274 36.7617 87.3755Z" fill="#FFE200"/>
<path d="M19.5632 96.4199C15.1097 96.4199 10.9248 95.5405 7.75091 93.9338C4.48489 92.2803 2.67499 90.0515 2.65544 87.6581C2.63526 85.2647 4.40859 83.0062 7.64685 81.2992C10.8593 79.6053 15.1387 78.6521 19.6969 78.6143C29.1247 78.5392 36.8449 82.4662 36.8852 87.3755C36.9048 89.7689 35.1321 92.0273 31.8938 93.7344C28.6808 95.4282 24.402 96.3815 19.8438 96.4193C19.7505 96.4193 19.6565 96.4206 19.5632 96.4206M19.9743 78.8603C19.8823 78.8603 19.7915 78.8603 19.6988 78.8616C15.1797 78.8988 10.9406 79.8419 7.76226 81.5181C4.60975 83.1803 2.88373 85.3599 2.90265 87.6562C2.92157 89.9525 4.68354 92.1037 7.86253 93.7136C11.068 95.3368 15.3184 96.208 19.8413 96.172C24.3603 96.1348 28.6 95.1917 31.7784 93.5162C34.9309 91.8539 36.6569 89.6743 36.638 87.3774C36.5989 82.6523 29.1487 78.8603 19.9743 78.8603Z" fill="#FFE200"/>
<path d="M33.401 87.4038C33.4312 91.0804 27.3533 94.111 19.8255 94.1728C12.2977 94.2353 6.17052 91.3056 6.14025 87.629C6.10998 83.9525 12.188 80.9219 19.7157 80.8601C27.2435 80.7976 33.3707 83.7272 33.401 87.4038Z" fill="#FFC40D"/>
<path d="M19.2093 85.8135C19.2106 86.0665 19.4073 86.2595 20.0052 86.5383C22.0339 87.4518 22.6242 88.1583 22.6311 89.3734C22.6368 90.3745 22.0446 91.1347 20.9612 91.4217L20.9663 92.3156L18.9136 92.3257L18.9085 91.4123C17.9683 91.1353 17.4663 90.4767 17.209 89.9045L18.7086 88.9355C18.9558 89.42 19.3481 89.7291 19.9352 89.7266C20.5709 89.7235 20.7354 89.4995 20.7342 89.2466C20.7329 89.0131 20.5456 88.752 19.9377 88.4731C17.9285 87.5691 17.2992 86.8632 17.2922 85.6779C17.2872 84.7549 17.8598 83.9935 18.8644 83.6882L18.8593 82.8233L20.912 82.8132L20.9171 83.7172C21.759 84.0143 22.2124 84.6534 22.4798 85.2154L21.0873 86.1844C20.83 85.6804 20.4769 85.3908 19.9396 85.3933C19.3531 85.3965 19.2074 85.5618 19.2087 85.8147" fill="#FDDD00"/>
<path d="M17.3099 99.8694C17.2416 99.8694 17.1865 99.8145 17.1859 99.7464L17.1587 96.5139C17.1587 96.4458 17.2131 96.3897 17.2814 96.389H17.2827C17.3503 96.389 17.406 96.4439 17.4066 96.5114L17.4332 99.7439C17.4332 99.812 17.3788 99.8682 17.3105 99.8688H17.3092L17.3099 99.8694Z" fill="#FAD549"/>
<path d="M18.87 99.9773C18.8023 99.9773 18.7467 99.923 18.746 99.8549L18.7195 96.6224C18.7195 96.5543 18.7739 96.4988 18.8422 96.4982H18.8435C18.9111 96.4982 18.9668 96.5524 18.9674 96.6205L18.994 99.853C18.994 99.9211 18.9396 99.9773 18.8713 99.9773H18.87Z" fill="#FAD549"/>
<path d="M20.1854 99.971C20.1171 99.971 20.0621 99.9161 20.0615 99.8479L20.0349 96.6155C20.0349 96.5474 20.0893 96.4912 20.1576 96.4912H20.1589C20.2272 96.4912 20.2822 96.5455 20.2829 96.6136L20.3094 99.8467C20.3094 99.9148 20.255 99.9703 20.1867 99.971H20.1861H20.1854Z" fill="#FAD549"/>
<path d="M27.5492 98.9401C27.4815 98.9401 27.4259 98.8853 27.4252 98.8178L27.3987 95.5847C27.3987 95.5165 27.4531 95.461 27.5214 95.4604H27.5227C27.5903 95.4604 27.646 95.5146 27.6466 95.5828L27.6732 98.8159C27.6732 98.884 27.6188 98.9401 27.5505 98.9401H27.5492Z" fill="#FAD549"/>
<path d="M29.6845 98.2733C29.6168 98.2733 29.5611 98.2184 29.5605 98.1509L29.5339 94.9179C29.5339 94.8497 29.5883 94.7942 29.6566 94.7936H29.6573C29.7256 94.7936 29.7806 94.8485 29.7812 94.916L29.8078 98.1491C29.8078 98.2172 29.7534 98.2727 29.6851 98.2733H29.6838H29.6845Z" fill="#FAD549"/>
<path d="M30.9737 97.7074C30.906 97.7074 30.8503 97.6532 30.8497 97.5851L30.8225 94.3526C30.8225 94.2845 30.8769 94.229 30.9452 94.2283H30.9465C31.0148 94.2283 31.0698 94.2826 31.0705 94.3507L31.0977 97.5832C31.0977 97.6513 31.0433 97.7074 30.9749 97.7074H30.9737Z" fill="#FAD549"/>
<path d="M34.1979 95.7531C34.1296 95.7531 34.0746 95.6983 34.0739 95.6301L34.0474 92.3977C34.0474 92.3295 34.1018 92.2734 34.1701 92.2734H34.1713C34.239 92.2734 34.2947 92.3283 34.2953 92.3958L34.3219 95.6282C34.3219 95.6964 34.2675 95.7519 34.1992 95.7525H34.1985L34.1979 95.7531Z" fill="#FAD549"/>
<path d="M19.7153 81.3275C27.0999 81.2663 33.1362 84.0849 33.3916 87.6625C33.398 87.5767 33.4017 87.4903 33.4005 87.4038C33.3702 83.7272 27.243 80.7976 19.7153 80.8601C12.1875 80.9225 6.10949 83.9531 6.13976 87.629C6.14039 87.6991 6.14418 87.7685 6.14859 87.8379C6.39769 84.2792 12.3647 81.3881 19.7153 81.3275Z" fill="#FBAE17"/>
<path d="M2.87622 83.8244L2.90082 86.8134L2.90397 87.1868C2.9437 92.0355 10.5837 95.9026 19.9681 95.825C29.1891 95.7487 36.6576 91.8911 36.8771 87.1572L36.8872 86.9061L36.8563 83.1702" fill="#FBAE17"/>
<path d="M36.8563 83.1702C36.8966 88.0189 29.3215 92.0122 19.9372 92.0891C10.5535 92.1667 2.91342 88.299 2.87369 83.4509C2.83396 78.6029 10.4084 74.609 19.7928 74.532C29.1771 74.4544 36.8165 78.3222 36.8569 83.1702" fill="#FFE200"/>
<path d="M19.6579 92.2141C15.2044 92.2141 11.0196 91.3347 7.84562 89.7279C4.57961 88.0744 2.76971 85.8457 2.75016 83.4522C2.73061 81.0588 4.5033 78.8004 7.74157 77.0933C10.954 75.3995 15.2334 74.4463 19.7916 74.4084C29.2194 74.3333 36.9396 78.261 36.9799 83.1696C36.9995 85.563 35.2268 87.8215 31.9885 89.5286C28.7761 91.2224 24.4967 92.1756 19.9385 92.2134C19.8452 92.2141 19.7512 92.2147 19.6579 92.2147M20.0691 74.6544C19.977 74.6544 19.8862 74.6544 19.7935 74.6557C15.2744 74.6929 11.0353 75.636 7.85697 77.3122C4.70447 78.9745 2.97845 81.1541 2.99737 83.4503C3.01628 85.7466 4.77825 87.8978 7.95724 89.5077C11.1627 91.1309 15.4131 92.0021 19.936 91.9661C24.4551 91.9289 28.6948 90.9858 31.8731 89.3096C35.0256 87.648 36.7516 85.4678 36.7327 83.1715C36.6936 78.4465 29.2428 74.6544 20.0691 74.6544Z" fill="#FFE200"/>
<path d="M33.495 83.198C33.5252 86.874 27.4473 89.9046 19.9195 89.967C12.3917 90.0288 6.26451 87.0992 6.23424 83.4232C6.20397 79.7467 12.282 76.7161 19.8097 76.6542C27.3375 76.5918 33.4647 79.5221 33.495 83.198Z" fill="#FFC40D"/>
<path d="M17.4043 95.6635C17.3367 95.6635 17.281 95.6093 17.2804 95.5411L17.2532 92.3087C17.2532 92.2405 17.3076 92.1844 17.3759 92.1844H17.3765C17.4448 92.1844 17.4999 92.2393 17.5005 92.3068L17.5277 95.5392C17.5277 95.6074 17.4733 95.6635 17.405 95.6635H17.4037H17.4043Z" fill="#FAD549"/>
<path d="M18.9645 95.7714C18.8968 95.7714 18.8412 95.7165 18.8405 95.649L18.814 92.4166C18.814 92.3484 18.8684 92.2923 18.9367 92.2923H18.9379C19.0056 92.2923 19.0613 92.3466 19.0619 92.4147L19.0885 95.6471C19.0885 95.7153 19.0341 95.7708 18.9658 95.7714H18.9651H18.9645Z" fill="#FAD549"/>
<path d="M20.2802 95.7651C20.2119 95.7651 20.1568 95.7108 20.1562 95.6427L20.1296 92.4096C20.1296 92.3415 20.184 92.2853 20.2523 92.2853H20.2536C20.3213 92.2853 20.377 92.3402 20.3776 92.4077L20.4041 95.6408C20.4041 95.7089 20.3498 95.7651 20.2814 95.7651H20.2802Z" fill="#FAD549"/>
<path d="M27.6438 94.7343C27.5762 94.7343 27.5205 94.6794 27.5199 94.6119L27.4927 91.3788C27.4927 91.3107 27.5471 91.2545 27.6154 91.2545H27.6166C27.685 91.2545 27.74 91.3088 27.7406 91.3769L27.7672 94.61C27.7672 94.6781 27.7128 94.7336 27.6445 94.7343H27.6432H27.6438Z" fill="#FAD549"/>
<path d="M29.7792 94.0675C29.7109 94.0675 29.6559 94.0126 29.6552 93.9451L29.6287 90.712C29.6287 90.6439 29.6831 90.5883 29.752 90.5877H29.7533C29.8216 90.5877 29.8766 90.642 29.8772 90.7101L29.9038 93.9432C29.9038 94.0113 29.8494 94.0668 29.7811 94.0675H29.7798H29.7792Z" fill="#FAD549"/>
<path d="M31.0683 93.5016C31 93.5016 30.9449 93.4468 30.9443 93.3793L30.9177 90.1468C30.9177 90.0787 30.9721 90.0232 31.0404 90.0225H31.0411C31.1094 90.0225 31.1644 90.0774 31.165 90.1449L31.1922 93.3774C31.1922 93.4461 31.1378 93.5016 31.0695 93.5016H31.0683Z" fill="#FAD549"/>
<path d="M34.2919 91.5472C34.2242 91.5472 34.1686 91.4924 34.1679 91.4249L34.1414 88.1924C34.1414 88.1243 34.1958 88.0687 34.2641 88.0681H34.2653C34.333 88.0681 34.3887 88.123 34.3893 88.1911L34.4159 91.4236C34.4159 91.4917 34.3615 91.5472 34.2932 91.5479H34.2919V91.5472Z" fill="#FAD549"/>
<path d="M19.8097 77.1217C27.1944 77.0605 33.2307 79.8791 33.4861 83.4567C33.4924 83.3709 33.4962 83.2851 33.495 83.198C33.4647 79.5214 27.3375 76.5924 19.8097 76.6542C12.282 76.7167 6.20397 79.7473 6.23424 83.4232C6.23424 83.4932 6.23803 83.5626 6.24307 83.632C6.49217 80.0734 12.4592 77.1822 19.8097 77.1217Z" fill="#FBAE17"/>
<path d="M18.9426 84.4458V87.2871H17.0337V79.223H20.6478C21.3434 79.223 21.9551 79.3341 22.4836 79.5555C23.012 79.7769 23.4182 80.0917 23.7019 80.4999C23.9857 80.908 24.1282 81.3723 24.1282 81.8928C24.1282 82.6832 23.8173 83.3059 23.1962 83.762C22.575 84.2181 21.7148 84.4458 20.6163 84.4458H18.9426ZM18.9426 83.0996H20.6478C21.1523 83.0996 21.5376 82.9961 21.8025 82.7892C22.0674 82.5823 22.1998 82.2871 22.1998 81.9029C22.1998 81.5187 22.0661 81.1887 21.7987 80.9446C21.5313 80.7011 21.1624 80.5756 20.6913 80.568H18.9413V83.099L18.9426 83.0996Z" fill="#FFE200"/>
<path d="M177.08 56.2527C184.464 56.1915 190.501 59.0101 190.756 62.5876C190.762 62.5019 190.766 62.4154 190.765 62.329C190.735 58.6524 184.608 55.7228 177.08 55.7852C169.552 55.8477 163.474 58.8783 163.504 62.5542C163.505 62.6242 163.509 62.6936 163.513 62.763C163.762 59.2044 169.729 56.3132 177.08 56.2527Z" fill="#FBAE17"/>
<path d="M190.765 57.3554C190.795 61.032 184.717 64.0626 177.189 64.1244C169.662 64.1869 163.535 61.2572 163.504 57.5806C163.474 53.9041 169.552 50.8735 177.08 50.8116C184.608 50.7492 190.735 53.6795 190.765 57.3554Z" fill="#FFC40D"/>
<path d="M176.574 55.765C176.575 56.0174 176.772 56.211 177.37 56.4899C179.399 57.4033 179.989 58.1099 179.996 59.3249C180.002 60.3254 179.409 61.0862 178.326 61.3733L178.331 62.2672L176.278 62.2773L176.273 61.3638C175.333 61.0868 174.831 60.4282 174.574 59.8561L176.073 58.8871C176.321 59.3716 176.713 59.6807 177.3 59.6782C177.936 59.675 178.1 59.4511 178.099 59.1981C178.098 58.9647 177.91 58.7035 177.302 58.4247C175.293 57.5207 174.664 56.8148 174.657 55.6294C174.652 54.7065 175.225 53.9457 176.229 53.6397L176.224 52.7748L178.277 52.7647L178.282 53.6687C179.124 53.9658 179.577 54.6049 179.845 55.167L178.452 56.136C178.195 55.6319 177.842 55.3417 177.304 55.3449C176.717 55.348 176.572 55.5133 176.573 55.7663" fill="#FDDD00"/>
<path d="M177.08 51.2791C184.464 51.2179 190.501 54.0365 190.756 57.6141C190.762 57.5283 190.766 57.4425 190.765 57.3554C190.735 53.6788 184.608 50.7492 177.08 50.8116C169.552 50.8741 163.474 53.9047 163.504 57.5806C163.505 57.6507 163.509 57.7201 163.513 57.7894C163.762 54.2308 169.729 51.3397 177.08 51.2791Z" fill="#FBAE17"/>
<path d="M160.241 53.776L160.265 56.7643L160.268 57.1378C160.308 61.9858 167.948 65.8536 177.332 65.776C186.553 65.6996 194.021 61.842 194.24 57.1081L194.25 56.8564L194.22 53.1205" fill="#FBAE17"/>
<path d="M194.22 53.1218C194.261 57.9705 186.686 61.9637 177.301 62.0413C167.917 62.1189 160.277 58.2512 160.238 53.4031C160.198 48.5544 167.772 44.5612 177.157 44.4836C186.541 44.406 194.181 48.2737 194.221 53.1218" fill="#FFE200"/>
<path d="M177.022 62.1656C172.568 62.1656 168.383 61.2856 165.21 59.6794C161.944 58.026 160.134 55.7972 160.115 53.4038C160.095 51.0103 161.868 48.7519 165.106 47.0448C168.318 45.351 172.598 44.3978 177.156 44.3599C186.584 44.2849 194.304 48.2125 194.344 53.1212C194.364 55.5146 192.591 57.773 189.353 59.4801C186.141 61.1739 181.861 62.1271 177.303 62.165C177.21 62.1656 177.116 62.1662 177.022 62.1662M177.434 44.606C177.341 44.606 177.251 44.606 177.158 44.6072C172.639 44.6445 168.4 45.5876 165.221 47.2637C162.069 48.926 160.343 51.1056 160.362 53.4019C160.381 55.6982 162.143 57.8494 165.322 59.4593C168.527 61.0818 172.778 61.9536 177.301 61.9177C181.82 61.8805 186.06 60.9373 189.238 59.2612C192.391 57.5995 194.117 55.4193 194.098 53.123C194.059 48.398 186.608 44.606 177.434 44.606Z" fill="#FFE200"/>
<path d="M190.859 53.1496C190.89 56.8255 184.812 59.8561 177.284 59.9185C169.756 59.981 163.629 57.0507 163.599 53.3748C163.568 49.6982 169.646 46.6676 177.174 46.6058C184.702 46.5433 190.829 49.473 190.859 53.1496Z" fill="#FFC40D"/>
<path d="M174.768 65.6151C174.701 65.6151 174.645 65.5609 174.644 65.4927L174.618 62.2603C174.618 62.1921 174.672 62.136 174.74 62.136H174.741C174.809 62.136 174.864 62.1909 174.865 62.2584L174.892 65.4908C174.892 65.559 174.838 65.6151 174.769 65.6151H174.768Z" fill="#FAD549"/>
<path d="M176.329 65.723C176.261 65.723 176.206 65.6681 176.205 65.6L176.179 62.3675C176.179 62.2994 176.233 62.2432 176.301 62.2432H176.303C176.37 62.2432 176.426 62.2975 176.427 62.3656L176.453 65.5987C176.453 65.6668 176.399 65.7223 176.33 65.723H176.329Z" fill="#FAD549"/>
<path d="M177.644 65.7166C177.576 65.7166 177.521 65.6624 177.52 65.5942L177.493 62.3612C177.493 62.293 177.548 62.2369 177.616 62.2369H177.617C177.685 62.2369 177.741 62.2918 177.741 62.3599L177.768 65.593C177.768 65.6611 177.714 65.7166 177.645 65.7173H177.644V65.7166Z" fill="#FAD549"/>
<path d="M185.008 64.6859C184.941 64.6859 184.885 64.631 184.884 64.5635L184.857 61.3304C184.857 61.2623 184.912 61.2061 184.98 61.2061H184.981C185.049 61.2061 185.104 61.2604 185.105 61.3291L185.132 64.5622C185.132 64.6304 185.077 64.6859 185.009 64.6865H185.008L185.008 64.6859Z" fill="#FAD549"/>
<path d="M187.144 64.0191C187.075 64.0191 187.02 63.9642 187.02 63.8967L186.993 60.6636C186.993 60.5955 187.048 60.5399 187.117 60.5393H187.117C187.185 60.5393 187.24 60.5936 187.241 60.6623L187.268 63.8954C187.268 63.9635 187.213 64.0191 187.145 64.0197H187.144L187.144 64.0191Z" fill="#FAD549"/>
<path d="M188.433 63.4531C188.364 63.4531 188.309 63.3983 188.309 63.3301L188.282 60.0977C188.282 60.0295 188.337 59.974 188.405 59.9734H188.406C188.474 59.9734 188.529 60.0283 188.53 60.0958L188.556 63.3282C188.556 63.3964 188.502 63.4525 188.433 63.4525H188.432L188.433 63.4531Z" fill="#FAD549"/>
<path d="M191.656 61.4988C191.589 61.4988 191.533 61.4439 191.532 61.3764L191.506 58.1439C191.506 58.0758 191.56 58.0203 191.629 58.0197H191.63C191.698 58.0197 191.753 58.0745 191.754 58.142L191.78 61.3745C191.78 61.4433 191.726 61.4988 191.658 61.4988H191.656Z" fill="#FAD549"/>
<path d="M177.174 47.0732C184.559 47.012 190.595 49.8307 190.851 53.4082C190.857 53.3224 190.861 53.236 190.859 53.1496C190.829 49.473 184.702 46.5433 177.174 46.6058C169.646 46.6676 163.568 49.6988 163.599 53.3748C163.599 53.4448 163.603 53.5142 163.608 53.5836C163.857 50.025 169.824 47.1338 177.174 47.0732Z" fill="#FBAE17"/>
<path d="M176.307 54.3973V57.2387H174.398V49.1746H178.012C178.707 49.1746 179.319 49.2856 179.848 49.507C180.376 49.7284 180.782 50.0432 181.066 50.4514C181.35 50.8596 181.492 51.3239 181.492 51.8443C181.492 52.6348 181.181 53.2574 180.56 53.7135C179.939 54.1696 179.079 54.398 177.98 54.398H176.307V54.3973ZM176.307 53.0511H178.012C178.516 53.0511 178.902 52.9477 179.167 52.7414C179.431 52.5345 179.564 52.2392 179.564 51.855C179.564 51.4708 179.43 51.1403 179.163 50.8968C178.895 50.6533 178.526 50.5277 178.055 50.5202H176.305V53.0511H176.307Z" fill="#FFE200"/>
<path d="M173.367 51.2885C180.707 50.4747 186.998 52.6625 187.618 56.1959C187.615 56.1094 187.61 56.0237 187.6 55.9379C187.195 52.284 180.801 49.994 173.319 50.8236C165.836 51.6531 160.099 55.2881 160.504 58.9419C160.511 59.0113 160.522 59.0801 160.534 59.1489C160.419 55.5833 166.06 52.0985 173.366 51.2885" fill="#FBAE17"/>
<path d="M187.093 50.9895C187.498 54.6434 181.76 58.2783 174.278 59.1079C166.796 59.9374 160.402 57.6481 159.997 53.9942C159.592 50.3404 165.329 46.7054 172.812 45.8759C180.294 45.0463 186.688 47.3356 187.093 50.9895Z" fill="#FFC40D"/>
<path d="M172.813 50.8545C172.841 51.1056 173.056 51.2784 173.679 51.4942C175.791 52.1963 176.45 52.8385 176.58 54.0466C176.688 55.0414 176.176 55.8584 175.128 56.2545L175.224 57.1434L173.183 57.3623L173.085 56.4545C172.121 56.2747 171.555 55.671 171.24 55.1279L172.633 54.0106C172.928 54.4674 173.351 54.7348 173.933 54.6724C174.565 54.6043 174.707 54.3645 174.679 54.1135C174.654 53.8813 174.441 53.6403 173.809 53.4252C171.718 52.7313 171.02 52.0928 170.892 50.9138C170.793 49.9959 171.285 49.1809 172.253 48.774L172.16 47.9141L174.201 47.6946L174.298 48.5935C175.166 48.803 175.682 49.3928 176.005 49.9246L174.719 51.0305C174.411 50.5548 174.031 50.3031 173.496 50.3605C172.912 50.423 172.784 50.6028 172.812 50.8545" fill="#FDDD00"/>
<path d="M172.859 46.3402C180.199 45.5264 186.491 47.7141 187.11 51.2475C187.108 51.1617 187.103 51.0753 187.093 50.9895C186.688 47.3356 180.295 45.0463 172.812 45.8759C165.33 46.7054 159.592 50.3404 159.997 53.9942C160.005 54.0636 160.016 54.1324 160.027 54.2011C159.913 50.6356 165.554 47.1508 172.859 46.3408" fill="#FBAE17"/>
<path d="M156.363 50.5422L156.692 53.5129L156.733 53.8838C157.267 58.7028 165.261 61.7713 174.588 60.7367C183.753 59.7204 190.79 55.1215 190.525 50.3895L190.51 50.1385L190.098 46.4253" fill="#FBAE17"/>
<path d="M190.099 46.4253C190.633 51.2443 183.504 55.9896 174.178 57.0235C164.851 58.0581 156.856 54.9897 156.323 50.1706C155.788 45.3516 162.917 40.6064 172.244 39.5724C181.572 38.5384 189.565 41.6063 190.1 46.4253" fill="#FFE200"/>
<path d="M173.911 57.1762C169.481 57.6304 165.229 57.1819 161.907 55.9076C158.489 54.596 156.463 52.5634 156.199 50.1845C155.935 47.8056 157.469 45.3781 160.516 43.3493C163.54 41.3369 167.7 39.9515 172.23 39.4494C181.601 38.4135 189.681 41.5325 190.221 46.4114C190.485 48.7903 188.952 51.2178 185.904 53.2467C182.881 55.2591 178.721 56.6444 174.19 57.1465C174.097 57.1566 174.004 57.1667 173.911 57.1762M172.53 39.6658C172.439 39.6752 172.349 39.6847 172.257 39.6954C167.765 40.1932 163.644 41.564 160.653 43.5549C157.687 45.5301 156.191 47.8744 156.444 50.1568C156.697 52.4392 158.669 54.3998 161.996 55.6767C165.35 56.9642 169.667 57.3976 174.163 56.9005C178.655 56.4028 182.776 55.032 185.767 53.0404C188.734 51.0658 190.229 48.721 189.976 46.4385C189.456 41.7425 181.657 38.7296 172.531 39.6651" fill="#FFE200"/>
<path d="M186.758 46.7956C187.163 50.4495 181.425 54.0844 173.943 54.914C166.461 55.7436 160.067 53.4542 159.662 49.7997C159.257 46.1458 164.994 42.5109 172.477 41.6813C179.959 40.8518 186.353 43.1411 186.758 46.795" fill="#FFC40D"/>
<path d="M172.021 60.8376C171.953 60.8446 171.893 60.796 171.885 60.7285L171.529 57.5156C171.521 57.4481 171.57 57.3869 171.638 57.3793H171.639C171.706 57.3724 171.767 57.421 171.774 57.4885L172.13 60.7014C172.138 60.7695 172.089 60.8301 172.021 60.8376H172.02H172.021Z" fill="#FAD549"/>
<path d="M173.584 60.7859C173.517 60.7928 173.456 60.7443 173.449 60.6761L173.094 57.4632C173.086 57.3951 173.135 57.3339 173.203 57.327H173.204C173.271 57.32 173.332 57.3686 173.339 57.4361L173.695 60.6496C173.703 60.7171 173.654 60.7783 173.586 60.7859H173.585H173.584Z" fill="#FAD549"/>
<path d="M174.892 60.6452C174.825 60.6521 174.764 60.6036 174.756 60.5361L174.4 57.3225C174.393 57.2544 174.442 57.1938 174.509 57.1863H174.511C174.578 57.1793 174.639 57.2279 174.646 57.2954L175.002 60.5089C175.01 60.5764 174.961 60.6376 174.893 60.6452H174.892Z" fill="#FAD549"/>
<path d="M182.113 58.8694C182.045 58.8763 181.985 58.8278 181.977 58.7603L181.621 55.5467C181.613 55.4786 181.663 55.418 181.73 55.4104H181.731C181.799 55.4035 181.859 55.4521 181.867 55.5196L182.223 58.7331C182.231 58.8006 182.182 58.8618 182.114 58.8694H182.113Z" fill="#FAD549"/>
<path d="M184.169 57.9881C184.101 57.995 184.041 57.9465 184.033 57.879L183.677 54.6654C183.669 54.5973 183.718 54.5367 183.786 54.5292H183.787C183.854 54.5222 183.915 54.5708 183.922 54.6383L184.278 57.8518C184.285 57.9193 184.236 57.9805 184.169 57.9881H184.168H184.169Z" fill="#FAD549"/>
<path d="M185.393 57.2936C185.326 57.3005 185.265 57.2519 185.258 57.1844L184.901 53.9715C184.894 53.904 184.943 53.8428 185.011 53.8353H185.011C185.079 53.8283 185.139 53.8769 185.147 53.9444L185.503 57.1573C185.511 57.2254 185.461 57.2866 185.394 57.2936H185.393H185.393Z" fill="#FAD549"/>
<path d="M188.401 55.0206C188.334 55.0275 188.273 54.979 188.266 54.9115L187.91 51.6986C187.903 51.6304 187.951 51.5699 188.019 51.5623H188.021C188.088 51.5554 188.149 51.6039 188.156 51.6714L188.511 54.8843C188.519 54.9525 188.47 55.013 188.402 55.0206H188.401H188.401Z" fill="#FAD549"/>
<path d="M172.525 42.1469C179.865 41.3331 186.156 43.5209 186.776 47.0536C186.773 46.9678 186.768 46.8814 186.759 46.7956C186.354 43.1417 179.96 40.8524 172.477 41.6819C164.995 42.5115 159.258 46.1465 159.663 49.8003C159.67 49.8697 159.681 49.9385 159.693 50.0072C159.578 46.4417 165.219 42.9575 172.525 42.1469Z" fill="#FBAE17"/>
<path d="M172.409 49.5215L172.698 52.3477L170.799 52.5426L169.978 44.5201L173.573 44.1517C174.265 44.081 174.885 44.1284 175.432 44.2949C175.98 44.4614 176.417 44.7333 176.741 45.11C177.065 45.4872 177.254 45.9345 177.307 46.4524C177.388 47.2384 177.142 47.8901 176.57 48.4068C175.998 48.9241 175.166 49.2382 174.073 49.3505L172.409 49.5215ZM172.271 48.1822L173.968 48.0081C174.469 47.9563 174.842 47.8144 175.085 47.5816C175.328 47.3488 175.429 47.0416 175.39 46.6593C175.35 46.2663 175.185 45.9622 174.894 45.7471C174.603 45.532 174.224 45.4449 173.754 45.4853L172.014 45.6638L172.272 48.1816L172.271 48.1822Z" fill="#FFE200"/>
<path d="M63.2688 30.9828L91.367 39.1251L123.282 32.7365L122.845 34.4588L91.3985 40.8486L63.487 32.8943L63.2688 30.9828Z" fill="#EFF0F2"/>
</g>
<defs>
<clipPath id="clip0_433_5636">
<rect width="200" height="106" fill="white"/>
</clipPath>
</defs>
</svg>
