<svg width="160" height="134" viewBox="0 0 160 134" fill="none" xmlns="http://www.w3.org/2000/svg">
<g clip-path="url(#clip0_572_3468)">
<path d="M126.311 24.1107C129.038 23.4419 131.968 23.714 134.414 25.0857C136.569 26.2987 138.735 28.4639 139.869 32.3523C142.573 41.6822 139.487 44.6977 145.267 47.6792C151.058 50.6493 153.853 48.11 158.241 56.5896C162.629 65.0693 158.712 77.5393 147.557 76.3717C136.401 75.204 109.174 70.9189 109.174 70.9189L103.573 31.6268L116.39 26.5367L126.3 24.1107H126.311Z" fill="#9E1E62"/>
<path d="M37.1408 69.7383C37.1408 69.7383 36.192 62.1877 32.7676 58.4951C29.3431 54.8024 25.1401 52.2566 25.659 55.3278C26.1779 58.3989 28.3344 63.5361 28.3344 63.5361L21.7673 61.0545C21.7673 61.0545 17.5644 58.5088 14.4519 57.3276C11.3388 56.1539 10.1304 58.5749 10.1304 58.5749C10.1304 58.5749 7.01723 57.4012 5.54998 58.2791C4.08212 59.1645 4.88299 61.3859 4.88299 61.3859C4.88299 61.3859 0.302634 61.0901 1.71084 64.9818C3.11904 68.8735 11.6428 75.933 15.8458 78.4788C20.0487 81.0246 29.8104 83.2784 29.8104 83.2784C29.8104 83.2784 38.511 86.0979 37.1338 69.7377L37.1408 69.7383Z" fill="#FDC6A8"/>
<path d="M12.6742 69.2873C12.5134 69.2737 12.3601 69.1704 12.2969 68.9994C12.1979 68.7501 12.3061 68.4655 12.5404 68.3572L24.3719 62.8329C24.6062 62.7246 24.8714 62.8373 24.9704 63.0866C25.0693 63.336 24.9611 63.6206 24.7268 63.7288L12.8954 69.2532C12.8223 69.2847 12.7505 69.3012 12.6736 69.2947L12.6742 69.2873Z" fill="#333333"/>
<path d="M34.3264 75.0437C34.2914 75.0408 34.2494 75.0372 34.2157 75.0193C30.6231 73.6847 28.3859 71.8017 27.5573 69.4048C26.6502 66.7678 27.8215 64.5395 27.8715 64.4459C27.997 64.2079 28.2784 64.1262 28.4922 64.2647C28.7136 64.3963 28.7872 64.6963 28.6624 64.9267C28.6535 64.9486 27.6483 66.8746 28.4154 69.078C29.1487 71.1807 31.1975 72.8746 34.5173 74.1034C34.7564 74.1913 34.8808 74.4729 34.7967 74.7219C34.7228 74.934 34.5285 75.0683 34.3257 75.0512L34.3264 75.0437Z" fill="#333333"/>
<path d="M104.415 60.6966C104.415 60.6966 93.5191 62.2669 86.4709 75.1804C79.4227 88.0939 73.4927 123.694 74.5802 124.82C75.6575 125.946 99.1926 129.314 118.696 129.314C138.199 129.314 144.314 128.56 146.191 127.444C148.068 126.328 147.586 65.5418 136.783 60.6966C125.98 55.8618 116.008 56.8329 104.415 60.6966Z" fill="#534579"/>
<path d="M39.1131 66.3579L20.4307 85.253C20.4307 85.253 31.8494 108.012 57.2723 111.328C82.7054 114.644 97.4276 98.4041 97.4276 98.4041L101.706 61.2751C101.706 61.2751 74.2106 73.7238 64.3513 75.0048C54.4919 76.2858 39.1131 66.3579 39.1131 66.3579Z" fill="#534579"/>
<path d="M101.706 61.2647C101.706 61.2647 84.5933 88.2797 81.2077 105.77C77.8221 123.26 77.1655 139.118 77.1655 139.118L139.215 142L140.466 88.4553L133.9 60.2832L115.761 57.8038L101.696 61.275L101.706 61.2647Z" fill="#4CA9D0"/>
<path d="M99.4695 54.4604L99.5342 54.786L100.881 60.8714L101.916 65.6432C101.916 65.6432 101.722 66.8333 107.025 65.4411C114.139 63.5436 115.885 59.8834 115.885 59.8834L114.346 47.005L112.101 49.4079L99.4803 54.4716L99.4695 54.4604Z" fill="#FDC6A8"/>
<path d="M101.706 61.2649C101.706 61.2649 92.9754 93.7966 91.1287 105.16C89.282 116.524 88.9024 127.382 88.9024 127.382L77.4939 125.667L81.8542 98.993L97.428 64.8703L101.706 61.2649Z" fill="#534579"/>
<path d="M101.706 67.1119C101.429 67.1119 101.193 66.895 101.183 66.616C101.162 66.3268 101.388 66.0685 101.675 66.0478C101.747 66.0478 109.206 65.521 114.838 61.244C115.074 61.0684 115.402 61.1097 115.577 61.3473C115.751 61.5849 115.71 61.9155 115.474 62.0912C109.585 66.5747 102.065 67.0913 101.747 67.1119C101.737 67.1119 101.727 67.1119 101.716 67.1119H101.706Z" fill="#9E1E62"/>
<path d="M115.782 57.8039C115.782 57.8039 99.8185 128.343 102.886 128.704C105.954 129.066 130.217 130.254 130.217 130.254L127.396 57.9692L115.782 57.7936V57.8039Z" fill="#534579"/>
<path d="M65.1007 87.288C64.8236 87.288 64.4953 87.2054 64.0952 86.9884C59.8376 84.5917 63.6951 75.201 63.8695 74.7981C63.9516 74.5915 64.1568 74.4468 64.3928 74.4778C64.6185 74.4881 64.8134 74.6431 64.8749 74.8601C65.5828 77.3395 67.7373 85.5524 65.8804 87.0297C65.706 87.1744 65.4495 87.2983 65.1109 87.2983L65.1007 87.288ZM64.2799 76.7403C63.2745 79.7775 62.2383 84.7156 64.6185 86.0483C64.7518 86.1206 65.0801 86.2859 65.2135 86.1826C66.0035 85.5524 65.3777 81.0689 64.2799 76.7403Z" fill="#3E7F9C"/>
<path d="M76.5806 110.677C76.5806 110.677 76.519 110.677 76.4883 110.677C76.201 110.625 76.0163 110.346 76.0676 110.057L77.9143 99.9845C77.9656 99.6953 78.2426 99.5093 78.5299 99.561C78.8171 99.6126 79.0018 99.8916 78.9505 100.181L77.1038 110.253C77.0525 110.512 76.8371 110.687 76.5806 110.687V110.677Z" fill="#3E7F9C"/>
<path d="M92.4152 35.5732C92.4152 35.5732 86.1323 27.63 86.1323 23.9173C86.1323 14.7478 98.2436 7.05221 111.537 9.89868C124.829 12.7452 129.226 28.2038 127.999 35.2919C124.092 47.5217 108.583 49.1192 108.583 49.1192C108.583 49.1192 83.8714 47.3416 92.4038 35.5732H92.4152Z" fill="#9E1E62"/>
<path d="M99.4695 54.9073L100.789 60.9517C104.135 59.8476 110.098 57.0708 111.628 50.8814C111.745 50.3796 111.797 49.9446 111.776 49.5878L99.4695 54.8181V54.9184V54.9073Z" fill="#333333"/>
<path d="M90.9724 25.6868C90.9724 25.6868 86.9257 42.7775 91.0961 51.2116C95.2665 59.6456 103.18 56.7527 107.767 54.149C112.353 51.5454 114.062 48.1517 114.062 48.1517C114.062 48.1517 118.918 48.8527 121.2 44.0905C123.482 39.3282 120.694 34.833 117.883 34.1988C115.062 33.5646 112.308 36.0013 112.308 36.0013L113.882 30.9609C113.882 30.9609 99.3021 9.45293 90.9837 25.698L90.9724 25.6868Z" fill="#FDC6A8"/>
<path d="M94.6368 46.4886C94.426 46.4886 94.2152 46.3581 94.0981 46.1362C92.3065 42.3766 94.1332 37.7815 94.2152 37.5857C94.3557 37.2463 94.707 37.1027 95.0115 37.2463C95.3159 37.4029 95.4447 37.7946 95.3159 38.134C95.3042 38.1731 93.6531 42.3244 95.1637 45.4965C95.3159 45.8229 95.2105 46.2276 94.9178 46.4103C94.8241 46.4625 94.7304 46.4886 94.6368 46.4886Z" fill="#333333"/>
<path d="M114.351 43.3894C114.261 43.3894 114.161 43.3523 114.071 43.2905C113.832 43.105 113.762 42.7094 113.911 42.4126L116.989 36.4531C117.138 36.1564 117.458 36.0698 117.698 36.2553C117.938 36.4407 118.008 36.8364 117.858 37.1331L114.781 43.0927C114.681 43.2781 114.521 43.3894 114.341 43.3894H114.351Z" fill="#333333"/>
<path d="M115.43 41.5643C115.127 41.5762 114.88 41.3532 114.847 41.0582C114.825 40.7629 115.053 40.5 115.366 40.4665L118.336 40.2333C118.661 40.2206 118.908 40.4436 118.941 40.7386C118.963 41.0339 118.735 41.2968 118.422 41.3303L115.452 41.5635L115.43 41.5643Z" fill="#333333"/>
<path d="M100.887 49.5878C99.2255 49.5878 97.8013 48.7631 97.709 48.7074C97.5111 48.596 97.4056 48.4065 97.4188 48.2059C97.4188 48.0053 97.5639 47.827 97.7617 47.7379L104.619 44.495C104.844 44.3947 105.107 44.3947 105.318 44.5173C105.529 44.6287 105.648 44.8405 105.622 45.0522C105.622 45.1525 105.318 47.5373 103.116 48.9526C102.391 49.4206 101.613 49.5878 100.874 49.5878H100.887ZM99.5553 48.2171C100.347 48.4622 101.428 48.6071 102.311 48.0499C103.142 47.515 103.63 46.7795 103.907 46.1666L99.5553 48.2171Z" fill="#333333"/>
<path d="M103.971 32.0256C103.787 32.0256 103.603 31.948 103.468 31.8038C102.413 30.5838 100.366 31.3491 100.353 31.3491C100.035 31.4711 99.6666 31.338 99.5195 31.0496C99.3846 30.7613 99.5317 30.4286 99.8506 30.2955C99.9732 30.2511 102.806 29.1864 104.461 31.094C104.682 31.338 104.633 31.704 104.351 31.8925C104.24 31.9702 104.093 32.0145 103.958 32.0145L103.971 32.0256Z" fill="#333333"/>
<path d="M90.732 32.0164C90.627 32.0164 90.522 31.9792 90.4265 31.9143C90.2166 31.7565 90.1688 31.4502 90.3407 31.246C90.3788 31.1996 91.3142 30.0395 92.5359 29.9653C93.1563 29.9189 93.7004 30.1509 94.1967 30.6242C94.3876 30.8098 94.3876 31.1161 94.1967 31.3017C94.0058 31.4873 93.6908 31.4873 93.4999 31.3017C93.2136 31.0233 92.9272 30.9027 92.6027 30.9212C91.9537 30.9583 91.3142 31.5987 91.1138 31.84C91.0183 31.9607 90.8751 32.0256 90.7224 32.0256L90.732 32.0164Z" fill="#333333"/>
<path d="M92.6572 40.2903C92.2969 40.2903 92.0138 40.0063 91.9881 39.6577L91.8465 36.4433L90.4696 35.2685C90.1865 35.0361 90.1608 34.6101 90.3924 34.3261C90.6241 34.0421 91.0487 34.0163 91.3318 34.2486L92.9274 35.6041C93.069 35.7203 93.1591 35.9011 93.1591 36.0818L93.3135 39.5803C93.3264 39.9417 93.0433 40.2516 92.683 40.2774H92.6572V40.2903Z" fill="#333333"/>
<path d="M102.004 38.2134C101.722 38.2134 101.482 37.9929 101.472 37.7094L101.315 35.1263L99.7087 34.0448C99.4583 33.8768 99.3957 33.5407 99.5626 33.2992C99.7295 33.0472 100.063 32.9842 100.303 33.1522L102.129 34.3808C102.264 34.4753 102.358 34.6328 102.369 34.8008L102.546 37.6464C102.567 37.9404 102.337 38.2029 102.045 38.2239C102.035 38.2239 102.024 38.2239 102.014 38.2239L102.004 38.2134Z" fill="#333333"/>
<path d="M118.63 19.0792C118.63 19.0792 114.134 -0.293783 128.04 0.00338411C142.77 0.32341 132.303 24.7939 122.916 24.7939C118.734 24.7939 118.63 19.0678 118.63 19.0678V19.0792Z" fill="#9E1E62"/>
<path d="M126.535 24.7939C126.237 24.7939 125.977 24.5846 125.914 24.2889C123.966 15.2359 117.399 12.6247 117.325 12.6C116.99 12.4769 116.828 12.1073 116.952 11.7748C117.076 11.4422 117.449 11.2821 117.772 11.4053C118.07 11.5161 125.058 14.2628 127.156 24.018C127.23 24.3628 127.007 24.6954 126.659 24.7693C126.61 24.7693 126.572 24.7816 126.523 24.7816L126.535 24.7939Z" fill="#E0B7DF"/>
<path d="M97.9665 17.5623C97.9665 17.5623 96.2011 20.3979 96.4088 24.6458L96.605 28.8936L114.859 32.0254L114.259 23.5411L97.9781 17.5623H97.9665Z" fill="#9E1E62"/>
<path d="M98.0377 20.3014C98.0377 20.3014 96.5583 21.7628 96.0203 23.5786C95.4946 25.3944 95.14 28.9263 95.14 28.9263H89.6501L89.21 20.2903L96.0203 15.4962H100.495V21.0875L98.0377 20.2903V20.3014Z" fill="#9E1E62"/>
</g>
<path d="M104.739 92.3289C104.739 92.3289 100.615 70.6032 98.4912 68.2478C96.3675 65.8924 82.3941 59.6836 80.6192 61.3881C78.8444 63.0927 80.65 65.2415 80.65 65.2415C80.65 65.2415 77.9928 63.7126 76.9977 65.3138C76.0025 66.9151 77.9313 69.4048 77.9313 69.4048C77.9313 69.4048 75.8076 68.0618 76.0948 71.0371C76.3718 74.0124 82.1787 79.4671 82.1787 79.4671C82.1787 79.4671 82.5172 85.5519 86.2311 92.0913C89.9451 98.6307 101.251 98.92 101.251 98.92L104.739 92.3186V92.3289Z" fill="#FDC6A8"/>
<path d="M91.7606 71.2644C91.6785 71.2644 91.5964 71.2437 91.5143 71.2024L80.4342 65.3862C80.1777 65.2519 80.0751 64.9316 80.2084 64.663C80.3418 64.4047 80.6599 64.3014 80.9266 64.4357L92.0068 70.252C92.2633 70.3863 92.3659 70.7065 92.2325 70.9751C92.1402 71.1611 91.9555 71.2644 91.7606 71.2644Z" fill="#333333"/>
<path d="M88.7651 76.7809C88.6728 76.7809 88.5702 76.75 88.4881 76.6983L77.6542 69.8696C77.408 69.7147 77.3361 69.3841 77.49 69.1361C77.6439 68.8882 77.9722 68.8159 78.2185 68.9709L89.0524 75.7995C89.2986 75.9545 89.3704 76.2851 89.2166 76.533C89.114 76.6983 88.9396 76.7809 88.7651 76.7809Z" fill="#333333"/>
<path d="M84.7268 98.866C84.7268 98.866 106.684 135.299 131.686 133.393C156.688 131.486 157.472 84.6871 146.663 69.2165C137.727 56.4269 127.385 57.8527 127.385 57.8527L115.772 90.7253L106.272 82.5743L84.7268 98.8763V98.866Z" fill="#534579"/>
<path d="M133.736 107.906C133.602 107.906 133.479 107.854 133.377 107.761L110.375 86.1695C110.16 85.9732 110.149 85.6323 110.344 85.4154C110.539 85.1984 110.878 85.1881 111.093 85.3844L134.095 106.976C134.31 107.172 134.32 107.513 134.126 107.73C134.023 107.844 133.879 107.895 133.736 107.895V107.906Z" fill="#3E7F9C"/>
<path d="M134.29 100.653C130.094 100.653 124.923 99.176 124.051 98.9177C123.815 98.8454 123.661 98.6285 123.671 98.3908C123.671 98.1532 123.846 97.9466 124.082 97.8846C126.349 97.3681 137.768 94.8784 139.481 97.0685C139.717 97.3681 139.922 97.8846 139.553 98.6388C138.814 100.157 136.711 100.653 134.29 100.653ZM126.472 98.4632C131.284 99.6305 137.552 100.343 138.609 98.1739C138.763 97.864 138.691 97.771 138.66 97.7297C137.88 96.7379 132.197 97.2958 126.472 98.4632Z" fill="#3E7F9C"/>
<defs>
<clipPath id="clip0_572_3468">
<rect width="160" height="125" fill="white"/>
</clipPath>
</defs>
</svg>
