<svg width="217" height="87" viewBox="0 0 217 87" fill="none" xmlns="http://www.w3.org/2000/svg">
<g clip-path="url(#clip0_611_4148)">
<path d="M29.8129 26.417C29.8129 30.2935 28.6781 33.5058 26.4161 36.0541C24.0774 38.695 21.0179 40.0155 17.2222 40.0155C15.8344 40.0155 14.3545 39.668 12.7749 38.9807C11.1953 38.2935 10.4745 37.946 10.6202 37.946C10.3902 37.946 10.2675 38.2162 10.2675 38.7568C10.2675 39.6834 10.3135 41.0657 10.4055 42.9267C10.4975 44.7799 10.5435 46.1699 10.5435 47.0965C10.5435 47.6757 10.2445 47.9614 9.65403 47.9614L4.15615 47.9923C2.91395 47.9923 2.11649 47.946 1.75609 47.8533C1.21934 47.7297 0.950964 47.39 0.950964 46.8494L1.00464 25.946C1.00464 21.7297 0.690256 18.1699 0.0614878 15.2741C0.0231483 15.0965 0.0078125 14.9421 0.0078125 14.8108C0.0078125 14.5406 0.115163 14.3552 0.329864 14.2703C1.02764 14 2.36953 13.7066 4.34784 13.4054C6.27249 13.0965 7.66038 12.9421 8.52685 12.9421C9.22463 12.9421 9.63103 13.4054 9.72304 14.3398C9.82273 15.2741 9.94541 15.7375 10.0834 15.7375C9.90707 15.7375 10.6739 15.2433 12.3915 14.2548C14.1091 13.2664 15.6657 12.7722 17.0689 12.7722C20.9719 12.7722 24.085 14.0695 26.4237 16.6564C28.6858 19.1506 29.8206 22.4016 29.8206 26.4016L29.8129 26.417ZM19.814 26.3629C19.814 24.9112 19.3769 23.6448 18.4951 22.5637C17.5443 21.4209 16.3634 20.8572 14.9602 20.8572C13.557 20.8572 12.3761 21.4286 11.5097 22.5637C10.7582 23.5985 10.3748 24.8649 10.3748 26.3629C10.3748 27.861 10.7735 29.1738 11.5633 30.1931C12.4068 31.2973 13.5723 31.8456 15.0676 31.8456C18.2267 31.8456 19.814 30.0155 19.814 26.3629Z" fill="#27AAE1"/>
<path d="M58.0154 24.7335C58.0154 26.5637 57.4326 27.5984 56.2594 27.8532C56.0601 27.8918 54.2044 28.0849 50.6772 28.4478C48.5532 28.6795 45.394 28.9652 41.192 29.2895C41.4451 30.4633 42.2042 31.359 43.4847 31.9768C44.5276 32.4864 45.7161 32.7335 47.0426 32.7335C48.6452 32.7335 50.2478 32.3011 51.8657 31.4285C52.5482 30.9961 53.2306 30.5637 53.9131 30.1235C54.2888 30.3011 54.9252 31.2278 55.8147 32.8957C56.7042 34.5637 57.1489 35.6216 57.1489 36.0695C57.1489 36.193 57.0109 36.4015 56.7425 36.6949C54.5495 39.0656 51.145 40.2548 46.5289 40.2548C42.2502 40.2548 38.7996 38.9961 36.1772 36.4787C33.4781 33.9305 32.1362 30.5173 32.1362 26.2471C32.1362 21.9768 33.3401 18.6718 35.7478 16.0154C38.2245 13.2664 41.5141 11.8918 45.6164 11.8918C49.067 11.8918 51.9961 13.1583 54.4038 15.6911C56.8115 18.2239 58.0154 21.2355 58.0154 24.7335ZM48.5839 23.081C48.5839 21.9613 48.1851 20.9729 47.3954 20.1235C46.6056 19.2741 45.6624 18.8494 44.5659 18.8494C43.4694 18.8494 42.4956 19.3281 41.7594 20.2857C41.077 21.1737 40.7319 22.2162 40.7319 23.4054C40.7319 23.8918 40.985 24.139 41.4834 24.139C42.8099 24.139 44.8803 23.9305 47.6867 23.5135C48.2772 23.4208 48.5762 23.2818 48.5762 23.081H48.5839Z" fill="#27AAE1"/>
<path d="M85.6736 24.7335C85.6736 26.5637 85.0908 27.5984 83.9176 27.8532C83.7183 27.8918 81.8627 28.0849 78.3354 28.4478C76.2114 28.6795 73.0522 28.9652 68.8502 29.2895C69.1033 30.4633 69.8624 31.359 71.1429 31.9768C72.1858 32.4864 73.3743 32.7335 74.7008 32.7335C76.3034 32.7335 77.906 32.3011 79.5239 31.4285C80.2064 30.9961 80.8888 30.5637 81.5713 30.1235C81.947 30.3011 82.5834 31.2278 83.4729 32.8957C84.3624 34.5637 84.8071 35.6216 84.8071 36.0695C84.8071 36.193 84.6691 36.4015 84.4007 36.6949C82.2077 39.0656 78.8032 40.2548 74.1871 40.2548C69.9084 40.2548 66.4578 38.9961 63.8354 36.4787C61.1363 33.9305 59.7944 30.5173 59.7944 26.2471C59.7944 21.9768 60.9983 18.6718 63.406 16.0154C65.8827 13.2664 69.1723 11.8918 73.2746 11.8918C76.7252 11.8918 79.6543 13.1583 82.062 15.6911C84.4697 18.2239 85.6736 21.2355 85.6736 24.7335ZM76.2421 23.081C76.2421 21.9613 75.8433 20.9729 75.0536 20.1235C74.2638 19.2741 73.3206 18.8494 72.2241 18.8494C71.1276 18.8494 70.1538 19.3281 69.4176 20.2857C68.7352 21.1737 68.3901 22.2162 68.3901 23.4054C68.3901 23.8918 68.6432 24.139 69.1416 24.139C70.4681 24.139 72.5385 23.9305 75.3449 23.5135C75.9354 23.4208 76.2344 23.2818 76.2344 23.081H76.2421Z" fill="#27AAE1"/>
<path d="M106.507 22.556C106.507 23.2587 106.124 23.614 105.349 23.614C105.004 23.614 104.506 23.5908 103.854 23.5445C103.195 23.4981 102.712 23.475 102.382 23.475C100.887 23.475 99.8745 23.7066 99.3378 24.1777C98.801 24.6487 98.5327 25.5985 98.5327 27.0271C98.5327 27.807 98.548 28.9885 98.571 30.5715C98.6017 32.1545 98.6093 33.336 98.6093 34.1159C98.6093 34.641 98.6477 35.4209 98.7167 36.4634C98.7857 37.5059 98.824 38.2781 98.824 38.7877C98.824 39.2201 98.525 39.4672 97.9346 39.5213C97.0758 39.5908 95.7492 39.6294 93.9703 39.6294C92.1913 39.6294 90.8954 39.5753 89.8756 39.4672C89.2852 39.3977 88.9861 39.0966 88.9861 38.5715C88.9861 37.1198 88.9938 34.9576 89.0168 32.0696C89.0321 29.1815 89.0475 27.0194 89.0475 25.5676C89.0475 21.3128 88.6641 17.8147 87.8896 15.058C87.8513 14.8958 87.8359 14.7568 87.8359 14.6487C87.8359 14.3784 87.974 14.1931 88.2423 14.1082C89.2315 14.0001 90.6807 13.7993 92.5824 13.5136C95.4195 12.9499 96.8841 12.6719 96.9761 12.6719C97.2981 12.6719 97.5052 13.2433 97.5972 14.3784C97.6892 15.5213 97.8502 16.085 98.0803 16.085C97.8272 16.085 98.5633 15.6062 100.289 14.6564C102.014 13.7066 103.678 13.2279 105.273 13.2279C106.277 13.2279 106.783 13.4441 106.783 13.8765C106.783 14.4016 106.73 15.1429 106.622 16.1004C106.515 17.1352 106.454 17.8765 106.431 18.3244C106.431 18.8495 106.438 19.5445 106.461 20.417C106.5 21.4827 106.515 22.1931 106.515 22.5329L106.507 22.556Z" fill="#27AAE1"/>
<path d="M111.146 0H118.53V39.4749H111.146V0ZM120.8 38.6178C119.612 37.7761 118.73 36.5869 118.155 35.0502L118.53 28.6178C118.53 29.5444 118.691 30.3243 119.014 30.9807C119.336 31.6293 119.811 32.1313 120.432 32.471C121.053 32.8185 121.805 32.9884 122.686 32.9884C124.067 32.9884 125.14 32.5251 125.907 31.6062C126.674 30.6795 127.049 29.3822 127.049 27.6988V23.2201C127.049 21.4981 126.666 20.1622 125.907 19.2124C125.14 18.2625 124.067 17.7838 122.686 17.7838C121.805 17.7838 121.053 17.9614 120.432 18.3166C119.811 18.6718 119.343 19.1815 119.014 19.8533C118.691 20.5251 118.53 21.3359 118.53 22.2934L117.963 16.0463C118.714 14.4015 119.711 13.1274 120.938 12.2317C122.165 11.3359 123.53 10.888 125.025 10.888C127.003 10.888 128.698 11.3668 130.109 12.3243C131.52 13.2819 132.593 14.6873 133.329 16.5328C134.066 18.3784 134.434 20.5946 134.434 23.1815V27.6911C134.434 30.2625 134.066 32.4556 133.329 34.278C132.593 36.1004 131.52 37.4826 130.109 38.4479C128.698 39.4054 127.003 39.8842 125.025 39.8842C123.392 39.8842 121.981 39.4672 120.792 38.6255L120.8 38.6178Z" fill="#9E1E62"/>
<path d="M139.755 37.7219C138.275 36.2856 137.531 34.1003 137.531 31.1659C137.531 28.2316 138.36 26.2856 140.024 24.8957C141.687 23.5057 144.18 22.803 147.507 22.803H154.516L154.892 28.4787H147.53C146.419 28.4787 145.583 28.7026 145.023 29.1428C144.463 29.5829 144.187 30.2625 144.187 31.1659C144.187 32.0694 144.54 32.7721 145.238 33.2123C145.936 33.6524 147.001 33.8764 148.42 33.8764C150.398 33.8764 151.863 33.6524 152.829 33.1968C153.787 32.7412 154.271 32.0385 154.271 31.081L154.838 35.1814C154.731 36.193 154.271 37.0578 153.45 37.7605C152.63 38.4632 151.61 38.996 150.375 39.3513C149.141 39.7065 147.845 39.8841 146.48 39.8841C143.482 39.8841 141.235 39.1659 139.755 37.7296V37.7219ZM154.271 21.6061C154.271 20.3011 153.841 19.2972 152.975 18.5945C152.116 17.8918 150.889 17.5366 149.309 17.5366C148.267 17.5366 147.231 17.7065 146.212 18.054C145.184 18.4015 144.279 18.8802 143.489 19.4903L138.904 14.9574C140.016 13.6756 141.496 12.6717 143.328 11.9613C145.161 11.2432 147.193 10.8879 149.424 10.8879C151.87 10.8879 153.956 11.2972 155.681 12.1235C157.407 12.9497 158.726 14.1389 159.63 15.7065C160.535 17.274 160.995 19.1582 160.995 21.3667V39.4748H154.286V21.6061H154.271Z" fill="#9E1E62"/>
<path d="M165.957 11.2895H173.341V39.4749H165.957V11.2895ZM182.128 22.3938C182.128 21.0193 181.737 19.9536 180.955 19.1892C180.173 18.4324 179.061 18.0463 177.627 18.0463C176.193 18.0463 175.204 18.4324 174.46 19.1969C173.716 19.9691 173.341 21.0502 173.341 22.4401L172.773 16.193C173.617 14.417 174.629 13.0888 175.81 12.2007C176.991 11.3127 178.463 10.8726 180.242 10.8726C183.186 10.8726 185.471 11.8764 187.089 13.8687C188.707 15.8687 189.512 18.695 189.512 22.3552V39.4594H182.128V22.3938Z" fill="#9E1E62"/>
<path d="M198.016 38.4402C196.605 37.4826 195.531 36.0927 194.795 34.2703C194.059 32.4479 193.691 30.2548 193.691 27.6834V23.1737C193.691 20.5869 194.059 18.3707 194.795 16.5251C195.531 14.6795 196.605 13.2741 198.016 12.3166C199.427 11.3591 201.121 10.8803 203.1 10.8803C204.595 10.8803 205.952 11.3282 207.187 12.2239C208.421 13.1197 209.41 14.3938 210.162 16.0386L209.594 22.2857C209.594 21.3282 209.433 20.5097 209.111 19.8456C208.789 19.1737 208.314 18.6641 207.693 18.3089C207.072 17.9537 206.32 17.7761 205.438 17.7761C204.058 17.7761 202.977 18.2548 202.218 19.2046C201.451 20.1544 201.075 21.4903 201.075 23.2124V27.6911C201.075 29.3745 201.459 30.6795 202.218 31.5985C202.977 32.5174 204.058 32.9807 205.438 32.9807C206.32 32.9807 207.072 32.8108 207.693 32.4633C208.314 32.1236 208.782 31.6216 209.111 30.973C209.433 30.3243 209.594 29.5367 209.594 28.61L209.97 35.0425C209.395 36.5792 208.513 37.7683 207.325 38.61C206.136 39.4517 204.725 39.8687 203.092 39.8687C201.114 39.8687 199.419 39.39 198.008 38.4324L198.016 38.4402ZM209.594 0H216.979V39.4749H209.594V0Z" fill="#9E1E62"/>
</g>
<path d="M21.2434 76.02C21.1434 76.08 20.9234 76.02 20.7034 76.12C20.4834 76.18 20.3234 76.34 20.2034 76.5C20.0434 76.74 20.0034 76.9 20.0034 77.16C20.0034 77.32 20.0034 77.44 20.0434 77.6C20.0434 77.68 20.1034 77.8 20.2034 77.88C20.2834 78.04 20.3634 78.08 20.4834 78.14C20.6034 78.24 20.7034 78.24 20.8034 78.3C20.9234 78.3 21.0234 78.36 21.1434 78.36C21.1834 78.36 21.2434 78.36 21.2434 78.36H28.5634C28.8034 78.36 29.0034 78.36 29.2834 78.36C29.5034 78.3 29.7034 78.2 29.9034 77.96C30.1034 77.68 30.2234 77.48 30.2234 77.16C30.2234 76.94 30.1434 76.78 30.1034 76.56C29.9834 76.4 29.9034 76.3 29.7034 76.18C29.5034 76.08 29.2834 76.02 29.0834 76.02C28.8434 76.02 28.6434 76.02 28.4234 76.02C28.1034 76.02 27.2234 76.02 27.0634 76.02C26.8834 76.02 26.7234 76.02 26.6434 76.02C26.5234 76.02 26.4034 76.02 26.2434 76.02C26.1434 76.02 25.9834 76.02 25.7434 76.02C25.7434 75.84 25.7434 75.68 25.7434 75.52C25.7434 75.36 25.7434 75.2 25.7434 75.04C25.7434 74.88 25.8234 74.66 25.7434 74.5C25.7434 74.28 25.7434 74.12 25.7034 73.96C25.7034 73.72 25.6634 73.64 25.5434 73.48C25.4834 73.3 25.3834 73.2 25.2234 73.08C25.0434 73.02 24.8834 72.98 24.6834 72.98C23.5834 73.02 23.4234 73.84 23.4234 74.78C23.3634 75.14 23.3634 75.64 23.3634 76.02C23.0434 76.02 22.4034 76.02 22.0634 76.02C21.7834 76.02 21.5034 76.02 21.2434 76.02ZM28.4234 74.94C30.0634 74.88 29.5434 72.98 29.6234 71.4C29.6234 70.64 29.6634 69.6 29.0834 69C28.5234 68.46 27.5834 68.34 26.8834 68.3H22.1634C21.4234 68.3 20.8634 68.46 20.4834 69.12C20.3234 69.32 20.3234 69.56 20.3634 69.82C20.6034 70.8 21.5834 70.9 22.4034 70.86C23.4234 70.8 24.4034 70.86 25.3834 70.9C25.7434 70.9 26.0234 70.9 26.3034 70.9C26.5634 70.9 26.6834 70.9 26.7234 70.96C26.8834 70.96 26.9634 71.08 27.0634 71.18C27.1234 71.28 27.1634 71.56 27.1634 71.68L27.1234 73.72C27.1634 74.06 27.2234 74.28 27.2834 74.44C27.4434 74.82 27.9434 74.98 28.4234 74.94ZM26.5634 81.88C26.5634 81.88 26.4034 81.88 26.0834 81.92C25.7434 81.92 25.4234 81.92 25.0034 81.92C24.5234 81.92 24.1834 81.92 23.9634 81.92C23.7434 81.88 23.6234 81.88 23.5834 81.88C23.5834 81.76 23.5434 81.68 23.5434 81.56C23.5434 81.46 23.5434 81.34 23.5434 81.22C23.4634 81.06 23.4634 80.9 23.4634 80.74C23.4634 80.64 23.4234 80.48 23.3634 80.32C23.3034 80.2 23.2634 80.04 23.1434 79.92C23.0434 79.8 22.9234 79.76 22.7634 79.72C22.6434 79.64 22.6034 79.64 22.4834 79.64C22.3234 79.64 22.2834 79.64 22.2234 79.64C21.9034 79.64 21.6834 79.72 21.5034 79.92C21.3034 80.08 21.1834 80.32 21.1834 80.58C21.1434 80.9 21.1434 81.18 21.1834 81.5V83.3C21.1834 83.62 21.3034 83.84 21.6234 84C21.9034 84.16 22.3234 84.28 22.8234 84.28H33.1634C33.1634 84.28 33.2434 84.24 33.4234 84.24C33.6234 84.16 33.7834 84.04 33.9034 83.84C34.1834 83.58 34.2234 83.18 34.1834 82.64C34.1434 82.54 34.0634 82.44 34.0234 82.32C33.9034 82.2 33.7834 82.16 33.6834 82.12C33.6234 82 33.5234 82 33.4234 81.92C33.3634 81.92 33.3234 81.88 33.3234 81.88H26.5634ZM31.4034 70.46C31.4034 72.38 31.4034 74.62 31.4634 76.5C31.5034 77.32 31.5634 78.36 32.6034 78.46C33.3634 78.52 33.9034 78.14 33.9434 77.38C33.9434 77.16 33.9434 75.26 33.9434 75.26C33.9434 75.26 34.8434 75.26 35.2034 75.14C35.5434 75.1 35.7434 74.94 35.8634 74.7C35.9834 74.54 36.0234 74.38 36.0234 74.22C36.0234 74.06 36.0234 73.8 35.9034 73.64C35.8634 73.48 35.7434 73.3 35.5834 73.2C35.4834 73.02 35.3234 72.98 35.0834 72.98C35.0034 72.98 34.8434 72.98 34.6634 72.92C34.4634 72.92 34.1834 72.92 33.9434 72.92C33.9434 72.58 33.9434 72.26 33.9034 71.94C33.9034 71.6 33.9034 71.12 33.9034 70.74C33.9034 70.46 33.9034 70.14 33.8634 69.88C33.8634 69.56 33.7834 69.28 33.6834 69C33.6234 68.78 33.5834 68.62 33.4234 68.52C32.8834 68.14 32.2634 68.14 31.8234 68.62C31.3034 69.16 31.4034 69.82 31.4034 70.46ZM40.9949 81.6C40.9949 82.36 41.0749 83.46 42.0549 83.46C42.9749 83.46 43.5149 82.82 43.5949 81.86C43.6349 81 43.5949 79.76 43.5949 79.7C43.6549 79.72 43.7349 79.72 43.7949 79.72L45.6749 79.76V82.12C45.6749 82.52 45.6949 83.76 46.2349 84.1C46.3749 84.2 46.5949 84.24 46.7549 84.24C47.3349 84.24 47.6349 83.94 47.7749 83.54C47.9749 82.92 47.9949 82.64 47.9949 81.98C47.9949 81.98 48.0349 80.08 48.0149 70.36C48.0149 70.26 48.0149 69.3 47.8149 68.96C47.5949 68.58 47.2549 68.36 46.8149 68.36C46.6949 68.36 46.5749 68.38 46.4549 68.42C46.1549 68.52 46.0349 68.66 45.8749 68.92C45.8149 69.04 45.7749 69.16 45.7349 69.28C45.6549 69.62 45.6749 70 45.6749 70.34V72.36H44.1549C43.9949 72.36 43.7949 72.36 43.5949 72.38C43.5949 71.96 43.5749 71.14 43.5549 70.72C43.5149 70.28 43.5349 70 43.2749 69.62C43.1549 69.44 42.9149 69.3 42.7149 69.22C42.3949 69.1 42.1149 69.04 41.7749 69.02C41.6349 69.02 41.4949 69 41.3549 69H38.6949C37.4949 69 36.0749 69.06 36.0749 70.24C36.0749 71.02 36.5349 71.54 37.4749 71.54C38.5149 71.54 39.1149 71.52 40.2749 71.54C40.7549 71.54 40.8549 71.62 40.9349 72.1C40.9949 72.54 40.9749 72.96 40.9749 73.4C40.9749 79.88 40.9949 80.4 40.9949 81.6ZM51.5349 70.76C51.5149 70.04 51.5549 68.3 50.4749 68.3C50.1149 68.3 49.7949 68.34 49.4949 68.6C49.1349 68.96 49.1349 69.96 49.1549 70.56V82.52C49.1549 83.2 49.2949 84.08 50.0949 84.26C50.4349 84.34 50.6149 84.3 50.8949 84.12C51.0749 84 51.1949 83.86 51.2749 83.68C51.5349 83.12 51.5349 82.48 51.5349 81.78V76.78C51.5349 74.9 51.5949 72.76 51.5349 70.76ZM45.6749 74.76V77.4H44.1549C43.9949 77.4 43.7949 77.4 43.5949 77.42V74.7C43.6549 74.72 43.7349 74.72 43.7949 74.72L45.6749 74.76ZM54.5465 76.86C54.8465 77.12 55.1665 77.28 55.5265 77.46C55.8665 77.62 56.1865 77.72 56.5665 77.78C56.7465 77.78 56.9265 77.82 57.1265 77.82C57.2865 77.86 57.4665 77.86 57.6265 77.86C57.7665 77.9 57.8865 77.9 57.9865 77.9H58.3465C58.4665 77.86 58.6065 77.86 58.6865 77.86C58.8265 77.86 58.9465 77.86 59.0865 77.82C59.4465 77.74 59.8265 77.68 60.1665 77.58C60.5465 77.5 60.8865 77.32 61.2265 77.12C61.6865 76.8 62.0265 76.48 62.3265 76.02C62.5665 75.6 62.7465 75.08 62.8265 74.58C62.9065 74.42 62.9065 74.2 62.9665 73.98C62.9665 73.82 63.0065 73.6 63.0065 73.44C63.0465 73.1 63.0065 72.8 62.9665 72.52C62.9065 72.22 62.8665 71.92 62.7865 71.62C62.7465 71.28 62.6065 70.98 62.4465 70.72C62.2865 70.44 62.1265 70.24 61.8665 69.98C61.6865 69.8 61.4665 69.62 61.3065 69.54C61.1065 69.42 60.8865 69.3 60.6265 69.18C60.3665 69.04 60.1265 68.96 59.8265 68.88C59.7465 68.84 59.6265 68.78 59.4865 68.78C59.3665 68.74 59.2265 68.74 59.1265 68.7C58.9065 68.66 58.6465 68.62 58.4265 68.62C58.1865 68.58 57.9865 68.58 57.7265 68.62C57.0465 68.62 56.4065 68.74 55.8665 69C55.2665 69.22 54.8065 69.54 54.3865 69.98C53.9665 70.36 53.6665 70.86 53.4065 71.42C53.1865 72 53.0665 72.58 53.0665 73.28C53.0665 73.94 53.1465 74.58 53.4065 75.26C53.6265 75.92 54.0065 76.48 54.5465 76.86ZM67.4465 70.88C67.4065 70.58 67.4065 70.24 67.4065 69.94C67.4065 69.66 67.3065 69.36 67.1865 69.06C67.1065 68.86 66.9665 68.68 66.8065 68.56C66.5865 68.42 66.3865 68.38 66.1665 68.38C65.9465 68.38 65.7865 68.38 65.6065 68.42C65.4865 68.46 65.3265 68.56 65.1665 68.68C64.9865 68.88 64.8465 69.18 64.8065 69.56C64.7265 69.98 64.7265 70.32 64.7265 70.66L64.7665 82.52V82.74C64.7665 82.82 64.8065 82.98 64.8465 83.1C64.8465 83.28 64.9065 83.44 64.9865 83.62C65.0665 83.8 65.1665 83.96 65.2865 84.04C65.4065 84.16 65.5665 84.24 65.7865 84.3C66.1265 84.34 66.4665 84.3 66.7065 84.12C66.9265 84.04 67.0065 83.92 67.1065 83.84C67.1465 83.7 67.2265 83.62 67.2665 83.5C67.3665 83.36 67.4065 83.2 67.4065 82.98C67.4465 82.78 67.4465 82.52 67.4465 82.26C67.4465 81.9 67.4065 81.46 67.4465 81.04V78.76C67.4865 78.26 67.4865 77.72 67.4865 77.12V73.88C67.4865 73.28 67.4865 72.7 67.4465 72.18V70.88ZM63.0465 80.1C62.8265 80.06 62.6665 80.02 62.4465 80.02C62.2465 79.98 61.9865 79.98 61.7265 79.98H54.1665C54.0665 79.98 53.9665 79.98 53.7865 80.02C53.6665 80.06 53.4865 80.1 53.3265 80.16C53.1465 80.2 53.0265 80.28 52.9465 80.4C52.7865 80.58 52.6865 80.8 52.6865 81.08C52.6865 81.42 52.7865 81.64 52.9465 81.82C53.0665 81.92 53.1465 81.96 53.2865 82C53.4065 82.04 53.5265 82.1 53.6665 82.14C53.9265 82.18 54.1665 82.22 54.4265 82.22H56.5265C56.8865 82.22 57.2465 82.22 57.7265 82.26H59.1265C59.6265 82.22 60.0865 82.22 60.5465 82.22H62.4465C62.5665 82.22 62.7065 82.22 62.8665 82.18C63.0065 82.18 63.1265 82.14 63.2665 82.1C63.4465 82.04 63.5865 81.92 63.7065 81.76C63.8465 81.6 63.9265 81.38 63.9265 81.16C63.9265 80.84 63.7665 80.58 63.5065 80.32C63.3865 80.24 63.2265 80.16 63.0465 80.1ZM55.7265 72.92C55.8265 72.52 55.9465 72.18 56.1465 71.92C56.3665 71.62 56.6265 71.46 56.9265 71.34C57.2065 71.2 57.5465 71.16 57.8865 71.16C58.2665 71.16 58.6065 71.2 58.9465 71.28C59.0865 71.34 59.2065 71.38 59.3065 71.46C59.4065 71.5 59.5265 71.56 59.6265 71.62C59.7465 71.7 59.8265 71.78 59.8665 71.88C59.9665 71.92 60.0065 72.04 60.0865 72.12C60.1665 72.26 60.2665 72.44 60.3265 72.62C60.4665 73.06 60.5065 73.44 60.4065 73.9C60.3265 74.2 60.2665 74.46 60.0865 74.74C59.9265 75 59.7065 75.22 59.4465 75.34C59.2665 75.42 59.0865 75.52 58.9065 75.52C58.6865 75.56 58.5265 75.56 58.3065 75.6C57.9265 75.6 57.5465 75.56 57.1665 75.42C56.6665 75.22 56.2665 74.92 55.9865 74.5C55.8665 74.28 55.7865 74.02 55.7265 73.72C55.6865 73.44 55.6865 73.18 55.7265 72.92ZM75.528 84.08C75.828 84.28 76.268 84.24 76.608 84.26L87.028 84.3C87.308 84.3 87.648 84.28 87.928 84.18C88.248 84.08 88.308 83.84 88.388 83.54C88.648 82.58 88.608 81.04 88.568 80.12C88.528 79.6 88.388 79.04 87.868 78.82C87.388 78.6 86.828 78.58 86.328 78.56H76.908C76.528 78.56 76.148 78.64 75.788 78.78C75.388 78.94 75.228 79.18 75.148 79.6C75.028 80.26 75.048 80.94 75.048 81.62C75.048 82.08 75.108 82.56 75.128 83.04C75.128 83.34 75.208 83.84 75.468 84.04C75.488 84.06 75.508 84.08 75.528 84.08ZM83.348 73.74C83.348 72.68 82.988 71.82 82.428 71.16H82.668C83.328 71.16 83.848 70.68 83.848 70.1C83.848 69.5 83.328 69.02 82.668 69.02H79.888V68.38C79.888 67.86 79.368 67.44 78.728 67.44C78.088 67.44 77.568 67.86 77.568 68.38V69.02H74.928C74.268 69.02 73.748 69.5 73.748 70.1C73.748 70.68 74.268 71.16 74.928 71.16H75.288C74.728 71.82 74.388 72.66 74.388 73.74C74.388 75.48 75.548 76.8 77.048 77.4C78.548 78.02 80.388 77.94 81.748 76.94C82.768 76.18 83.348 74.98 83.348 73.74ZM88.488 69.96C88.508 69.86 88.568 69.2 88.408 68.86C88.288 68.6 87.988 68.4 87.608 68.34C87.168 68.28 86.748 68.42 86.528 68.68C86.348 68.9 86.228 69.1 86.168 69.32C86.088 69.62 86.088 69.96 86.108 70.26V70.52C86.108 71.64 86.108 72.78 86.088 73.92C86.088 74.8 85.928 75.98 86.328 76.78C86.408 76.96 86.528 77.1 86.668 77.2C86.868 77.34 87.088 77.42 87.328 77.42C87.528 77.42 87.708 77.36 87.888 77.26C88.408 76.92 88.488 76.14 88.488 76.12V69.96ZM79.268 75.52C78.168 75.74 76.888 75.18 76.888 73.74C76.888 72.48 77.888 71.88 78.888 71.92C79.868 71.94 80.848 72.56 80.848 73.74C80.848 74.76 80.108 75.36 79.268 75.52ZM77.428 81.74C77.428 81.66 77.448 81.6 77.428 81.56C77.428 81.4 77.428 81.22 77.468 81.04C77.528 80.8 77.628 80.84 77.848 80.84C78.428 80.82 78.988 80.8 79.568 80.84H85.128C85.388 80.82 85.788 80.78 85.968 81C86.128 81.2 86.088 81.52 86.068 81.74C86.048 81.98 86.028 82.1 85.768 82.12C85.268 82.18 84.328 82.1 84.328 82.1H78.068C78.068 82.1 77.608 82.16 77.508 82.06C77.428 82 77.428 81.86 77.428 81.74ZM103.26 82.96H93.1996V82.2H102.56C102.9 82.2 103.26 82.22 103.58 82.02C104 81.76 104.16 81.34 104.16 80.96V79.48C104.16 78.5 103.42 78.08 102.08 78.08C94.9996 78.08 93.6196 78.06 92.4396 78.06C92.2196 78.06 92.0196 78.08 91.8196 78.12C91.5396 78.16 90.9396 78.22 90.7996 78.68C90.6996 79 90.7596 79.28 90.9396 79.58C91.0596 79.8 91.2596 79.8 91.4996 79.88C91.6796 79.92 91.8996 79.92 92.1596 79.92H101.88V80.68C95.8596 80.68 93.3396 80.66 92.5996 80.66C92.0196 80.66 91.3196 80.72 90.9596 81.14C90.7196 81.4 90.7396 81.92 90.7596 82.2L90.8196 83.68C90.8796 84.32 91.2796 84.76 91.8196 84.78C92.3996 84.8 92.9796 84.82 93.4996 84.82H102.7C102.98 84.82 103.32 84.8 103.62 84.68C104.12 84.46 104.3 84.1 104.14 83.6C104.02 83.16 103.66 83 103.26 82.96ZM90.8396 70.96C90.8396 73.36 93.8796 73.94 97.6396 73.94C102.2 73.94 104.46 73.36 104.46 70.96C104.46 68.54 101.72 67.98 97.6396 67.98C93.3996 67.98 90.8396 68.78 90.8396 70.96ZM91.6196 74.82C91.5396 74.82 91.4596 74.84 91.3796 74.84C90.9796 74.88 90.5996 74.9 90.2596 75.24C90.0996 75.4 89.9996 75.64 89.9996 75.92C89.9996 76.18 90.0796 76.44 90.2396 76.6C90.6196 77.02 91.5596 77 91.5996 77H103.08C103.62 77.04 104.3 77.06 104.72 76.68C104.98 76.46 105.12 76.16 105.12 75.84C105.12 75.44 104.88 75.1 104.5 74.96C103.98 74.76 103.44 74.8 102.9 74.78H102.8C101 74.74 97.2996 74.78 97.2996 74.78H92.8996C92.8996 74.78 92.0196 74.78 91.6196 74.82ZM101.72 70.96C101.72 71.92 99.5196 71.88 97.5996 71.88C95.6996 71.88 93.6996 71.7 93.6996 70.96C93.6996 70.12 95.7396 69.94 97.6396 69.94C99.5596 69.94 101.72 70.12 101.72 70.96ZM116.778 70.78H118.098C118.478 70.78 118.858 70.8 119.238 70.78C119.458 70.76 119.798 70.64 119.998 70.56C120.418 70.36 120.498 69.5 120.238 69.18C119.798 68.66 119.058 68.58 117.998 68.58H113.318C113.138 68.62 111.478 68.58 111.358 68.6C111.018 68.64 110.558 68.76 110.458 69.14C110.378 69.46 110.438 69.86 110.558 70.16C110.898 70.94 112.038 70.78 112.698 70.78H113.978V72.82C113.758 73.04 111.938 74.74 111.458 75.26C111.198 75.54 110.898 75.82 110.698 76.12C110.538 76.4 110.438 76.82 110.618 77.12C110.718 77.3 110.918 77.42 111.198 77.48C111.318 77.52 111.418 77.52 111.538 77.52C112.018 77.52 112.538 77.32 113.078 76.92C113.558 76.58 113.918 76.18 114.258 75.8C114.418 75.62 114.618 75.44 114.798 75.26L115.338 74.72C115.718 75 116.098 75.44 116.398 75.74C116.818 76.16 117.238 76.58 117.738 76.96C118.058 77.2 118.638 77.5 119.218 77.5C119.498 77.5 119.738 77.42 119.938 77.3C120.218 77.1 120.258 76.76 120.178 76.52C119.998 75.92 119.398 75.3 118.898 74.8C118.758 74.66 118.598 74.48 118.418 74.3C118.118 74.02 117.838 73.76 117.578 73.54C117.338 73.34 116.918 72.94 116.778 72.82C116.758 72.72 116.758 70.76 116.778 70.78ZM124.238 82.1H117.818C117.798 82.1 117.018 82.14 116.158 82.14C115.178 82.14 114.898 82.08 114.818 82.06C114.798 81.92 114.838 80.36 114.818 80.14C114.778 79.54 114.738 78.66 114.018 78.44C113.878 78.4 113.658 78.38 113.518 78.38C112.918 78.38 112.358 78.76 112.298 79.32C112.278 79.62 112.278 80.4 112.298 80.7V83.48C112.298 84.08 112.958 84.44 114.038 84.44H124.058C124.078 84.44 124.558 84.42 124.878 84.04C125.118 83.76 125.198 83.36 125.138 82.86C125.058 82.3 124.258 82.12 124.238 82.1ZM122.418 74.36V77.58C122.438 77.86 122.478 78.18 122.638 78.46C122.718 78.64 122.838 78.76 122.978 78.86C123.178 79 123.398 79.08 123.638 79.08C123.838 79.08 124.018 79.02 124.198 78.92C124.718 78.6 124.798 77.88 124.798 77.84H124.818V69.72C124.818 69.62 124.798 69.02 124.638 68.7C124.518 68.44 124.218 68.26 123.818 68.2C123.378 68.14 122.958 68.26 122.738 68.52C122.558 68.72 122.538 68.92 122.478 69.12C122.398 69.4 122.398 69.72 122.418 70V72.12C122.198 72.14 120.698 72.18 120.478 72.22C119.958 72.34 119.778 72.54 119.698 72.84C119.638 73.12 119.618 73.6 119.778 73.86C120.118 74.38 120.758 74.32 121.538 74.36H122.418ZM136.705 71.2C137.165 70.84 137.145 69.98 136.785 69.56C136.405 69.14 135.685 69.06 135.165 69.06C133.045 69.06 130.945 69.04 128.825 69.04C128.185 69.04 127.405 69.06 126.805 69.28C126.225 69.48 125.845 70.12 126.165 70.74C126.565 71.58 127.485 71.46 128.265 71.5C128.245 72.1 128.305 72.62 128.305 72.7V79.52C128.305 80 128.285 80.48 128.305 80.98C127.545 81.06 125.925 80.92 126.065 82.16C126.165 83.04 127.405 83.24 128.065 83.24C128.765 83.26 129.445 83.26 130.125 83.26C131.125 83.24 132.125 83.24 133.145 83.24C133.785 83.24 134.465 83.26 135.125 83.24C136.145 83.22 136.945 83.44 137.045 82.12C137.125 81.32 136.785 81.2 136.145 81.1C136.045 81.08 134.905 80.9 134.905 80.94V72.42C134.905 72.2 134.905 71.86 134.845 71.5C135.365 71.38 135.985 71.56 136.465 71.34C136.565 71.3 136.645 71.26 136.705 71.2ZM141.125 74.46C141.025 74.48 140.945 74.46 140.845 74.44C140.825 74.44 140.425 74.44 140.425 74.42C140.385 74.28 140.385 74.12 140.385 73.98V72.84C140.385 72.7 140.365 72.56 140.385 72.4C140.385 72.1 140.365 71.84 140.365 71.54C140.345 71.06 140.345 70.56 140.285 70.12C140.285 70.04 140.285 69.96 140.265 69.88C140.225 69.44 140.205 69.02 139.845 68.64C139.665 68.46 139.405 68.34 139.105 68.34C138.805 68.34 138.385 68.44 138.205 68.62C137.765 69.06 137.785 70.06 137.785 70.1V81.98C137.785 82.82 137.925 84.38 139.225 84.42C139.245 84.42 139.265 84.44 139.265 84.44C139.525 84.44 139.745 84.34 139.905 84.16C140.385 83.68 140.385 82.66 140.385 81.96V81.68C140.405 81.02 140.405 80.32 140.385 79.64C140.385 78.96 140.365 77.8 140.385 77.14C140.385 77.06 140.405 77.06 140.405 77.06C140.405 77.06 140.425 77.04 140.465 77.04C140.885 77.02 141.605 77.08 142.025 77.02C142.225 76.98 142.405 76.88 142.565 76.76C142.745 76.62 142.805 76.34 142.845 76.14C142.905 75.94 142.905 75.76 142.905 75.56C142.905 75.38 142.865 75.2 142.765 75.04C142.625 74.74 142.305 74.62 142.005 74.56C141.845 74.54 141.685 74.52 141.545 74.5C141.405 74.5 141.285 74.46 141.165 74.46H141.125ZM130.645 72.9C130.625 72.52 130.625 71.92 130.685 71.72C130.705 71.62 130.725 71.56 130.785 71.5H132.425C132.465 71.56 132.485 71.64 132.485 71.72C132.545 72.08 132.545 73.28 132.545 73.3V80.94H130.765C130.665 80.72 130.625 80.44 130.625 80.36L130.665 73.36C130.665 73.24 130.665 73.1 130.645 72.9ZM152.704 73.74C152.704 72.68 152.344 71.82 151.784 71.16H152.024C152.684 71.16 153.204 70.68 153.204 70.1C153.204 69.5 152.684 69.02 152.024 69.02H149.244V68.38C149.244 67.86 148.724 67.44 148.084 67.44C147.444 67.44 146.924 67.86 146.924 68.38V69.02H144.284C143.624 69.02 143.104 69.5 143.104 70.1C143.104 70.68 143.624 71.16 144.284 71.16H144.644C144.084 71.82 143.744 72.68 143.744 73.74C143.744 77.24 148.384 78.96 151.104 76.94C152.124 76.18 152.704 74.98 152.704 73.74ZM155.184 84.6C155.804 84.56 156.904 84.68 157.324 84.06C157.524 83.76 157.644 83.54 157.664 83.18C157.784 81.96 157.684 80.76 157.724 79.54C157.724 79.22 157.784 78.86 157.524 78.62C157.224 78.36 156.564 78.36 156.184 78.44C155.704 78.52 155.564 78.82 155.544 79.3V79.9H147.424C147.104 79.88 146.984 80 146.944 79.6V79.08C146.844 78.54 146.284 78.42 145.824 78.44C145.604 78.46 145.364 78.48 145.184 78.56C144.824 78.72 144.704 79.08 144.704 79.46C144.704 79.54 144.684 82.58 144.684 82.58C144.704 82.64 144.724 83.78 145.324 84.24C145.784 84.58 146.404 84.62 146.944 84.62C147.584 84.6 154.484 84.74 155.184 84.6ZM157.944 74.32C158.724 74.3 159.404 74.32 159.724 73.8C159.884 73.54 159.864 73.08 159.784 72.8C159.724 72.52 159.544 72.3 159.024 72.2C158.784 72.14 157.704 72.12 157.484 72.1C157.464 71.72 157.484 71.46 157.484 71.46V70.08C157.504 69.8 157.504 69.48 157.424 69.22C157.364 69 157.324 68.8 157.164 68.6C156.944 68.36 156.524 68.24 156.064 68.3C155.684 68.34 155.384 68.52 155.264 68.78C155.104 69.1 155.064 69.72 155.084 69.82V76.42C155.084 76.44 155.164 77.18 155.704 77.5C155.864 77.6 156.064 77.64 156.264 77.64C156.484 77.64 156.724 77.58 156.924 77.44C157.064 77.34 157.184 77.2 157.264 77.04C157.424 76.74 157.464 76.42 157.484 76.14V74.32H157.944ZM148.624 75.52C147.524 75.74 146.244 75.18 146.244 73.74C146.244 71.24 150.204 71.36 150.204 73.74C150.204 74.76 149.464 75.36 148.624 75.52ZM148.124 81.74C148.164 81.74 154.564 81.76 154.684 81.76C154.944 81.74 155.224 81.72 155.404 81.94C155.564 82.12 155.484 82.28 155.484 82.48C155.484 82.92 154.984 82.82 154.704 82.8C154.484 82.78 150.484 82.86 150.264 82.84C149.464 82.82 148.524 82.8 147.784 82.8C147.444 82.82 147.124 82.9 147.004 82.46C146.984 82.36 146.984 82.28 146.984 82.14C146.984 81.64 147.624 81.72 148.124 81.74ZM163.737 70.72C163.737 70.44 163.697 70.26 163.637 70.04C163.637 69.82 163.577 69.62 163.477 69.44C163.457 69.28 163.337 69.16 163.177 69.02C163.057 68.94 162.877 68.88 162.717 68.84C162.557 68.8 162.377 68.8 162.257 68.84C162.077 68.84 161.917 68.88 161.797 68.9C161.437 69.06 161.217 69.28 161.097 69.58C161.037 69.88 160.917 70.16 160.917 70.42C160.917 70.62 160.897 70.92 160.897 71.18V72.04C160.897 72.28 160.917 72.56 160.917 72.7V78.88C160.917 79.36 160.917 79.82 160.897 80.28C160.897 80.68 160.917 81.14 161.037 81.56C161.077 81.78 161.097 81.94 161.197 82.12C161.277 82.26 161.337 82.44 161.517 82.62C161.637 82.74 161.837 82.86 162.037 82.9C162.257 82.98 162.457 82.98 162.677 83.02C162.937 83.02 163.177 83.08 163.457 83.08H167.237C167.477 83.14 167.677 83.14 167.837 83.14H168.217C168.437 83.14 168.617 83.08 168.777 83.08C168.977 83.08 169.157 83.02 169.357 83.02C169.657 82.96 169.917 82.84 170.057 82.62C170.277 82.4 170.357 82.14 170.397 81.82V81.44C170.357 81.3 170.317 81.18 170.277 81.06C170.237 80.98 170.157 80.9 170.057 80.82C169.877 80.68 169.657 80.58 169.397 80.56C169.157 80.46 168.897 80.46 168.697 80.42C168.517 80.42 168.257 80.4 167.977 80.4C167.677 80.4 167.377 80.34 167.077 80.34H164.157C164.017 80.34 163.937 80.3 163.857 80.22C163.757 80.16 163.737 80.1 163.737 80V79.76C163.697 79.52 163.697 79.36 163.737 79.16V70.72ZM174.217 70.68C174.217 70.44 174.217 70.16 174.177 69.86C174.137 69.52 174.097 69.26 173.997 69.04C173.917 68.78 173.797 68.56 173.617 68.42C173.437 68.28 173.197 68.2 172.917 68.2C172.597 68.2 172.337 68.28 172.137 68.4C171.957 68.54 171.837 68.72 171.777 68.9C171.677 69.12 171.597 69.36 171.597 69.66C171.537 69.9 171.537 70.2 171.597 70.5V82.66C171.597 82.76 171.597 82.88 171.617 83.06C171.677 83.24 171.717 83.34 171.777 83.54C171.837 83.7 171.917 83.88 172.037 83.94C172.177 84.08 172.337 84.18 172.557 84.2C172.917 84.3 173.257 84.24 173.577 84.08C173.717 83.94 173.837 83.82 173.917 83.6C173.977 83.58 173.977 83.54 173.997 83.46C173.997 83.44 173.997 83.4 174.057 83.32C174.097 83.18 174.137 83.04 174.137 82.88C174.177 82.7 174.177 82.58 174.217 82.42V70.68ZM184.107 80.9C182.347 80.9 180.287 80.78 180.147 80.76C179.527 80.76 179.327 80.38 179.327 79.86L179.247 72.94V72.92C179.207 72.62 179.187 71.74 179.567 71.58C179.747 71.5 180.207 71.48 180.567 71.48C183.027 71.48 183.287 71.5 183.627 71.5C184.147 71.5 184.527 71.46 184.767 71.4C184.987 71.34 185.167 71.22 185.267 71.04C185.387 70.82 185.407 70.1 185.307 69.8C185.047 68.96 183.367 69.02 183.287 69.02H178.607C178.467 69.02 176.947 69.04 176.607 69.6C176.207 70.26 176.347 71.68 176.367 71.82V80.32C176.367 80.38 176.307 81.62 176.567 82.2C176.767 82.66 177.187 83.04 177.607 83.16C178.207 83.34 178.907 83.34 179.507 83.36H179.667C180.967 83.36 183.647 83.38 184.207 83.36C184.927 83.32 185.807 82.8 185.707 81.94C185.607 81.08 184.887 80.9 184.107 80.9ZM189.427 74.44C189.427 72.92 189.387 71.34 189.267 69.88C189.227 69.44 189.207 69.02 188.847 68.64C188.667 68.46 188.407 68.34 188.107 68.34C187.807 68.34 187.387 68.44 187.207 68.62C186.767 69.06 186.787 70.06 186.787 70.1V82.38C186.787 83.22 186.887 84.5 188.187 84.42C189.367 84.34 189.387 82.86 189.387 82.16C189.387 80.5 189.347 78.38 189.387 77L191.027 76.98C191.527 76.98 191.767 76.6 191.847 76.16C191.907 75.96 191.907 75.78 191.907 75.58C191.907 75 191.487 74.68 191.007 74.58L189.427 74.44ZM193.358 68.98C193.138 69.32 193.078 69.92 193.078 70.24V76.94C193.078 77.44 193.058 77.94 193.078 78.4C193.098 78.68 193.138 79.1 193.218 79.34C193.578 80.2 195.498 80.26 195.858 79.36C196.038 78.88 195.998 78.32 195.998 77.8V71.9C195.998 71.04 196.298 68.84 195.178 68.54C194.918 68.48 194.638 68.48 194.338 68.48C193.998 68.48 193.578 68.64 193.358 68.98ZM195.658 81.84C195.318 81.5 194.778 81.5 194.278 81.52C193.878 81.52 193.498 81.64 193.338 82.04C193.198 82.42 193.218 82.96 193.358 83.34C193.618 84.04 194.738 84.14 195.318 83.9C195.978 83.62 196.018 82.8 195.858 82.24C195.818 82.08 195.738 81.96 195.658 81.84Z" fill="#444444"/>
<defs>
<clipPath id="clip0_611_4148">
<rect width="217" height="48" fill="white"/>
</clipPath>
</defs>
</svg>
