<svg width="354" height="255" viewBox="0 0 354 255" fill="none" xmlns="http://www.w3.org/2000/svg">
<path d="M196.849 64.4841C196.849 64.4841 203.25 37.121 206.611 39.2853C209.972 41.4625 208.466 52.5288 208.466 52.5288C208.466 52.5288 218.601 48.5094 222.31 48.2775C226.006 48.0456 235.06 44.9151 238.344 47.2984C241.628 49.6817 231.531 52.5288 231.531 52.5288C231.531 52.5288 243.277 50.4289 245.749 52.5288C248.222 54.6287 245.749 55.9815 245.749 55.9815C245.749 55.9815 247.526 55.6078 246.844 59.0218C246.161 62.4357 235.884 63.6854 235.884 63.6854C235.884 63.6854 244.101 64.0848 243.289 66.9705C242.478 69.8563 218.112 74.1978 218.112 74.1978L208.478 84.1562L195.355 72.2525L196.849 64.497V64.4841Z" fill="#F9BC9A"/>
<path d="M230.024 63.9941C230.23 63.9941 230.424 63.9039 230.565 63.7235C230.784 63.4272 230.72 63.015 230.424 62.7959L217.094 53.0179C216.798 52.7989 216.386 52.8633 216.167 53.1596C215.948 53.4559 216.012 53.8682 216.309 54.0872L229.638 63.8652C229.754 63.9554 229.896 63.9941 230.024 63.9941Z" fill="#333333"/>
<path d="M119.039 72.6842C119.039 72.6842 126.328 76.8968 127.874 82.1402L129.419 87.3835C129.419 87.3835 137.043 87.0614 141.293 92.5881C145.543 98.1149 141.293 109.4 141.293 109.4L74.0669 133.878C74.0669 133.878 65.0905 128.428 64.717 117.207C64.3435 105.986 70.1389 101.361 70.1389 101.361C70.1389 101.361 68.4132 94.6494 70.1389 86.8037C71.8647 78.9581 81.163 76.3558 81.163 76.3558L119.039 72.6713V72.6842Z" fill="#333333"/>
<path d="M50.151 138.618C50.151 138.618 43.7503 111.255 40.389 113.42C37.0276 115.597 38.5344 126.663 38.5344 126.663C38.5344 126.663 28.3989 122.644 24.6899 122.412C20.9937 122.18 11.94 119.049 8.65598 121.433C5.37193 123.816 15.4688 126.663 15.4688 126.663C15.4688 126.663 3.72346 124.563 1.25076 126.663C-1.22193 128.763 1.25076 130.116 1.25076 130.116C1.25076 130.116 -0.526488 129.742 0.15608 133.156C0.838648 136.57 11.1158 137.82 11.1158 137.82C11.1158 137.82 2.89923 138.219 3.71059 141.105C4.52194 143.991 28.8883 148.332 28.8883 148.332L38.5216 158.291L51.6449 146.387L50.151 138.631V138.618Z" fill="#F9BC9A"/>
<path d="M65.3478 147.856C65.3478 147.856 67.4599 126.47 85.2969 115.584C103.121 104.698 129.265 102.843 129.265 102.843C129.265 102.843 153.785 96.9297 165.428 89.4319C177.07 81.9341 190.348 68.4586 190.348 68.4586L217.213 83.9953C217.213 83.9953 203.922 115.893 186.214 130.348C168.506 144.802 152.742 147.856 152.742 147.856C152.742 147.856 155.653 157.505 156.915 172.269C158.177 187.032 158.151 195.818 158.151 195.818C158.151 195.818 141.203 209.564 120.765 210.556C100.339 211.535 83.8029 206.537 83.8029 206.537L65.335 147.868L65.3478 147.856Z" fill="#DE127E"/>
<path d="M97.9177 107.056C97.9177 107.056 93.539 109.401 92.5087 111.81C91.3496 114.515 95.4321 120.39 104.731 123.868C111.518 126.419 116.927 126.78 116.927 126.78C116.927 126.78 120.97 118.432 121.202 113.755C121.434 109.079 116.63 103.836 116.63 103.836L97.9177 107.043V107.056Z" fill="#E0B7DF"/>
<path d="M118.781 81.3021C118.781 81.3021 122.864 71.7688 122.091 67.5819C121.319 63.395 104.731 51.0919 90.8348 57.7781C76.9387 64.4643 76.2304 82.8481 79.4629 90.4103C87.8083 109.876 104.563 100.665 104.563 100.665C104.563 100.665 131.325 92.1495 118.781 81.3021Z" fill="#333333"/>
<path d="M116.618 103.462V103.835L116.696 110.998L116.773 116.615C116.773 116.615 117.327 117.89 110.784 117.813C102.014 117.684 99.0003 114.077 99.0003 114.077L97.9185 100.962L100.597 101.323L116.618 103.449V103.462Z" fill="#F9BC9A"/>
<path d="M116.643 103.848L116.707 111.011C112.432 110.727 104.614 109.297 101.124 102.792C100.854 102.263 100.673 101.787 100.596 101.375L116.604 103.745L116.63 103.848H116.643Z" fill="#333333"/>
<path d="M117.57 69.5015C117.57 69.5015 126.688 87.6663 124.331 98.2689C121.962 108.871 112.354 107.738 106.559 106.024C100.764 104.311 97.9302 100.961 97.9302 100.961C97.9302 100.961 92.7144 103.048 88.8894 98.2947C85.0645 93.5409 86.9448 87.7436 89.9197 86.275C92.8818 84.8063 96.6166 86.8032 96.6166 86.8032L93.5 81.547C93.5 81.547 103.932 53.4366 117.596 69.4886L117.57 69.5015Z" fill="#F9BC9A"/>
<path d="M117.956 93.2577C117.956 93.2577 117.84 93.2577 117.789 93.232C117.428 93.1418 117.222 92.7811 117.312 92.4204C118.201 88.9935 115.484 85.425 115.458 85.3863C115.239 85.1029 115.29 84.6778 115.574 84.4588C115.857 84.2398 116.282 84.2913 116.501 84.5747C116.63 84.7422 119.643 88.6843 118.587 92.7553C118.51 93.0516 118.24 93.2577 117.943 93.2577H117.956Z" fill="#333333"/>
<path d="M96.192 95.6544C96.0246 95.6544 95.8572 95.59 95.7284 95.4741L90.4224 90.3596C90.1648 90.1019 90.1519 89.6897 90.4095 89.4191C90.6671 89.1486 91.0792 89.1486 91.3497 89.4063L96.6557 94.5208C96.9132 94.7784 96.9261 95.1907 96.6685 95.4612C96.5398 95.59 96.3594 95.6673 96.192 95.6673V95.6544Z" fill="#333333"/>
<path d="M90.7706 94.4683C90.4615 94.4683 90.1782 94.2493 90.1267 93.9401C90.0494 93.5794 90.2812 93.2316 90.6418 93.1543L94.1062 92.4586C94.4668 92.3942 94.8145 92.6132 94.8918 92.9739C94.9691 93.3346 94.7372 93.6825 94.3766 93.7598L90.9123 94.4554C90.9123 94.4554 90.8221 94.4554 90.7835 94.4554L90.7706 94.4683Z" fill="#333333"/>
<path d="M114.764 100.743C114.442 100.743 114.12 100.665 113.798 100.524C111.376 99.4545 109.2 95.3964 109.11 95.2289C108.981 94.997 109.007 94.7007 109.174 94.4946C109.342 94.2885 109.625 94.1983 109.87 94.2756L117.249 96.3497C117.584 96.4399 117.79 96.7749 117.726 97.1227C117.674 97.3932 117.172 99.7508 115.717 100.511C115.42 100.665 115.098 100.743 114.764 100.743ZM111.132 96.0148C111.969 97.2644 113.192 98.8104 114.339 99.3128C114.725 99.4803 114.957 99.403 115.098 99.3257C115.652 99.0423 116.051 98.1276 116.27 97.4577L111.132 96.0148Z" fill="#333333"/>
<path d="M105.658 80.2203C105.568 80.2203 105.478 80.2074 105.388 80.1559C105.053 80.0013 104.911 79.6148 105.066 79.2799C106.238 76.7291 109.419 77.2315 109.56 77.2444C109.921 77.3088 110.166 77.6437 110.101 78.0044C110.037 78.3652 109.715 78.6099 109.341 78.5584C109.251 78.5455 107.023 78.2106 106.276 79.8338C106.16 80.0786 105.928 80.2203 105.671 80.2203H105.658Z" fill="#333333"/>
<path d="M116.926 77.6053C116.81 77.6053 116.681 77.5795 116.578 77.5022C116.269 77.309 116.166 76.8967 116.359 76.5875C116.849 75.7888 117.506 75.3121 118.317 75.1704C119.94 74.8999 121.549 76.1624 121.614 76.2139C121.897 76.4458 121.949 76.8581 121.717 77.1415C121.485 77.4249 121.073 77.4764 120.79 77.2445C120.455 76.974 119.424 76.3299 118.536 76.4716C118.111 76.5489 117.763 76.8065 117.48 77.2703C117.351 77.4764 117.132 77.5924 116.913 77.5924L116.926 77.6053Z" fill="#333333"/>
<path d="M96.6045 86.8165C96.6045 86.8165 104.525 82.2689 107.191 76.2913C109.857 70.3007 109.818 67.3635 109.818 67.3635C109.818 67.3635 111.183 71.1381 114.184 71.9111C117.185 72.6712 119.026 72.6841 119.026 72.6841L121.177 78.0433L119.335 65.0961C119.335 65.0961 111.119 61.1926 110.037 61.2312C108.968 61.2828 95.5356 64.3489 94.7886 65.1991C94.0416 66.0494 90.2682 76.7808 90.2682 76.7808L90.1909 81.5475L96.5916 86.8037L96.6045 86.8165Z" fill="#333333"/>
<path d="M106.546 84.6524C106.546 84.6524 106.43 84.6524 106.378 84.6266C106.018 84.5364 105.812 84.1757 105.902 83.815C106.198 82.7071 106.765 81.9728 107.615 81.6507C109.238 81.0323 111.131 82.2176 111.337 82.3464C111.646 82.5525 111.723 82.9519 111.53 83.2611C111.337 83.5702 110.925 83.6604 110.616 83.4543C110.203 83.1838 108.928 82.5525 108.091 82.8875C107.666 83.0549 107.37 83.4672 107.19 84.15C107.113 84.4463 106.842 84.6524 106.546 84.6524Z" fill="#333333"/>
<path d="M117.365 82.5269C117.288 82.5269 117.223 82.5269 117.146 82.4882C116.798 82.3723 116.618 81.9858 116.747 81.6379C116.824 81.4189 117.519 79.5509 118.91 79.4092C119.773 79.319 120.597 79.9116 121.344 81.187C121.538 81.5091 121.435 81.9085 121.113 82.1017C120.803 82.295 120.391 82.1919 120.198 81.8698C119.683 81.0067 119.258 80.7362 119.026 80.7362C118.653 80.7748 118.176 81.5606 117.983 82.0888C117.88 82.3594 117.635 82.5269 117.352 82.5269H117.365Z" fill="#333333"/>
<path d="M66.6226 141.659L50.7304 133.877L30.292 151.488C30.292 151.488 43.8918 202.028 77.1316 210.904C110.371 219.78 110.964 177.048 110.964 177.048L66.6226 141.646V141.659Z" fill="#DE127E"/>
<path d="M16.9756 138.129C16.7696 138.129 16.5764 138.039 16.4347 137.859C16.2158 137.563 16.2802 137.15 16.5764 136.931L29.9058 127.153C30.202 126.934 30.6141 126.999 30.833 127.295C31.052 127.591 30.9876 128.004 30.6914 128.223L17.362 138.001C17.2461 138.091 17.1044 138.129 16.9756 138.129Z" fill="#333333"/>
<path d="M98.485 107.893C98.485 107.893 109.045 114.837 114.351 113.948C119.657 113.059 118.138 108.782 118.138 108.782L119.052 119.114L114.635 121.472L102.091 118.818L94.2222 112.621L98.4721 107.893H98.485Z" fill="#E0B7DF"/>
<path d="M110.963 122.67C110.963 122.67 107.95 128.802 108.645 137.472C109.34 146.142 115.973 154.851 115.973 154.851C115.973 154.851 122.322 144.454 122.18 137.472C122.039 130.489 116.694 121.484 116.694 121.484C116.694 121.484 121.73 129.034 123.507 133.878C125.284 138.734 127.641 144.944 127.641 144.944C127.641 144.944 131.324 137.717 129.702 130.18C128.079 122.657 119.064 119.114 119.064 119.114L110.963 122.657V122.67Z" fill="#E0B7DF"/>
<path d="M103.932 186.89C103.597 186.89 103.314 186.632 103.275 186.297C100.442 159.192 71.9031 145.768 71.6198 145.639C71.2849 145.485 71.1432 145.098 71.2978 144.763C71.4523 144.428 71.8516 144.287 72.1735 144.441C72.4697 144.583 101.691 158.29 104.602 186.169C104.641 186.529 104.37 186.864 104.01 186.903C103.984 186.903 103.958 186.903 103.945 186.903L103.932 186.89Z" fill="#333333"/>
<path d="M152.756 148.513C152.46 148.513 152.189 148.32 152.112 148.024C152.086 147.908 149.085 136.764 147.617 134.213C147.437 133.891 147.54 133.492 147.862 133.311C148.184 133.131 148.583 133.234 148.764 133.556C150.322 136.262 153.258 147.225 153.387 147.689C153.477 148.049 153.271 148.41 152.923 148.5C152.872 148.513 152.807 148.526 152.756 148.526V148.513Z" fill="#333333"/>
<path d="M167.566 103.989C167.231 103.989 166.87 103.938 166.523 103.822C162.363 102.546 158.641 93.7343 158.486 93.3607C158.383 93.1031 158.435 92.8197 158.641 92.6264C158.834 92.4332 159.13 92.3816 159.375 92.4976C160.495 93.0129 170.348 97.6121 170.618 101.232C170.67 101.825 170.489 102.688 169.42 103.396C168.828 103.783 168.21 103.976 167.566 103.976V103.989ZM160.47 94.5073C161.886 97.406 164.488 101.812 166.909 102.546C167.553 102.739 168.132 102.649 168.699 102.289C169.279 101.902 169.317 101.567 169.304 101.335C169.163 99.4801 164.333 96.4526 160.47 94.5073Z" fill="#333333"/>
<path d="M111.286 125.04C111.144 125.04 111.016 125.04 110.9 125.015C108.144 124.718 106.817 118.895 106.882 116.589C106.882 116.228 107.216 115.932 107.564 115.945C107.925 115.945 108.221 116.267 108.208 116.628C108.131 119.295 109.638 123.546 111.041 123.701C112.355 123.829 114.944 122.85 116.412 122.206C115.459 120.596 113.36 116.641 114.21 114.476C114.48 113.768 115.047 113.291 115.819 113.085C116.798 112.84 117.416 113.188 117.764 113.523C119.606 115.301 118.305 121.446 118.022 122.657C117.983 122.812 117.893 122.953 117.764 123.043C117.725 123.069 117.7 123.095 117.661 123.108C117.223 123.314 113.553 125.04 111.299 125.04H111.286ZM116.438 114.335C116.36 114.335 116.257 114.335 116.141 114.373C115.768 114.476 115.549 114.657 115.433 114.966C114.982 116.138 115.974 118.663 117.043 120.647C117.455 118.135 117.597 115.224 116.824 114.476C116.772 114.425 116.669 114.335 116.438 114.335Z" fill="#534579"/>
<path d="M114.364 136.467C113.9 136.467 113.475 136.286 113.127 135.951C111.131 133.942 112.432 125.864 112.715 124.267C112.767 123.983 112.998 123.751 113.295 123.725C113.578 123.687 113.861 123.854 113.977 124.125C114.351 125.001 117.519 132.782 116.064 135.449C115.767 135.99 115.291 136.338 114.686 136.441C114.57 136.467 114.454 136.467 114.351 136.467H114.364ZM113.668 127.011C113.269 130.373 113.192 134.135 114.08 135.011C114.17 135.101 114.273 135.165 114.48 135.127C114.673 135.088 114.802 134.998 114.917 134.805C115.587 133.568 114.711 129.987 113.681 127.011H113.668Z" fill="#534579"/>
<path d="M213.826 92.0338C213.71 92.0338 213.607 92.0081 213.504 91.9437L195.951 82.1141C195.629 81.9337 195.513 81.5343 195.693 81.2123C195.873 80.8902 196.285 80.7871 196.594 80.9546L214.148 90.7842C214.47 90.9646 214.586 91.3639 214.406 91.686C214.29 91.905 214.058 92.021 213.826 92.021V92.0338Z" fill="#333333"/>
<path d="M32.7395 159.656C32.5592 159.656 32.3918 159.592 32.2501 159.45C31.9925 159.18 32.0183 158.767 32.2759 158.51L47.1507 144.545C47.4212 144.287 47.8333 144.313 48.0908 144.571C48.3484 144.841 48.3227 145.253 48.0651 145.511L33.1903 159.463C33.0615 159.579 32.8941 159.643 32.7395 159.643V159.656Z" fill="#333333"/>
<path d="M172.288 120.899C172.288 120.899 165.255 121.815 159.178 119.027C153.101 116.24 163.132 115.059 163.132 115.059L172.288 120.899Z" fill="#F9BC9A"/>
<path d="M238.683 242.318C238.683 242.318 247.016 245.955 263.92 246.578C280.824 247.189 287.63 242.318 287.63 242.318L293.495 146.449L283.637 142.48L257.538 146.091L238.683 242.331V242.318Z" fill="#B8D4E0"/>
<path d="M285.72 179.206C285.72 179.206 280.001 250.481 280.77 252.18C281.553 253.879 307.679 256.003 320.775 252.18C322.792 251.596 325.339 227.718 325.339 227.718L285.72 179.22V179.206Z" fill="#3CA6D2"/>
<path d="M265.923 98.6271C265.923 98.6271 257.364 85.7658 260.137 84.4386C262.911 83.1113 265.153 85.7526 265.153 85.7526C265.153 85.7526 285.188 84.5182 292.194 87.2391C299.2 89.9733 302.902 102.224 302.902 102.224C302.902 102.224 306.55 102.224 307.612 107.308C308.673 112.378 295.75 135.605 289.076 133.694C282.402 131.782 265.909 98.6271 265.909 98.6271H265.923Z" fill="#333333"/>
<path d="M289.382 129.791L288.148 146.316C288.148 146.316 284.818 150.842 275.092 150.908C267.847 150.961 265.446 149.143 265.446 149.143L267.078 140.848L268.67 132.764L286.397 130.229L289.369 129.805L289.382 129.791Z" fill="#F9BC9A"/>
<path d="M286.397 130.217C286.317 130.668 286.105 131.185 285.799 131.769C281.487 139.746 271.257 140.768 267.064 140.835L268.657 132.752L286.383 130.217H286.397Z" fill="#333333"/>
<path d="M267.794 94.818C267.794 94.818 257.591 114.886 260.138 126.646C262.686 138.406 273.34 137.211 279.775 135.34C286.211 133.468 289.368 129.778 289.368 129.778C289.368 129.778 295.14 132.128 299.399 126.872C303.659 121.629 301.602 115.192 298.325 113.546C295.047 111.9 290.908 114.103 290.908 114.103L294.397 108.303C294.397 108.303 283 77.1122 267.781 94.8047L267.794 94.818Z" fill="#F9BC9A"/>
<path d="M267.237 121.084C266.932 121.084 266.653 120.872 266.573 120.567C265.432 116.081 268.776 111.74 268.922 111.568C269.161 111.276 269.585 111.223 269.877 111.448C270.169 111.687 270.222 112.112 269.997 112.404C269.97 112.444 266.918 116.399 267.887 120.222C267.98 120.593 267.754 120.965 267.396 121.058C267.343 121.071 267.277 121.084 267.223 121.084H267.237Z" fill="#333333"/>
<path d="M291.333 123.858C291.147 123.858 290.974 123.792 290.842 123.646C290.576 123.367 290.59 122.943 290.868 122.677L296.773 117.036C297.051 116.771 297.476 116.784 297.741 117.063C298.007 117.342 297.993 117.766 297.715 118.032L291.81 123.673C291.678 123.805 291.505 123.858 291.333 123.858Z" fill="#333333"/>
<path d="M297.329 122.571C297.329 122.571 297.236 122.571 297.197 122.558L293.362 121.775C292.99 121.695 292.752 121.337 292.831 120.965C292.911 120.594 293.269 120.355 293.641 120.434L297.475 121.217C297.847 121.297 298.086 121.655 298.006 122.027C297.94 122.346 297.661 122.571 297.342 122.571H297.329Z" fill="#333333"/>
<path d="M276.975 113.878C276.975 113.878 276.896 113.878 276.856 113.878C276.484 113.812 276.232 113.453 276.299 113.082L276.989 109.272C277.055 108.901 277.427 108.662 277.785 108.715C278.156 108.781 278.408 109.14 278.342 109.511L277.652 113.321C277.586 113.652 277.307 113.878 276.975 113.878Z" fill="#333333"/>
<path d="M265.631 112.365C265.631 112.365 265.538 112.365 265.499 112.352C265.127 112.272 264.888 111.914 264.968 111.542L265.724 107.746C265.804 107.374 266.162 107.136 266.534 107.215C266.905 107.295 267.144 107.653 267.064 108.025L266.308 111.821C266.242 112.139 265.963 112.365 265.645 112.365H265.631Z" fill="#333333"/>
<path d="M280.93 106.71C280.665 106.71 280.426 106.564 280.306 106.312C279.471 104.467 276.963 104.838 276.87 104.852C276.498 104.918 276.14 104.652 276.087 104.281C276.034 103.909 276.286 103.564 276.658 103.498C276.804 103.471 280.306 102.94 281.567 105.741C281.726 106.086 281.567 106.484 281.222 106.643C281.129 106.683 281.036 106.71 280.943 106.71H280.93Z" fill="#333333"/>
<path d="M269.93 103.75C269.705 103.75 269.479 103.631 269.347 103.418C269.028 102.887 268.63 102.582 268.152 102.502C267.184 102.33 265.99 103.06 265.618 103.352C265.326 103.591 264.888 103.538 264.663 103.246C264.424 102.954 264.477 102.516 264.769 102.29C264.849 102.237 266.613 100.843 268.391 101.162C269.267 101.321 269.983 101.839 270.527 102.715C270.727 103.033 270.62 103.458 270.302 103.657C270.196 103.724 270.063 103.763 269.944 103.763L269.93 103.75Z" fill="#333333"/>
<path d="M267.794 94.8181C267.794 94.8181 274.455 92.8404 276.976 95.3622C279.497 97.8841 280.916 117.302 290.921 114.103C300.925 110.905 297.117 98.1893 297.117 98.1893C297.117 98.1893 274.879 75.1611 267.794 94.8048V94.8181Z" fill="#333333"/>
<path d="M179.122 131.663C179.122 131.663 179.122 122.187 174.756 121.311C170.391 120.435 166.901 120.753 162.138 117.661C157.375 114.568 149.042 101.388 151.417 100.685C153.805 99.9679 163.73 108.821 163.73 108.821C163.73 108.821 159.365 95.3092 161.74 94.4465C164.128 93.5837 166.503 97.4727 166.503 97.4727C166.503 97.4727 165.044 93.3581 168.348 93.9288C171.665 94.4863 178.007 107.878 178.007 107.878C178.007 107.878 177.609 97.2603 179.997 97.4727C182.386 97.685 185.703 108.927 185.703 108.927C185.703 108.927 198.653 107.228 201.439 115.232C204.212 123.235 203.429 127.934 203.429 127.934L179.122 131.663Z" fill="#F9BC9A"/>
<path d="M169.661 108.023C169.369 108.023 169.104 107.838 169.011 107.546L165.853 97.684C165.733 97.3256 165.932 96.9407 166.291 96.8212C166.649 96.715 167.034 96.9009 167.153 97.2592L170.311 107.121C170.43 107.479 170.231 107.864 169.873 107.984C169.807 108.01 169.727 108.01 169.661 108.01V108.023Z" fill="#333333"/>
<path d="M174.757 128.73C174.757 128.73 164.195 174.243 171.798 199.036C178.936 222.316 217.202 210.384 217.202 210.384C217.202 210.384 206.8 245 211.324 248.411C215.623 251.636 240.09 252.326 242.412 251.105C244.734 249.884 267.078 140.848 267.078 140.848C267.078 140.848 253.279 140.357 240.183 144.273C229.29 147.538 219.232 150.909 216.99 150.909C214.761 150.909 210.435 122.2 210.435 122.2L174.757 128.744V128.73Z" fill="#3CA6D2"/>
<path d="M218.064 170.075C217.745 170.075 217.374 170.008 216.949 169.823C210.7 167.248 215.755 152.356 216.352 150.67C216.445 150.391 216.71 150.192 217.015 150.219C217.307 150.219 217.573 150.431 217.652 150.71C218.435 153.404 222.217 167.009 219.351 169.584C219.072 169.836 218.661 170.075 218.064 170.075ZM216.949 153.298C215.463 158.395 213.791 167.035 217.467 168.562C218.13 168.84 218.356 168.641 218.435 168.562C219.895 167.248 218.568 159.483 216.949 153.285V153.298Z" fill="#333333"/>
<path d="M258.426 186.93C258.426 186.93 247.267 176.166 244.826 175.715C242.385 175.264 233.654 179.219 233.654 179.219V186.93H258.413H258.426Z" fill="#F9BC9A"/>
<path d="M232.688 199.874L247.093 192.784C248.625 192.03 249.256 190.176 248.502 188.643L233.857 158.871C233.103 157.338 231.25 156.707 229.718 157.461L215.313 164.552C213.781 165.306 213.15 167.16 213.904 168.692L228.549 198.465C229.303 199.997 231.156 200.628 232.688 199.874Z" fill="#606060"/>
<path d="M217.202 211.061C217.202 211.061 217.069 211.061 217.003 211.035C216.645 210.929 216.432 210.544 216.552 210.185L224.407 184.104C224.513 183.746 224.898 183.534 225.256 183.653C225.614 183.759 225.826 184.144 225.707 184.503L217.852 210.583C217.759 210.875 217.494 211.075 217.202 211.075V211.061Z" fill="#333333"/>
<path d="M230.502 200.956L244.907 193.865C246.439 193.111 247.07 191.258 246.316 189.725L231.671 159.952C230.917 158.42 229.064 157.789 227.532 158.543L213.127 165.634C211.595 166.388 210.964 168.241 211.718 169.774L226.363 199.547C227.117 201.079 228.97 201.71 230.502 200.956Z" fill="#333333"/>
<path d="M272.385 188.709C272.385 188.709 245.238 180.321 241.284 181.329C237.33 182.338 221.806 194.562 222.668 197.628C223.531 200.694 227.06 199.911 227.06 199.911C227.06 199.911 223.717 202.022 224.924 204.132C226.131 206.242 230.125 205.526 230.125 205.526C230.125 205.526 227.312 207.132 230.868 208.605C234.411 210.078 244.11 206.733 244.11 206.733C244.11 206.733 249.816 211.697 259.488 211.392C269.161 211.087 272.332 208.817 272.332 208.817L272.372 188.696L272.385 188.709Z" fill="#F9BC9A"/>
<path d="M226.688 200.363C226.476 200.363 226.251 200.257 226.131 200.071C225.919 199.765 225.998 199.327 226.304 199.115L239.625 189.97C239.944 189.758 240.368 189.837 240.58 190.143C240.793 190.448 240.713 190.886 240.408 191.098L227.086 200.243C226.967 200.323 226.834 200.363 226.702 200.363H226.688Z" fill="#333333"/>
<path d="M230.126 206.216C229.887 206.216 229.661 206.097 229.529 205.871C229.343 205.539 229.449 205.128 229.781 204.942L244.097 196.673C244.429 196.487 244.84 196.593 245.026 196.925C245.212 197.257 245.106 197.668 244.774 197.854L230.457 206.123C230.351 206.19 230.232 206.216 230.112 206.216H230.126Z" fill="#333333"/>
<path d="M288.704 139.441C288.704 139.441 323.215 140.834 342.68 172.211C360.672 201.225 358.496 237.752 326.864 239.584C295.246 241.402 256.303 217.073 256.303 217.073L265.458 180.108L285.467 182.723L288.704 139.454V139.441Z" fill="#3CA6D2"/>
<path d="M320.456 190.25C320.337 190.25 320.217 190.223 320.098 190.143C312.853 185.737 285.679 183.427 285.401 183.401C285.029 183.374 284.751 183.042 284.777 182.658C284.804 182.286 285.162 182.007 285.52 182.034C286.648 182.127 313.304 184.396 320.814 188.975C321.133 189.174 321.239 189.599 321.04 189.918C320.907 190.13 320.681 190.25 320.456 190.25Z" fill="#333333"/>
<path d="M297.33 184.727C297.025 184.727 296.746 184.515 296.666 184.21C296.587 183.904 296.733 183.573 297.011 183.427C298.856 182.484 315.229 174.295 319.647 178.595C320.457 179.392 320.351 180.108 320.205 180.467C318.944 183.745 302.385 184.555 297.343 184.727H297.317H297.33ZM315.693 178.701C311.633 178.701 305.105 181.197 300.66 183.214C309.563 182.71 318.374 181.449 318.944 179.976C318.984 179.883 318.838 179.71 318.705 179.577C318.068 178.954 317.02 178.701 315.707 178.701H315.693Z" fill="#333333"/>
<path d="M275.649 151.878C269.917 151.878 265.246 149.781 265.167 149.741C264.822 149.582 264.676 149.183 264.835 148.838C264.994 148.493 265.392 148.347 265.737 148.507C265.87 148.573 279.046 154.453 287.67 145.825C287.935 145.56 288.373 145.56 288.639 145.825C288.904 146.091 288.904 146.529 288.639 146.794C284.685 150.75 279.881 151.891 275.662 151.891L275.649 151.878Z" fill="#333333"/>
<path d="M271.642 125.903C271.27 125.903 270.952 125.597 270.952 125.212C270.952 124.827 271.257 124.535 271.629 124.522C271.721 124.522 273.725 124.469 275.092 122.664C275.317 122.359 275.755 122.306 276.047 122.531C276.352 122.757 276.405 123.195 276.18 123.487C274.375 125.863 271.735 125.889 271.629 125.889L271.642 125.903Z" fill="#333333"/>
<g clip-path="url(#clip0_450_3491)">
<path d="M147.25 235H47.3018C45.4404 235 43.9314 233.48 43.9314 231.605V230.554C43.9314 228.679 45.4404 227.159 47.3018 227.159H147.25C149.112 227.159 150.621 228.679 150.621 230.554V231.605C150.621 233.48 149.112 235 147.25 235Z" fill="#BDB2C2"/>
<path d="M123.245 234.976H49.5083L28.4615 187H99.2643C101.034 187 102.635 188.05 103.338 189.687L123.245 234.976Z" fill="#DDD7E0"/>
<path d="M116.844 234.976H43.107L24.3151 192.154C23.2482 189.736 25.0183 187 27.6613 187H95.7726L116.844 234.976Z" fill="#CCC5D6"/>
<path d="M70.4097 217.29C66.9546 217.29 64.1538 214.468 64.1538 210.988C64.1538 207.507 66.9546 204.685 70.4097 204.685C73.8647 204.685 76.6655 207.507 76.6655 210.988C76.6655 214.468 73.8647 217.29 70.4097 217.29Z" fill="#EEE9F4"/>
</g>
<path d="M97.5904 25.3648C96.9911 25.3648 96.5061 24.8798 96.5061 24.2804V9.09972C96.5061 8.50037 96.9911 8.01538 97.5904 8.01538C98.1898 8.01538 98.6748 8.50037 98.6748 9.09972V24.2804C98.6748 24.8798 98.1898 25.3648 97.5904 25.3648Z" fill="#BD7DB2"/>
<path d="M112.916 21.0275C112.316 21.0275 111.831 20.5425 111.831 19.9432V4.76244C111.831 4.16309 112.316 3.6781 112.916 3.6781C113.515 3.6781 114 4.16309 114 4.76244V19.9432C114 20.5425 113.515 21.0275 112.916 21.0275Z" fill="#BD7DB2"/>
<path d="M112.612 0.396066L105.253 2.47799L97.2868 4.73334C96.8315 4.86346 96.5061 5.2972 96.5061 5.77438V13.7117L105.253 11.2394L114 8.76722V1.4371C114 0.721367 113.306 0.200957 112.612 0.396066Z" fill="#BD7DB2"/>
<path d="M94.3373 28.6178C91.9452 28.6178 90 26.6726 90 24.2805C90 21.8883 91.9452 19.9431 94.3373 19.9431C96.7295 19.9431 98.6747 21.8883 98.6747 24.2805C98.6747 26.6726 96.7295 28.6178 94.3373 28.6178Z" fill="#BD7DB2"/>
<path d="M109.59 24.2804C107.198 24.2804 105.253 22.3352 105.253 19.9431C105.253 17.5509 107.198 15.6057 109.59 15.6057C111.982 15.6057 114 17.5509 114 19.9431C114 22.3352 111.982 24.2804 109.59 24.2804Z" fill="#BD7DB2"/>
<path d="M294.056 55.3964C293.42 55.3964 292.905 54.8817 292.905 54.2455V31.1509C292.905 30.5148 293.42 30 294.056 30C294.692 30 295.207 30.5148 295.207 31.1509V54.2455C295.207 54.8817 294.692 55.3964 294.056 55.3964Z" fill="#ED7388"/>
<path d="M299.243 37.1091C296.988 35.7255 295.207 34.5552 295.207 31.1509C295.207 30.5148 294.692 30 294.056 30C293.42 30 292.905 30.5148 292.905 31.1509V39.8919C292.905 43.2469 295.412 44.7012 297.622 45.9836C300.032 47.3806 302.112 48.5877 302.112 51.9437C302.112 52.5799 302.627 53.0946 303.263 53.0946C303.899 53.0946 304.414 52.5799 304.414 51.9437V45.0384C304.414 40.2808 301.667 38.596 299.243 37.1091Z" fill="#ED7388"/>
<path d="M290.604 60C288.065 60 286 57.9354 286 55.3964C286 52.8575 288.065 50.7928 290.604 50.7928C293.143 50.7928 295.207 52.8575 295.207 55.3964C295.207 57.9354 293.143 60 290.604 60Z" fill="#ED7388"/>
<defs>
<clipPath id="clip0_450_3491">
<rect width="126.621" height="48" fill="white" transform="matrix(-1 0 0 1 150.621 187)"/>
</clipPath>
</defs>
</svg>
