<svg width="28" height="28" viewBox="0 0 28 28" fill="none" xmlns="http://www.w3.org/2000/svg">
<path d="M14 1.20825C6.39795 1.20825 0 6.42637 0 13.1342C0 16.859 2.00933 20.3163 5.4291 22.5678L3.18691 25.2584C2.60531 25.9563 3.27124 27.002 4.15554 26.7547L11.1146 24.8066C19.6712 26.3311 28 20.8405 28 13.1342C28 6.42517 21.6006 1.20825 14 1.20825ZM11.2482 22.9329C11.106 22.9055 10.9595 22.9116 10.82 22.9506L6.54188 24.1482L7.55841 22.9284C7.93341 22.4783 7.80555 21.797 7.29247 21.5138C3.89506 19.6383 1.8667 16.5058 1.8667 13.1342C1.8667 7.58744 7.3097 3.0749 14.0001 3.0749C20.6904 3.0749 26.1334 7.58744 26.1334 13.1342C26.1334 19.6401 18.7992 24.3874 11.2482 22.9329Z" fill="#666666"/>
</svg>
