<svg width="28" height="28" viewBox="0 0 28 28" fill="none" xmlns="http://www.w3.org/2000/svg">
<path d="M0.00250374 10.1856C0.131671 12.3818 0.120843 14.2029 0.111273 15.8097C0.0859536 20.0698 0.0463066 22.8453 3.04148 25.8409C5.91984 28.7197 10.6034 28.7199 13.482 25.8409C13.482 25.8409 13.482 25.8408 13.4821 25.8408L21.6023 17.7192C22.564 16.7574 22.5642 15.2004 21.6023 14.2385C21.399 14.0352 21.1687 13.8749 20.9229 13.7578L22.2687 12.4117C23.2281 11.4521 23.2281 9.89073 22.2687 8.93101C22.0424 8.70468 21.7824 8.53245 21.505 8.41283C22.0399 7.48095 21.9184 6.26012 21.1086 5.45026C20.8943 5.23592 20.6498 5.06981 20.3889 4.95123C20.9966 4.00858 20.9003 2.72364 20.0579 1.88119C19.2567 1.07981 18.0361 0.948267 17.0972 1.48449C16.9755 1.20314 16.801 0.944219 16.5778 0.720957C15.6184 -0.238654 14.0571 -0.238708 13.0987 0.719918C13.0488 0.769581 8.75758 5.04596 6.00969 7.79036L5.5878 4.80689C5.55455 3.47946 4.46997 2.40899 3.12783 2.40899C1.78421 2.40899 0.699961 3.4811 0.667751 4.81001C0.66715 4.83271 0.667587 4.85546 0.6689 4.87811C0.734577 5.99376 0.770177 7.1168 0.779966 8.38155C0.22644 8.90021 -0.0283935 9.63831 0.00250374 10.1856ZM20.4423 16.5591L12.3219 24.6807C10.0832 26.9198 6.44034 26.9199 4.20152 24.6807C1.71394 22.1927 1.72662 20.0628 1.75183 15.8195C1.76146 14.1975 1.7724 12.3604 1.64257 10.1293C1.68364 9.42719 2.54242 9.09848 3.04148 9.59762C3.31977 9.87596 3.21319 9.99574 3.28992 10.2932C3.29008 10.2947 3.2903 10.2962 3.29057 10.2976L3.94898 14.9544C4.04359 15.6227 4.86343 15.8977 5.34127 15.4196C6.75708 14.0033 5.19286 15.5669 13.5055 7.25583C13.8268 6.95835 14.3297 6.96486 14.642 7.27716C14.9626 7.59783 14.9626 8.11672 14.642 8.43739C14.6419 8.4375 14.6418 8.43761 14.6417 8.43772L11.1618 11.9181C10.8415 12.2385 10.8415 12.758 11.1618 13.0784C11.4821 13.3988 12.0015 13.3988 12.3219 13.0784C12.5942 12.806 16.6909 8.70867 16.9621 8.43739C17.282 8.11754 17.8024 8.11754 18.1221 8.43744C18.4427 8.75812 18.4427 9.277 18.1221 9.59768C18.1221 9.59768 13.7537 13.9668 13.4819 14.2386C13.1616 14.559 13.1616 15.0785 13.4819 15.3989C13.8022 15.7193 14.3216 15.7193 14.6419 15.3989L18.1221 11.9181C18.442 11.5982 18.9625 11.5983 19.2822 11.9181C19.602 12.238 19.6021 12.7585 19.2822 13.0784C18.7031 13.6576 16.0547 16.3064 15.802 16.5591C15.4817 16.8795 15.4817 17.3989 15.802 17.7193C16.1223 18.0397 16.6417 18.0397 16.9621 17.7193L19.2863 15.3947C19.6066 15.079 20.1238 15.0804 20.4423 15.3988C20.7629 15.7194 20.7629 16.2384 20.4423 16.5591ZM19.9486 6.6106C20.2692 6.93127 20.2692 7.45016 19.9486 7.77083L19.7635 7.95597C19.6445 7.70728 19.4829 7.47783 19.2822 7.27711C19.0815 7.07638 18.8521 6.91481 18.6034 6.79574L18.789 6.61022C19.1088 6.29075 19.629 6.29086 19.9486 6.6106ZM21.1087 11.2516L20.9225 11.4378C20.8054 11.1918 20.6456 10.9613 20.4423 10.7578C20.2389 10.5545 20.0084 10.3947 19.7625 10.2775L19.9486 10.0913C20.2685 9.77144 20.789 9.77149 21.1087 10.0913C21.4285 10.4112 21.4285 10.9317 21.1087 11.2516ZM18.8979 3.04153C19.2176 3.36121 19.2188 3.87862 18.9 4.19973C18.7954 4.30349 19.5044 3.60006 16.2833 6.7958C16.1643 6.5471 16.0027 6.31766 15.802 6.11688C15.6004 5.91527 15.372 5.7566 15.1285 5.63967C15.2747 5.49413 17.6467 3.13226 17.7378 3.04147C18.0579 2.72156 18.5781 2.72167 18.8979 3.04153ZM6.00767 10.1121C8.45768 7.66128 14.1989 1.93982 14.2577 1.8813C14.5776 1.56139 15.0979 1.56144 15.4178 1.8813C15.7238 2.18737 15.7351 2.66851 15.466 2.98836C7.79495 10.6452 19.0734 -0.636719 5.34324 13.097L4.93146 10.1849C5.26001 10.4347 5.71904 10.4009 6.00767 10.1121ZM2.30897 4.82177C2.34987 4.11982 3.20887 3.79111 3.70788 4.29014C3.98617 4.56854 3.87953 4.68821 3.95626 4.98569C3.95648 4.98722 4.49414 8.78979 4.49414 8.78979C4.01187 8.08642 3.22763 7.70296 2.41309 7.71882C2.39745 6.698 2.36344 5.75759 2.30897 4.82177Z" fill="#666666"/>
<path d="M27.1797 5.03198H25.5392C25.0861 5.03198 24.7189 5.39925 24.7189 5.85226C24.7189 6.30528 25.0861 6.67254 25.5392 6.67254H27.1797C27.6327 6.67254 28 6.30528 28 5.85226C28 5.39925 27.6328 5.03198 27.1797 5.03198Z" fill="#666666"/>
<path d="M24.424 3.04086L26.0645 1.4003C26.3849 1.07995 26.3849 0.560607 26.0645 0.24026C25.7443 -0.0800867 25.2249 -0.0800867 24.9045 0.24026L23.2639 1.88082C22.9436 2.20117 22.9436 2.72051 23.2639 3.04086C23.5842 3.36121 24.1036 3.36126 24.424 3.04086Z" fill="#666666"/>
</svg>
