<svg width="28" height="28" viewBox="0 0 28 28" fill="none" xmlns="http://www.w3.org/2000/svg">
<g clip-path="url(#clip0_463_6454)">
<path d="M20.4917 15.0325L17.2821 18.2421C16.9724 18.5518 16.4703 18.5518 16.1607 18.2421L16.122 18.2035C15.8123 17.8938 15.8123 17.3917 16.122 17.0821L20.4917 12.7124C20.9723 12.2318 20.9723 11.4527 20.4917 10.9722C20.0112 10.4917 19.2321 10.4917 18.7516 10.9722L14.3819 15.3419C14.0722 15.6516 13.5701 15.6516 13.2605 15.3419L13.2218 15.3032C12.9121 14.9935 12.9121 14.4915 13.2218 14.1818L18.7516 8.65203C19.2321 8.17149 19.2321 7.39241 18.7516 6.91187C18.271 6.43133 17.492 6.43133 17.0114 6.91187L11.4816 12.4417C11.1719 12.7513 10.6699 12.7513 10.3602 12.4417C10.0506 12.132 10.0505 11.6299 10.3602 11.3202L14.7299 6.95054C15.2105 6.47 15.2105 5.69092 14.7299 5.21038C14.2494 4.72984 13.4703 4.72984 12.9898 5.21038C12.0201 6.1801 4.14302 14.0571 3.81538 14.3848C3.5787 12.4512 3.28092 9.52402 3.28076 9.52211V9.52216C3.28076 9.06104 3.0876 8.59986 2.70118 8.27053C1.67256 7.39389 0.0340156 8.087 0 9.4818C0.480047 17.6427 -0.951344 22.0118 2.80022 25.7634C5.36304 28.3262 10.0982 28.9063 12.661 26.3435L22.2318 16.7727C22.7124 16.2921 22.7124 15.5131 22.2318 15.0325C21.7513 14.552 20.9722 14.552 20.4917 15.0325Z" fill="#27AAE1"/>
<path d="M1.63947 6.24199C2.32307 6.24199 2.98697 6.45472 3.53768 6.84465C3.40807 5.64754 3.30853 4.67191 3.30853 4.67191C3.30853 4.67136 3.30853 4.67136 3.30853 4.67082C3.30799 4.21035 3.11494 3.74988 2.72885 3.42066C1.70001 2.54336 0.0615195 3.23735 0.027832 4.63199C0.0683008 5.32051 0.0950976 5.98168 0.112598 6.61769C0.579629 6.37269 1.10408 6.24199 1.63947 6.24199Z" fill="#27AAE1"/>
<path d="M5.0651 10.815L11.8294 4.05013C12.3199 3.56013 12.956 3.26919 13.6406 3.21779L14.7579 2.10052C15.2381 1.61982 15.2381 0.841067 14.7579 0.360364C14.2756 -0.120887 13.4975 -0.119355 13.0178 0.360364C12.2363 1.1413 6.97643 6.40169 4.78674 8.59138C4.86604 8.8599 4.91143 9.13935 4.91963 9.42482C4.93877 9.60747 4.99292 10.1358 5.0651 10.815Z" fill="#27AAE1"/>
<path d="M16.5977 5.21222C16.9274 5.04706 17.2873 4.94699 17.6619 4.91964L18.7797 3.80183C19.2599 3.32167 19.2599 2.54238 18.7797 2.06167C18.2996 1.58261 17.52 1.58119 17.0396 2.06167L15.4274 3.67386C15.9608 4.02178 16.3921 4.55996 16.5977 5.21222Z" fill="#27AAE1"/>
<path d="M27.1797 5.03125H25.5391C25.086 5.03125 24.7188 5.39853 24.7188 5.85156C24.7188 6.30459 25.086 6.67188 25.5391 6.67188H27.1797C27.6327 6.67188 28 6.30459 28 5.85156C28 5.39853 27.6327 5.03125 27.1797 5.03125Z" fill="#27AAE1"/>
<path d="M26.0644 0.240208C25.7441 -0.0801509 25.2247 -0.0801509 24.9043 0.240208L23.2637 1.88083C22.9433 2.20119 22.9433 2.72056 23.2637 3.04092C23.5841 3.36128 24.1035 3.36128 24.4238 3.04092L26.0644 1.40029C26.3848 1.07999 26.3848 0.560568 26.0644 0.240208Z" fill="#27AAE1"/>
</g>
<defs>
<clipPath id="clip0_463_6454">
<rect width="28" height="28" fill="white"/>
</clipPath>
</defs>
</svg>
