<svg width="28" height="28" viewBox="0 0 28 28" fill="none" xmlns="http://www.w3.org/2000/svg">
<g clip-path="url(#clip0_463_6451)">
<path d="M25.7787 3.96912C24.3293 2.39706 22.3405 1.53125 20.1782 1.53125C18.5619 1.53125 17.0817 2.04224 15.7786 3.0499C15.1211 3.55853 14.5253 4.18082 14 4.90714C13.4749 4.18103 12.8789 3.55853 12.2212 3.0499C10.9183 2.04224 9.43808 1.53125 7.82181 1.53125C5.65952 1.53125 3.67047 2.39706 2.22104 3.96912C0.78891 5.5228 0 7.64536 0 9.94608C0 12.3141 0.882477 14.4817 2.7771 16.7679C4.47198 18.8129 6.90793 20.8889 9.72882 23.2928C10.692 24.1138 11.7839 25.0443 12.9176 26.0355C13.2171 26.2979 13.6014 26.4423 14 26.4423C14.3984 26.4423 14.7829 26.2979 15.082 26.0359C16.2157 25.0445 17.3082 24.1136 18.2718 23.2922C21.0923 20.8887 23.5282 18.8129 25.2231 16.7677C27.1177 14.4817 28 12.3141 28 9.94586C28 7.64536 27.2111 5.5228 25.7787 3.96912Z" fill="#27AAE1"/>
</g>
<defs>
<clipPath id="clip0_463_6451">
<rect width="28" height="28" fill="white"/>
</clipPath>
</defs>
</svg>
