<svg width="28" height="28" viewBox="0 0 28 28" fill="none" xmlns="http://www.w3.org/2000/svg">
<g clip-path="url(#clip0_616_3810)">
<path d="M14.0001 8.45648C10.9435 8.45648 8.45654 10.9434 8.45654 14C8.45654 17.0566 10.9435 19.5435 14.0001 19.5435C17.0566 19.5435 19.5436 17.0566 19.5436 14C19.5436 10.9434 17.0566 8.45648 14.0001 8.45648ZM14.0001 17.6768C11.9725 17.6768 10.3232 16.0275 10.3232 14C10.3232 11.9724 11.9725 10.3232 14.0001 10.3232C16.0276 10.3232 17.6769 11.9724 17.6769 14C17.6769 16.0275 16.0276 17.6768 14.0001 17.6768Z" fill="#666666"/>
<path d="M14 4.81201C8.08507 4.81201 2.62496 8.26326 0.0901776 13.6049C-0.0301349 13.8587 -0.0301349 14.1531 0.0906326 14.4065C2.63361 19.7413 8.09327 23.188 14 23.188C19.9067 23.188 25.3664 19.7413 27.9094 14.4065C28.0301 14.1531 28.0301 13.8587 27.9098 13.6049C25.375 8.26326 19.9149 4.81201 14 4.81201ZM14 21.3213C8.9587 21.3213 4.28746 18.4634 1.97509 14.0041C4.28062 9.5393 8.95141 6.67868 14 6.67868C19.0486 6.67868 23.7194 9.5393 26.0249 14.0041C23.7125 18.4634 19.0413 21.3213 14 21.3213Z" fill="#666666"/>
</g>
<defs>
<clipPath id="clip0_616_3810">
<rect width="28" height="28" fill="white"/>
</clipPath>
</defs>
</svg>
