<svg width="24" height="24" viewBox="0 0 24 24" fill="none" xmlns="http://www.w3.org/2000/svg">
<path fill-rule="evenodd" clip-rule="evenodd" d="M10.5 17.7825C14.522 17.7825 17.7825 14.522 17.7825 10.5C17.7825 6.47799 14.522 3.2175 10.5 3.2175C6.47799 3.2175 3.2175 6.47799 3.2175 10.5C3.2175 14.522 6.47799 17.7825 10.5 17.7825ZM10.5 19.5C15.4706 19.5 19.5 15.4706 19.5 10.5C19.5 5.52944 15.4706 1.5 10.5 1.5C5.52944 1.5 1.5 5.52944 1.5 10.5C1.5 15.4706 5.52944 19.5 10.5 19.5Z" fill="#666666"/>
<rect x="15.6116" y="16.826" width="1.7175" height="7.78922" rx="0.85875" transform="rotate(-45 15.6116 16.826)" fill="#666666"/>
</svg>
