<svg width="24" height="24" viewBox="0 0 24 24" fill="none" xmlns="http://www.w3.org/2000/svg">
<path d="M21.75 11V17C21.8088 17.5067 21.7522 18.02 21.5845 18.5017C21.4168 18.9834 21.1423 19.421 20.7817 19.7816C20.421 20.1423 19.9835 20.4167 19.5018 20.5844C19.0201 20.7521 18.5067 20.8087 18 20.75H6.00004C5.49338 20.8087 4.98 20.7521 4.4983 20.5844C4.0166 20.4167 3.57906 20.1423 3.2184 19.7816C2.85774 19.421 2.5833 18.9834 2.4156 18.5017C2.24791 18.02 2.19131 17.5067 2.25004 17V7C2.19131 6.49334 2.24791 5.97996 2.4156 5.49826C2.5833 5.01657 2.85774 4.57902 3.2184 4.21836C3.57906 3.8577 4.0166 3.58326 4.4983 3.41557C4.98 3.24788 5.49338 3.19128 6.00004 3.25H13C13.1989 3.25 13.3897 3.32902 13.5304 3.46967C13.671 3.61032 13.75 3.80109 13.75 4C13.75 4.19891 13.671 4.38968 13.5304 4.53033C13.3897 4.67098 13.1989 4.75 13 4.75H6.00004C4.42304 4.75 3.75004 5.423 3.75004 7V16.25L6.29004 13.71C6.47884 13.5226 6.73405 13.4175 7.00004 13.4175C7.26602 13.4175 7.52123 13.5226 7.71004 13.71L8.65004 14.65C8.7435 14.7416 8.86916 14.7929 9.00004 14.7929C9.13091 14.7929 9.25657 14.7416 9.35004 14.65L14.29 9.71C14.4788 9.52265 14.734 9.41752 15 9.41752C15.266 9.41752 15.5212 9.52265 15.71 9.71L20.25 14.25V11C20.25 10.8011 20.3291 10.6103 20.4697 10.4697C20.6104 10.329 20.8011 10.25 21 10.25C21.1989 10.25 21.3897 10.329 21.5304 10.4697C21.671 10.6103 21.75 10.8011 21.75 11ZM7.99304 7.75C7.66102 7.75093 7.34295 7.88359 7.10868 8.11885C6.8744 8.35411 6.74307 8.67273 6.74354 9.00475C6.744 9.33676 6.87622 9.65501 7.11115 9.88962C7.34608 10.1242 7.66452 10.256 7.99654 10.256C8.32855 10.256 8.64699 10.1242 8.88192 9.88962C9.11685 9.65501 9.24907 9.33676 9.24953 9.00475C9.25 8.67273 9.11867 8.35411 8.8844 8.11885C8.65012 7.88359 8.33205 7.75093 8.00004 7.75H7.99304ZM17 5.75H18.25V7C18.25 7.19891 18.3291 7.38968 18.4697 7.53033C18.6104 7.67098 18.8011 7.75 19 7.75C19.1989 7.75 19.3897 7.67098 19.5304 7.53033C19.671 7.38968 19.75 7.19891 19.75 7V5.75H21C21.1989 5.75 21.3897 5.67098 21.5304 5.53033C21.671 5.38968 21.75 5.19891 21.75 5C21.75 4.80109 21.671 4.61032 21.5304 4.46967C21.3897 4.32902 21.1989 4.25 21 4.25H19.75V3C19.75 2.80109 19.671 2.61032 19.5304 2.46967C19.3897 2.32902 19.1989 2.25 19 2.25C18.8011 2.25 18.6104 2.32902 18.4697 2.46967C18.3291 2.61032 18.25 2.80109 18.25 3V4.25H17C16.8011 4.25 16.6104 4.32902 16.4697 4.46967C16.3291 4.61032 16.25 4.80109 16.25 5C16.25 5.19891 16.3291 5.38968 16.4697 5.53033C16.6104 5.67098 16.8011 5.75 17 5.75Z" fill="#666666"/>
</svg>
