<svg width="24" height="24" viewBox="0 0 24 24" fill="none" xmlns="http://www.w3.org/2000/svg">
<path d="M21.1071 15.762C20.1999 14.3989 19.7153 12.7983 19.7143 11.1608V8.80628C19.7411 6.81832 19.0129 4.89417 17.6767 3.42206C16.3404 1.94995 14.4955 1.03945 12.5143 0.874279C11.4602 0.803854 10.403 0.950661 9.408 1.3056C8.41304 1.66054 7.50157 2.21605 6.7301 2.93769C5.95863 3.65934 5.3436 4.53174 4.92312 5.50083C4.50264 6.46992 4.28568 7.51504 4.28569 8.57142V11.1608C4.28524 12.0522 4.14051 12.9377 3.85711 13.7828C3.62427 14.4826 3.29911 15.1482 2.89026 15.762C2.69255 16.0598 2.56766 16.3999 2.52567 16.7549C2.48368 17.1098 2.52577 17.4697 2.64854 17.8054C2.76906 18.1405 2.96792 18.4418 3.22855 18.6844C3.48917 18.927 3.80402 19.1038 4.14683 19.2C5.37506 19.5516 6.62562 19.8199 7.88997 20.0031C8.13579 20.9048 8.67132 21.7006 9.41402 22.268C10.1567 22.8353 11.0654 23.1426 12 23.1426C12.9346 23.1426 13.8432 22.8353 14.5859 22.268C15.3286 21.7006 15.8641 20.9048 16.11 20.0031C17.3743 19.8199 18.6249 19.5516 19.8531 19.2C20.1955 19.1033 20.5099 18.9263 20.7701 18.6836C21.0303 18.4408 21.2287 18.1395 21.3488 17.8046C21.4715 17.469 21.5135 17.1093 21.4715 16.7545C21.4295 16.3997 21.3047 16.0597 21.1071 15.762ZM12 21.4286C11.5651 21.4276 11.1376 21.3161 10.7577 21.1045C10.3777 20.893 10.0578 20.5883 9.82797 20.2191C10.5505 20.2749 11.2748 20.3048 12 20.3048C12.7251 20.3048 13.4494 20.2714 14.172 20.2191C13.9421 20.5883 13.6222 20.893 13.2423 21.1045C12.8623 21.3161 12.4348 21.4276 12 21.4286ZM19.74 17.2157C19.7112 17.2968 19.6635 17.3697 19.6007 17.4285C19.5379 17.4873 19.4619 17.5301 19.3791 17.5534C14.5571 18.9403 9.44195 18.9403 4.61997 17.5534C4.53735 17.53 4.46154 17.4871 4.39891 17.4283C4.33627 17.3696 4.28863 17.2967 4.25997 17.2157C4.22957 17.1331 4.21908 17.0445 4.22936 16.9571C4.23964 16.8696 4.27039 16.7859 4.31911 16.7126C4.81196 15.972 5.20424 15.1693 5.48569 14.3254C5.82619 13.3051 5.99985 12.2365 5.99997 11.1608V8.57142C5.99997 6.98012 6.63211 5.454 7.75733 4.32878C8.88255 3.20356 10.4087 2.57142 12 2.57142C12.1337 2.57142 12.2691 2.57142 12.4045 2.58514C13.9513 2.72156 15.3889 3.4394 16.4273 4.59391C17.4657 5.74843 18.0277 7.25373 18 8.80628V11.1608C17.9996 13.1374 18.5845 15.0697 19.6808 16.7143C19.7293 16.7874 19.7599 16.8708 19.7702 16.9579C19.7804 17.045 19.7701 17.1333 19.74 17.2157Z" fill="#666666"/>
</svg>
