<svg width="24" height="24" viewBox="0 0 24 24" fill="none" xmlns="http://www.w3.org/2000/svg">
<g clip-path="url(#clip0_300_4425)">
<path d="M19.4139 19.5853H19.2902V14.2927C19.2902 10.5472 16.243 7.5 12.4976 7.5H11.5023C7.75691 7.5 4.70975 10.5472 4.70975 14.2927V19.5853H4.58614C3.39988 19.5853 2.43481 20.5504 2.43481 21.7366V23.25C2.43481 23.6642 2.77058 24 3.18481 24H20.8151C21.2293 24 21.5651 23.6642 21.5651 23.25V21.7366C21.5652 20.5504 20.6001 19.5853 19.4139 19.5853ZM6.20975 14.2927C6.20975 11.3743 8.58397 9 11.5023 9H12.4976C15.416 9 17.7902 11.3743 17.7902 14.2927V19.5853H6.20975V14.2927ZM20.0652 22.5H3.93481V21.7366C3.93481 21.3775 4.22699 21.0853 4.58614 21.0853H19.4139C19.773 21.0853 20.0652 21.3775 20.0652 21.7366V22.5ZM11.25 4.19803V0.75C11.25 0.335812 11.5858 0 12 0C12.4142 0 12.75 0.335812 12.75 0.75V4.19803C12.75 4.61222 12.4142 4.94803 12 4.94803C11.5858 4.94803 11.25 4.61227 11.25 4.19803ZM17.8649 7.37733C17.572 7.08445 17.572 6.60956 17.8649 6.31669L20.303 3.87858C20.5961 3.58566 21.071 3.58575 21.3637 3.87858C21.6566 4.17145 21.6566 4.64634 21.3637 4.93922L18.9255 7.37733C18.7791 7.52377 18.5871 7.59703 18.3952 7.59703C18.2032 7.59703 18.0113 7.52381 17.8649 7.37733ZM2.63628 4.93922C2.34341 4.64634 2.34341 4.17145 2.63628 3.87858C2.92916 3.5857 3.40405 3.58566 3.69692 3.87858L6.13508 6.31669C6.42795 6.60956 6.42795 7.08445 6.13508 7.37733C5.98864 7.52377 5.79669 7.59703 5.60478 7.59703C5.41288 7.59703 5.22092 7.52381 5.07449 7.37733L2.63628 4.93922Z" fill="#666666"/>
</g>
<defs>
<clipPath id="clip0_300_4425">
<rect width="24" height="24" fill="white"/>
</clipPath>
</defs>
</svg>
