<svg width="24" height="24" viewBox="0 0 24 24" fill="none" xmlns="http://www.w3.org/2000/svg">
<path d="M18.1829 18.7168C17.7924 19.1074 17.1592 19.1074 16.7687 18.7168L5.73316 7.68127C5.34263 7.29075 5.34263 6.65758 5.73315 6.26706C6.12368 5.87654 6.75684 5.87654 7.14737 6.26706L18.1829 17.3026C18.5735 17.6932 18.5735 18.3263 18.1829 18.7168Z" fill="#666666"/>
<path d="M18.7175 6.26726C19.108 6.65778 19.108 7.29095 18.7175 7.68147L7.68189 18.717C7.29136 19.1076 6.6582 19.1076 6.26767 18.717C5.87715 18.3265 5.87715 17.6934 6.26767 17.3028L17.3032 6.26726C17.6938 5.87674 18.3269 5.87673 18.7175 6.26726Z" fill="#666666"/>
</svg>
