<svg width="36" height="36" viewBox="0 0 36 36" fill="none" xmlns="http://www.w3.org/2000/svg">
<path d="M30.7665 7.875H25.9358L25.3733 6.1875C25.1021 5.36813 24.5794 4.65518 23.8795 4.1502C23.1796 3.64521 22.3382 3.37394 21.4751 3.375H14.5249C13.662 3.37434 12.821 3.64579 12.1213 4.15074C11.4217 4.65568 10.8991 5.3684 10.6279 6.1875L10.0642 7.875H5.2335C4.14422 7.87619 3.0999 8.30944 2.32967 9.07967C1.55943 9.84991 1.12619 10.8942 1.125 11.9835V28.521C1.12738 29.6095 1.56115 30.6527 2.33125 31.4219C3.10136 32.1912 4.145 32.6238 5.2335 32.625H30.771C31.8595 32.6226 32.9027 32.1889 33.6719 31.4188C34.4412 30.6486 34.8738 29.605 34.875 28.5165V11.979C34.8726 10.8905 34.4389 9.84734 33.6687 9.07808C32.8986 8.30881 31.855 7.87619 30.7665 7.875ZM32.625 28.5165C32.6244 29.0092 32.4284 29.4816 32.08 29.83C31.7316 30.1784 31.2592 30.3744 30.7665 30.375H5.2335C4.74078 30.3744 4.26841 30.1784 3.92 29.83C3.57159 29.4816 3.3756 29.0092 3.375 28.5165V11.979C3.37678 11.4871 3.57331 11.0158 3.92158 10.6684C4.26986 10.321 4.74156 10.1256 5.2335 10.125H10.8754C11.1114 10.1248 11.3414 10.0504 11.5328 9.91232C11.7242 9.77423 11.8673 9.57943 11.9419 9.3555L12.762 6.89513C12.8852 6.52506 13.1217 6.20318 13.4382 5.97519C13.7546 5.74719 14.1349 5.62467 14.5249 5.625H21.4751C21.8653 5.62458 22.2457 5.7472 22.5622 5.97543C22.8787 6.20366 23.1152 6.52588 23.238 6.89625L24.0581 9.3555C24.1327 9.57943 24.2758 9.77423 24.4672 9.91232C24.6586 10.0504 24.8886 10.1248 25.1246 10.125H30.7665C31.2592 10.1256 31.7316 10.3216 32.08 10.67C32.4284 11.0184 32.6244 11.4908 32.625 11.9835V28.5165Z" fill="#666666"/>
<path d="M18 11.25C16.3312 11.25 14.6999 11.7449 13.3124 12.672C11.9248 13.5991 10.8434 14.9169 10.2048 16.4586C9.56616 18.0004 9.39907 19.6969 9.72463 21.3336C10.0502 22.9703 10.8538 24.4737 12.0338 25.6537C13.2138 26.8337 14.7172 27.6373 16.3539 27.9629C17.9906 28.2884 19.6871 28.1213 21.2289 27.4827C22.7706 26.8441 24.0884 25.7627 25.0155 24.3751C25.9427 22.9876 26.4375 21.3563 26.4375 19.6875C26.4351 17.4505 25.5454 15.3057 23.9636 13.7239C22.3818 12.1421 20.237 11.2524 18 11.25ZM18 25.875C16.7762 25.875 15.5799 25.5121 14.5624 24.8322C13.5449 24.1523 12.7518 23.186 12.2835 22.0554C11.8152 20.9247 11.6926 19.6806 11.9314 18.4804C12.1701 17.2801 12.7594 16.1776 13.6248 15.3123C14.4901 14.4469 15.5926 13.8576 16.7929 13.6189C17.9931 13.3801 19.2372 13.5027 20.3679 13.971C21.4985 14.4393 22.4648 15.2324 23.1447 16.2499C23.8246 17.2674 24.1875 18.4637 24.1875 19.6875C24.1857 21.328 23.5332 22.9008 22.3733 24.0607C21.2133 25.2207 19.6405 25.8732 18 25.875Z" fill="#666666"/>
<path d="M29.25 14.625C29.8713 14.625 30.375 14.1213 30.375 13.5C30.375 12.8787 29.8713 12.375 29.25 12.375C28.6287 12.375 28.125 12.8787 28.125 13.5C28.125 14.1213 28.6287 14.625 29.25 14.625Z" fill="#666666"/>
</svg>
