<svg width="24" height="24" viewBox="0 0 24 24" fill="none" xmlns="http://www.w3.org/2000/svg">
<g clip-path="url(#clip0_584_4771)">
<path d="M8.12102 5.01864C8.04549 4.94313 7.95231 4.88767 7.84992 4.85728C7.74754 4.82689 7.63919 4.82253 7.53469 4.8446C7.4302 4.86666 7.33286 4.91445 7.2515 4.98364C7.17014 5.05283 7.10734 5.14123 7.06877 5.24082L0.387961 22.5053C0.328304 22.6598 0.314804 22.8284 0.349099 22.9904C0.383394 23.1525 0.464009 23.3012 0.581155 23.4183C0.698301 23.5355 0.84694 23.6161 1.00902 23.6504C1.1711 23.6847 1.33965 23.6712 1.49421 23.6115L18.7592 16.9313C18.8588 16.8927 18.9473 16.8299 19.0165 16.7485C19.0857 16.6672 19.1335 16.5698 19.1556 16.4653C19.1776 16.3607 19.1733 16.2524 19.1429 16.15C19.1124 16.0476 19.0569 15.9544 18.9814 15.8788L8.12102 5.01864Z" fill="#FF6379"/>
<path d="M11.9399 1.00762C11.95 1.03313 12.9421 3.59512 11.7288 5.42719L13.2498 6.43481C14.998 3.79612 13.69 0.46875 13.6334 0.328125L11.9399 1.00762Z" fill="#99AAFF"/>
<path d="M10.2127 1.91699H9.29335C9.05704 1.91699 8.86548 2.10856 8.86548 2.34487V3.26418C8.86548 3.50049 9.05704 3.69205 9.29335 3.69205H10.2127C10.449 3.69205 10.6405 3.50049 10.6405 3.26418V2.34487C10.6405 2.10856 10.449 1.91699 10.2127 1.91699Z" fill="#FFD944"/>
<path d="M16.3052 0.679105C16.1376 0.846613 16.0236 1.06003 15.9774 1.29237C15.9311 1.52471 15.9549 1.76554 16.0455 1.9844C16.1362 2.20326 16.2897 2.39032 16.4867 2.52193C16.6836 2.65354 16.9152 2.72379 17.1521 2.72379C17.389 2.72379 17.6206 2.65354 17.8175 2.52193C18.0145 2.39032 18.168 2.20326 18.2587 1.9844C18.3493 1.76554 18.373 1.52471 18.3268 1.29237C18.2806 1.06003 18.1665 0.846613 17.999 0.679105C17.7744 0.454529 17.4697 0.328369 17.1521 0.328369C16.8344 0.328369 16.5298 0.454529 16.3052 0.679105Z" fill="#A4E786"/>
<path d="M22.9924 12.0602L23.3309 11.2131L22.99 12.0593L22.9924 12.0602Z" fill="#99AAFF"/>
<path d="M17.5652 10.7503L18.5728 12.2715C20.3895 11.0679 22.9239 12.0337 22.9899 12.0592L23.3308 11.2131L23.6719 10.3669C23.5312 10.3102 20.2039 9.00205 17.5652 10.7503Z" fill="#99AAFF"/>
<path d="M21.655 13.3594H20.7357C20.4994 13.3594 20.3079 13.5509 20.3079 13.7872V14.7066C20.3079 14.9429 20.4994 15.1344 20.7357 15.1344H21.655C21.8914 15.1344 22.0829 14.9429 22.0829 14.7066V13.7872C22.0829 13.5509 21.8914 13.3594 21.655 13.3594Z" fill="#FFD944"/>
<path d="M21.6269 6.00092C21.4594 6.16842 21.3454 6.38184 21.2991 6.61418C21.2529 6.84652 21.2766 7.08735 21.3673 7.30621C21.458 7.52507 21.6115 7.71213 21.8084 7.84374C22.0054 7.97536 22.237 8.0456 22.4739 8.0456C22.7108 8.0456 22.9423 7.97536 23.1393 7.84374C23.3363 7.71213 23.4898 7.52507 23.5805 7.30621C23.6711 7.08735 23.6948 6.84652 23.6486 6.61418C23.6024 6.38184 23.4883 6.16842 23.3208 6.00092C23.2096 5.88967 23.0776 5.80143 22.9322 5.74122C22.7869 5.68101 22.6312 5.65002 22.4739 5.65002C22.3166 5.65002 22.1608 5.68101 22.0155 5.74122C21.8702 5.80143 21.7381 5.88967 21.6269 6.00092Z" fill="#A4E786"/>
<path d="M20.1829 2.99999C19.8267 2.97393 19.1652 2.92499 18.5914 3.49912C18.0177 4.07324 18.0664 4.73493 18.0923 5.09043C18.0957 5.13581 18.0996 5.19093 18.1013 5.23612C18.0563 5.23462 18.0014 5.23031 17.9562 5.22712C17.6705 5.18156 17.3781 5.20287 17.1019 5.28938C16.8258 5.37589 16.5735 5.52523 16.3649 5.72568C15.7911 6.29924 15.8399 6.96112 15.8667 7.31681C15.8703 7.36143 15.8742 7.41581 15.8757 7.46062C15.8311 7.45893 15.7765 7.45481 15.7317 7.45162C15.3754 7.42537 14.7141 7.37662 14.1404 7.94999L15.4332 9.23775L15.43 9.23962L15.4529 9.2625C15.4981 9.26418 15.5519 9.26793 15.5971 9.27131C15.9533 9.29756 16.6146 9.34631 17.1884 8.77274C17.7621 8.19918 17.7134 7.53712 17.6866 7.18162C17.683 7.13699 17.6791 7.08262 17.6776 7.03781C17.7222 7.03949 17.7768 7.04343 17.8216 7.04681C18.1778 7.07306 18.8393 7.12181 19.4131 6.54824C19.6135 6.33945 19.7628 6.0871 19.8494 5.81096C19.936 5.53483 19.9575 5.24239 19.9122 4.95656C19.9086 4.91137 19.9047 4.85606 19.903 4.81087C19.9484 4.81237 20.0039 4.81649 20.0491 4.81987C20.4053 4.84593 21.0666 4.89487 21.6404 4.32074L20.3279 3.00824C20.2831 3.00656 20.2287 3.00281 20.1829 2.99999Z" fill="#FFD944"/>
<path d="M9.32104 6.21863L13.4699 18.9784L15.174 18.3188L12.1641 9.06169L9.32104 6.21863Z" fill="#FFD944"/>
<path d="M5.43311 9.46745L9.07811 20.6777L10.7825 20.0183L6.47579 6.77289L5.43311 9.46745Z" fill="#FFD944"/>
<path d="M2.74634 16.4106L4.68621 22.3772L6.39059 21.7177L3.78884 13.7162L2.74634 16.4106Z" fill="#FFD944"/>
</g>
<defs>
<clipPath id="clip0_584_4771">
<rect width="24" height="24" fill="white"/>
</clipPath>
</defs>
</svg>
