<svg width="18" height="18" viewBox="0 0 18 18" fill="none" xmlns="http://www.w3.org/2000/svg">
<path fill-rule="evenodd" clip-rule="evenodd" d="M18 14.3376V6.09245C18 4.99326 17.1088 4.10207 16.0096 4.10157H13.5615V3.4134C13.5615 2.45155 12.7822 1.67181 11.8199 1.67181H6.18013C5.21778 1.67181 4.43855 2.45155 4.43855 3.4134V4.10207H1.99038C0.891192 4.10207 0 4.99326 0 6.09245V14.3376C0 15.4368 0.891192 16.328 1.99038 16.328H16.0096C17.1088 16.328 18 15.4368 18 14.3376ZM9 12.9375C10.5533 12.9375 11.8125 11.6783 11.8125 10.125C11.8125 8.57167 10.5533 7.31247 9 7.31247C7.4467 7.31247 6.1875 8.57167 6.1875 10.125C6.1875 11.6783 7.4467 12.9375 9 12.9375Z" fill="#333333"/>
</svg>
