<svg width="52" height="52" viewBox="0 0 52 52" fill="none" xmlns="http://www.w3.org/2000/svg">
<circle cx="26" cy="26" r="26" fill="#F4F5F8"/>
<g clip-path="url(#clip0_572_3400)">
<path d="M35.981 20.1078C40.8677 26.4305 40.0604 35.2565 34.7752 39.8458C29.9305 44.0514 22.0698 44.0514 17.2252 39.8458C11.9385 35.2557 11.1319 26.4269 16.0223 20.1041C16.5014 19.4846 17.5185 19.4737 17.972 20.3395C18.4981 21.3357 20.0087 21.0214 20.1165 19.8997C20.5069 15.8284 21.6324 12.4402 24.1582 9.41556C24.8135 8.63112 26.1035 9.02297 26.1876 10.0413C26.2511 10.7992 26.4407 11.5881 26.8385 12.3475C27.6266 13.8499 28.735 14.2019 29.8006 15.4771C30.5806 16.4106 31.4263 17.8563 31.796 20.1535C31.9636 21.194 33.3413 21.4715 33.897 20.5756C33.9516 20.4878 34.004 20.3956 34.0542 20.2982C34.4401 19.5513 35.4666 19.4429 35.981 20.1078Z" fill="#FC7563"/>
<path d="M30.9504 29.3285C32.1223 31.4989 31.8138 34.2507 30.0818 36.0247C27.6112 38.5544 23.5495 37.7538 21.754 35.7377C20.2973 34.1024 20.5121 31.8723 20.605 30.9033C20.8279 28.5862 21.9489 26.7405 23.134 25.3975C23.7834 24.6617 24.9833 25.2639 24.7915 26.2262C24.4926 27.725 24.6822 29.0075 25.4084 29.8001C26.5695 31.0682 28.2333 30.8896 29.3048 29.2688C29.7062 28.6606 30.6043 28.6879 30.9504 29.3285Z" fill="#FCEC9D"/>
</g>
<defs>
<clipPath id="clip0_572_3400">
<rect width="34" height="34" fill="white" transform="translate(9 9)"/>
</clipPath>
</defs>
</svg>
