<svg width="24" height="24" viewBox="0 0 24 24" fill="none" xmlns="http://www.w3.org/2000/svg">
<path d="M12 1.03564C5.48395 1.03564 0 5.50832 0 11.2579C0 14.4506 1.72228 17.414 4.65352 19.3438L2.73164 21.6501C2.23312 22.2482 2.80392 23.1446 3.56189 22.9326L9.52683 21.2628C16.861 22.5696 24 17.8633 24 11.2579C24 5.50729 18.5148 1.03564 12 1.03564ZM9.64134 19.6568C9.51947 19.6333 9.39384 19.6385 9.27431 19.6719L5.60733 20.6984L6.47864 19.6529C6.80006 19.2671 6.69047 18.6831 6.25069 18.4404C3.33863 16.8328 1.60003 14.1478 1.60003 11.2579C1.60003 6.50352 6.26545 2.63563 12 2.63563C17.7346 2.63563 22.4001 6.50352 22.4001 11.2579C22.4 16.8343 16.1136 20.9035 9.64134 19.6568Z" fill="#333333"/>
</svg>
