<svg width="24" height="24" viewBox="0 0 24 24" fill="none" xmlns="http://www.w3.org/2000/svg">
<g clip-path="url(#clip0_433_5422)">
<path d="M18.8705 1.71765H16.9411V0.705882C16.9411 0.316047 16.6251 0 16.2352 0C15.8454 0 15.5294 0.316047 15.5294 0.705882V1.71765H12.7058V0.705882C12.7058 0.316047 12.3898 0 11.9999 0C11.6101 0 11.2941 0.316047 11.2941 0.705882V1.71765H8.47053V0.705882C8.47053 0.316047 8.15449 0 7.76465 0C7.37482 0 7.05877 0.316047 7.05877 0.705882V1.71765H5.12936C4.22117 1.71765 3.4823 2.45652 3.4823 3.36471V22.3529C3.4823 23.2611 4.22117 24 5.12936 24H18.8705C19.7787 24 20.5176 23.2611 20.5176 22.3529V3.36471C20.5176 2.45652 19.7787 1.71765 18.8705 1.71765ZM19.1058 22.3529C19.1058 22.4827 19.0003 22.5882 18.8705 22.5882H5.12936C4.99962 22.5882 4.89406 22.4827 4.89406 22.3529V3.36471C4.89406 3.23496 4.99962 3.12941 5.12936 3.12941H7.05877V4.14118C7.05877 4.53101 7.37482 4.84706 7.76465 4.84706C8.15449 4.84706 8.47053 4.53101 8.47053 4.14118V3.12941H11.2941V4.14118C11.2941 4.53101 11.6101 4.84706 11.9999 4.84706C12.3898 4.84706 12.7058 4.53101 12.7058 4.14118V3.12941H15.5294V4.14118C15.5294 4.53101 15.8454 4.84706 16.2352 4.84706C16.6251 4.84706 16.9411 4.53101 16.9411 4.14118V3.12941H18.8705C19.0003 3.12941 19.1058 3.23496 19.1058 3.36471V22.3529Z" fill="#333333"/>
<path d="M16.2353 8.57349H7.76472C7.37488 8.57349 7.05884 8.88953 7.05884 9.27937C7.05884 9.6692 7.37488 9.98525 7.76472 9.98525H16.2353C16.6251 9.98525 16.9412 9.6692 16.9412 9.27937C16.9412 8.88953 16.6251 8.57349 16.2353 8.57349Z" fill="#333333"/>
<path d="M16.2353 12.8215H7.76472C7.37488 12.8215 7.05884 13.1375 7.05884 13.5274C7.05884 13.9172 7.37488 14.2332 7.76472 14.2332H16.2353C16.6251 14.2332 16.9412 13.9172 16.9412 13.5274C16.9412 13.1375 16.6251 12.8215 16.2353 12.8215Z" fill="#333333"/>
<path d="M16.2353 17.0694H7.76472C7.37488 17.0694 7.05884 17.3854 7.05884 17.7753C7.05884 18.1651 7.37488 18.4812 7.76472 18.4812H16.2353C16.6251 18.4812 16.9412 18.1651 16.9412 17.7753C16.9412 17.3854 16.6251 17.0694 16.2353 17.0694Z" fill="#333333"/>
</g>
<defs>
<clipPath id="clip0_433_5422">
<rect width="24" height="24" fill="white"/>
</clipPath>
</defs>
</svg>
