<svg width="18" height="18" viewBox="0 0 18 18" fill="none" xmlns="http://www.w3.org/2000/svg">
<g clip-path="url(#clip0_346_5501)">
<path d="M15.8906 8.15625H8.16891L7.34569 6.50978C6.98611 5.79055 6.26316 5.34375 5.45903 5.34375H2.10938C0.946266 5.34375 0 6.29002 0 7.45312V15.8906C0 17.0537 0.946266 18 2.10938 18H15.8906C17.0537 18 18 17.0537 18 15.8906V10.2656C18 9.10252 17.0537 8.15625 15.8906 8.15625ZM16.5938 15.8906C16.5938 16.2783 16.2783 16.5938 15.8906 16.5938H2.10938C1.72167 16.5938 1.40625 16.2783 1.40625 15.8906V7.45312C1.40625 7.06542 1.72167 6.75 2.10938 6.75H5.45903C5.72706 6.75 5.96805 6.89892 6.0879 7.13869L7.10546 9.17385C7.22457 9.41203 7.46807 9.5625 7.73438 9.5625H15.8906C16.2783 9.5625 16.5938 9.87792 16.5938 10.2656V15.8906Z" fill="#333333"/>
<path d="M3.51562 3.9375C3.90396 3.9375 4.21875 3.62271 4.21875 3.23438V1.40625H13.7812V6.04688C13.7812 6.43521 14.096 6.75 14.4844 6.75C14.8727 6.75 15.1875 6.43521 15.1875 6.04688V0.703125C15.1875 0.314789 14.8727 0 14.4844 0H3.51562C3.12729 0 2.8125 0.314789 2.8125 0.703125V3.23438C2.8125 3.62271 3.12729 3.9375 3.51562 3.9375Z" fill="#333333"/>
<path d="M14.4844 13.7812H11.6719C11.2835 13.7812 10.9688 14.096 10.9688 14.4844C10.9688 14.8727 11.2835 15.1875 11.6719 15.1875H14.4844C14.8727 15.1875 15.1875 14.8727 15.1875 14.4844C15.1875 14.096 14.8727 13.7812 14.4844 13.7812Z" fill="#333333"/>
</g>
<defs>
<clipPath id="clip0_346_5501">
<rect width="18" height="18" fill="white"/>
</clipPath>
</defs>
</svg>
