<svg width="18" height="18" viewBox="0 0 18 18" fill="none" xmlns="http://www.w3.org/2000/svg">
<g clip-path="url(#clip0_433_5473)">
<path d="M9.70312 13.1484C9.70312 13.5368 9.38834 13.8516 9 13.8516H4.85156C4.46323 13.8516 4.14844 13.5368 4.14844 13.1484C4.14844 12.7601 4.46323 12.4453 4.85156 12.4453H9C9.38834 12.4453 9.70312 12.7601 9.70312 13.1484ZM18 4.22402V12.457C18 13.5366 17.5796 14.5515 16.8162 15.3148L15.3148 16.8163C14.5515 17.5796 13.5366 18 12.457 18H4.22402C1.88926 18 0 16.1105 0 13.776V4.22402C0 1.88926 1.88947 0 4.22402 0H13.776C16.1107 0 18 1.88947 18 4.22402ZM16.4994 13.1601H14.5664C13.791 13.1601 13.1601 13.791 13.1601 14.5664V16.4994C13.5947 16.3799 13.9931 16.1492 14.3204 15.8219L15.8219 14.3204C16.1492 13.9931 16.3799 13.5947 16.4994 13.1601ZM16.5938 4.22402C16.5938 2.66657 15.3334 1.40625 13.776 1.40625H4.22402C2.66657 1.40625 1.40625 2.66664 1.40625 4.22402V13.776C1.40625 15.3334 2.66664 16.5938 4.22402 16.5938H11.7539V14.5664C11.7539 13.0156 13.0156 11.7539 14.5664 11.7539H16.5938V4.22402ZM13.1484 8.29688H4.85156C4.46323 8.29688 4.14844 8.61166 4.14844 9C4.14844 9.38834 4.46323 9.70312 4.85156 9.70312H13.1484C13.5368 9.70312 13.8516 9.38834 13.8516 9C13.8516 8.61166 13.5368 8.29688 13.1484 8.29688ZM13.1484 4.14844H4.85156C4.46323 4.14844 4.14844 4.46323 4.14844 4.85156C4.14844 5.2399 4.46323 5.55469 4.85156 5.55469H13.1484C13.5368 5.55469 13.8516 5.2399 13.8516 4.85156C13.8516 4.46323 13.5368 4.14844 13.1484 4.14844Z" fill="#333333"/>
</g>
<defs>
<clipPath id="clip0_433_5473">
<rect width="18" height="18" fill="white"/>
</clipPath>
</defs>
</svg>
