<svg width="18" height="18" viewBox="0 0 18 18" fill="none" xmlns="http://www.w3.org/2000/svg">
<g clip-path="url(#clip0_433_5455)">
<path d="M9 0C4.02528 0 0 4.02564 0 9C0 13.9747 4.02564 18 9 18C13.9747 18 18 13.9744 18 9C18 4.02528 13.9743 0 9 0ZM9 16.5938C4.80259 16.5938 1.40625 13.1971 1.40625 9C1.40625 4.80259 4.80287 1.40625 9 1.40625C13.1974 1.40625 16.5938 4.80287 16.5938 9C16.5938 13.1974 13.1971 16.5938 9 16.5938Z" fill="#333333"/>
<path d="M9 7.53503C8.61166 7.53503 8.29688 7.84982 8.29688 8.23816V12.766C8.29688 13.1544 8.61166 13.4692 9 13.4692C9.38834 13.4692 9.70312 13.1543 9.70312 12.766V8.23816C9.70312 7.84982 9.38834 7.53503 9 7.53503Z" fill="#333333"/>
<path d="M9 6.67407C9.52424 6.67407 9.94922 6.24909 9.94922 5.72485C9.94922 5.20061 9.52424 4.77563 9 4.77563C8.47576 4.77563 8.05078 5.20061 8.05078 5.72485C8.05078 6.24909 8.47576 6.67407 9 6.67407Z" fill="#333333"/>
</g>
<defs>
<clipPath id="clip0_433_5455">
<rect width="18" height="18" fill="white"/>
</clipPath>
</defs>
</svg>
