<svg width="24" height="24" viewBox="0 0 24 24" fill="none" xmlns="http://www.w3.org/2000/svg">
<g clip-path="url(#clip0_433_5433)">
<path d="M0.00214606 8.73038C0.11286 10.6125 0.10358 12.1732 0.0953768 13.5503C0.0736745 17.2011 0.0396914 19.5797 2.60698 22.147C5.07415 24.6141 9.08865 24.6143 11.556 22.147C11.556 22.147 11.556 22.1469 11.5561 22.1469L18.5162 15.1867C19.3406 14.3624 19.3407 13.0281 18.5162 12.2037C18.342 12.0295 18.1446 11.8921 17.9339 11.7917L19.0874 10.6382C19.9098 9.81577 19.9098 8.47764 19.0874 7.65516C18.8935 7.46119 18.6706 7.31359 18.4328 7.21108C18.8913 6.41245 18.7872 5.3662 18.0931 4.67215C17.9094 4.48845 17.6999 4.3461 17.4762 4.24448C17.9971 3.43662 17.9145 2.33543 17.1925 1.61344C16.5057 0.926653 15.4595 0.813923 14.6547 1.27347C14.5505 1.03235 14.4009 0.810455 14.2095 0.619119C13.3872 -0.203271 12.0489 -0.203318 11.2274 0.618228C11.1847 0.660789 7.50649 4.32566 5.15116 6.67762L4.78954 4.12078C4.76104 2.98317 3.8314 2.06577 2.68099 2.06577C1.52932 2.06577 0.599966 2.98457 0.572358 4.12345C0.571842 4.1429 0.572217 4.1624 0.573342 4.18181C0.629637 5.13793 0.660151 6.10037 0.668542 7.18427C0.194092 7.62877 -0.0243373 8.26132 0.00214606 8.73038ZM17.5219 14.1924L10.5616 21.1527C8.64275 23.0716 5.52029 23.0717 3.6013 21.1527C1.46909 19.0205 1.47996 17.1952 1.50157 13.5586C1.50982 12.1685 1.5192 10.5942 1.40792 8.6821C1.44312 8.08039 2.17922 7.79868 2.60698 8.22645C2.84552 8.46498 2.75416 8.56764 2.81993 8.82258C2.82007 8.82384 2.82025 8.82511 2.82049 8.82633L3.38484 12.8172C3.46593 13.39 4.16865 13.6256 4.57823 13.2159C5.79178 12.0021 4.45102 13.3421 11.5762 6.21952C11.8515 5.96458 12.2826 5.97016 12.5503 6.23781C12.8251 6.51262 12.8251 6.95731 12.5503 7.23213C12.5502 7.23222 12.5501 7.23231 12.55 7.23241L9.56727 10.2151C9.29269 10.4897 9.29269 10.9349 9.56727 11.2095C9.84176 11.484 10.287 11.484 10.5616 11.2095C10.795 10.976 14.3065 7.46462 14.539 7.23213C14.8132 6.95801 15.2592 6.95801 15.5332 7.23217C15.8081 7.50699 15.8081 7.95168 15.5332 8.22649C15.5332 8.22649 11.7889 11.9709 11.5559 12.2038C11.2813 12.4784 11.2813 12.9236 11.5559 13.1981C11.8304 13.4727 12.2756 13.4727 12.5502 13.1981L15.5332 10.2151C15.8074 9.94097 16.2535 9.94102 16.5276 10.2151C16.8017 10.4893 16.8018 10.9353 16.5276 11.2095C16.0312 11.7058 13.7612 13.9759 13.5446 14.1925C13.27 14.467 13.27 14.9122 13.5446 15.1868C13.8191 15.4614 14.2643 15.4614 14.5389 15.1868L16.5311 13.1946C16.8056 12.924 17.2489 12.9252 17.5219 13.1981C17.7967 13.4729 17.7967 13.9176 17.5219 14.1924ZM17.0988 5.66656C17.3736 5.94138 17.3736 6.38607 17.0988 6.66088L16.9401 6.81955C16.8381 6.60642 16.6996 6.40978 16.5276 6.23776C16.3555 6.06573 16.159 5.92727 15.9458 5.82523L16.1048 5.66623C16.379 5.39245 16.8248 5.39254 17.0988 5.66656ZM18.0932 9.64389L17.9336 9.80349C17.8332 9.59271 17.6963 9.39509 17.5219 9.22077C17.3477 9.04649 17.15 8.90953 16.9392 8.80913L17.0988 8.64957C17.373 8.37541 17.8191 8.37546 18.0931 8.64952C18.3672 8.92369 18.3673 9.36973 18.0932 9.64389ZM16.1982 2.60785C16.4722 2.88183 16.4733 3.32525 16.2 3.60044C16.1103 3.68936 16.718 3.08652 13.9571 5.82527C13.8551 5.61214 13.7166 5.41551 13.5446 5.24344C13.3718 5.07066 13.176 4.93468 12.9673 4.83447C13.0926 4.70974 15.1257 2.68562 15.2038 2.60781C15.4782 2.33365 15.9241 2.33374 16.1982 2.60785ZM5.14943 8.66734C7.24944 6.567 12.1705 1.66369 12.2209 1.61353C12.4951 1.33937 12.9411 1.33942 13.2152 1.61353C13.4775 1.87584 13.4872 2.28818 13.2566 2.56229C6.68138 9.12426 16.3486 -0.544414 4.57992 11.2254L4.22696 8.72972C4.50858 8.94379 4.90203 8.91483 5.14943 8.66734ZM1.97912 4.13353C2.01418 3.53196 2.75046 3.25025 3.17818 3.67792C3.41672 3.9165 3.32531 4.01906 3.39108 4.27401C3.39126 4.27532 3.85212 7.53413 3.85212 7.53413C3.43875 6.93134 2.76654 6.60271 2.06836 6.61631C2.05496 5.74147 2.0258 4.93553 1.97912 4.13353Z" fill="#333333"/>
<path d="M23.2969 4.31433H21.8907C21.5024 4.31433 21.1876 4.62913 21.1876 5.01743C21.1876 5.40573 21.5024 5.72053 21.8907 5.72053H23.2969C23.6852 5.72053 24 5.40573 24 5.01743C24 4.62913 23.6853 4.31433 23.2969 4.31433Z" fill="#333333"/>
<path d="M20.9348 2.60841L22.341 1.20221C22.6155 0.927628 22.6155 0.482473 22.341 0.20789C22.0664 -0.0666926 21.6212 -0.0666926 21.3466 0.20789L19.9404 1.61409C19.6659 1.88867 19.6659 2.33382 19.9404 2.60841C20.215 2.88299 20.6602 2.88304 20.9348 2.60841Z" fill="#333333"/>
</g>
<defs>
<clipPath id="clip0_433_5433">
<rect width="24" height="24" fill="white"/>
</clipPath>
</defs>
</svg>
