<svg width="18" height="18" viewBox="0 0 18 18" fill="none" xmlns="http://www.w3.org/2000/svg">
<path d="M13.9219 1.40625H10.9887C10.6985 0.587812 9.91666 0 9 0C8.08334 0 7.30153 0.587812 7.01132 1.40625H4.07812C2.91502 1.40625 1.96875 2.35252 1.96875 3.51562V15.8906C1.96875 17.0537 2.91502 18 4.07812 18H13.9219C15.085 18 16.0312 17.0537 16.0312 15.8906V3.51562C16.0312 2.35252 15.085 1.40625 13.9219 1.40625ZM9 1.40625C9.3877 1.40625 9.70312 1.72167 9.70312 2.10938C9.70312 2.49771 10.0179 2.8125 10.4062 2.8125C10.794 2.8125 11.1094 3.12792 11.1094 3.51562V4.21875H6.89062V3.51562C6.89062 3.12792 7.20605 2.8125 7.59375 2.8125C7.98209 2.8125 8.29688 2.49771 8.29688 2.10938C8.29688 1.72167 8.6123 1.40625 9 1.40625ZM14.625 15.8906C14.625 16.2783 14.3096 16.5938 13.9219 16.5938H4.07812C3.69042 16.5938 3.375 16.2783 3.375 15.8906V3.51562C3.375 3.12792 3.69042 2.8125 4.07812 2.8125H5.60524C5.5272 3.03258 5.48438 3.26914 5.48438 3.51562V4.92188C5.48438 5.31021 5.79916 5.625 6.1875 5.625H11.8125C12.2008 5.625 12.5156 5.31021 12.5156 4.92188V3.51562C12.5156 3.26914 12.4728 3.03258 12.3948 2.8125H13.9219C14.3096 2.8125 14.625 3.12792 14.625 3.51562V15.8906Z" fill="#333333"/>
<path d="M12.5156 7.59375H5.48438C5.09604 7.59375 4.78125 7.90854 4.78125 8.29688C4.78125 8.68521 5.09604 9 5.48438 9H12.5156C12.904 9 13.2188 8.68521 13.2188 8.29688C13.2188 7.90854 12.904 7.59375 12.5156 7.59375Z" fill="#333333"/>
<path d="M12.5156 10.4062H5.48438C5.09604 10.4062 4.78125 10.721 4.78125 11.1094C4.78125 11.4977 5.09604 11.8125 5.48438 11.8125H12.5156C12.904 11.8125 13.2188 11.4977 13.2188 11.1094C13.2188 10.721 12.904 10.4062 12.5156 10.4062Z" fill="#333333"/>
<path d="M12.5156 13.2188H5.48438C5.09604 13.2188 4.78125 13.5335 4.78125 13.9219C4.78125 14.3102 5.09604 14.625 5.48438 14.625H12.5156C12.904 14.625 13.2188 14.3102 13.2188 13.9219C13.2188 13.5335 12.904 13.2188 12.5156 13.2188Z" fill="#333333"/>
</svg>
