<svg width="18" height="18" viewBox="0 0 18 18" fill="none" xmlns="http://www.w3.org/2000/svg">
<path d="M14.625 11.0892V8.4375C14.625 5.98307 13.0447 3.89109 10.8482 3.12479C11.0145 2.82336 11.1094 2.47729 11.1094 2.10938C11.1094 0.946266 10.1631 0 9 0C7.83689 0 6.89062 0.946266 6.89062 2.10938C6.89062 2.47729 6.98551 2.82336 7.1518 3.12479C4.95534 3.89109 3.375 5.98307 3.375 8.4375V11.0892C2.55653 11.3794 1.96875 12.1614 1.96875 13.0781C1.96875 14.2412 2.91502 15.1875 4.07812 15.1875H6.89062V15.8906C6.89062 17.0537 7.83689 18 9 18C10.1631 18 11.1094 17.0537 11.1094 15.8906V15.1875H13.9219C15.085 15.1875 16.0312 14.2412 16.0312 13.0781C16.0312 12.1614 15.4435 11.3794 14.625 11.0892ZM8.29688 2.10938C8.29688 1.72167 8.6123 1.40625 9 1.40625C9.3877 1.40625 9.70312 1.72167 9.70312 2.10938C9.70312 2.49708 9.3877 2.8125 9 2.8125C8.6123 2.8125 8.29688 2.49708 8.29688 2.10938ZM9.70312 15.8906C9.70312 16.2783 9.3877 16.5938 9 16.5938C8.6123 16.5938 8.29688 16.2783 8.29688 15.8906V15.1875H9.70312V15.8906ZM13.9219 13.7812H4.07812C3.69042 13.7812 3.375 13.4658 3.375 13.0781C3.375 12.6904 3.69042 12.375 4.07812 12.375C4.46646 12.375 4.78125 12.0602 4.78125 11.6719V8.4375C4.78125 6.11128 6.67378 4.21875 9 4.21875C11.3262 4.21875 13.2188 6.11128 13.2188 8.4375V11.6719C13.2188 12.0602 13.5335 12.375 13.9219 12.375C14.3096 12.375 14.625 12.6904 14.625 13.0781C14.625 13.4658 14.3096 13.7812 13.9219 13.7812Z" fill="#333333"/>
</svg>
