<svg width="18" height="18" viewBox="0 0 18 18" fill="none" xmlns="http://www.w3.org/2000/svg">
<g clip-path="url(#clip0_433_5443)">
<path d="M8.72429 12.0663C8.20964 12.0663 7.79297 12.4953 7.79297 13.0099C7.79297 13.5124 8.19737 13.9535 8.72429 13.9535C9.25121 13.9535 9.66789 13.5124 9.66789 13.0099C9.66789 12.4953 9.23902 12.0663 8.72429 12.0663Z" fill="#333333"/>
<path d="M8.88359 4.92194C7.22924 4.92194 6.46948 5.90227 6.46948 6.56401C6.46948 7.04196 6.87385 7.26253 7.20474 7.26253C7.86645 7.26253 7.59687 6.31894 8.84682 6.31894C9.45956 6.31894 9.94974 6.58855 9.94974 7.15225C9.94974 7.81403 9.26349 8.19389 8.85909 8.53702C8.50373 8.84337 8.03805 9.34582 8.03805 10.3997C8.03805 11.0369 8.20958 11.2207 8.71203 11.2207C9.3125 11.2207 9.43502 10.9512 9.43502 10.7183C9.43502 10.0811 9.44732 9.71345 10.1213 9.18653C10.4522 8.92919 11.4938 8.09588 11.4938 6.94395C11.4938 5.79202 10.4522 4.92194 8.88359 4.92194Z" fill="#333333"/>
<path d="M9 0C4.02595 0 0 4.02528 0 9V17.2969C0 17.6852 0.314789 18 0.703125 18H9C13.974 18 18 13.9747 18 9C18 4.02595 13.9747 0 9 0ZM9 16.5938H1.40625V9C1.40625 4.80315 4.80259 1.40625 9 1.40625C13.1968 1.40625 16.5938 4.80259 16.5938 9C16.5938 13.1968 13.1974 16.5938 9 16.5938Z" fill="#333333"/>
</g>
<defs>
<clipPath id="clip0_433_5443">
<rect width="18" height="18" fill="white"/>
</clipPath>
</defs>
</svg>
