<svg width="18" height="18" viewBox="0 0 18 18" fill="none" xmlns="http://www.w3.org/2000/svg">
<g clip-path="url(#clip0_433_5451)">
<path d="M15.8906 6.18748H15.3281V1.26561C15.3281 0.96945 15.1425 0.70504 14.864 0.604352C14.5855 0.503665 14.2738 0.588321 14.0844 0.816028C11.9888 3.33599 8.9004 4.78123 5.61097 4.78123H2.10938C0.946266 4.78123 0 5.7275 0 6.89061V9.70311C0 10.5715 0.523301 11.3829 1.40625 11.6937V16.7344C1.40625 17.1227 1.72104 17.4375 2.10938 17.4375H4.92188C5.31021 17.4375 5.625 17.1227 5.625 16.7344V11.8126C8.90919 11.8167 11.9918 13.2613 14.0844 15.7777C14.2206 15.9415 14.4202 16.0313 14.6251 16.0313C14.7051 16.0313 14.7859 16.0176 14.864 15.9894C15.1425 15.8887 15.3281 15.6243 15.3281 15.3281V10.4062H15.8906C17.0537 10.4062 18 9.45997 18 8.29686C18 7.13375 17.0537 6.18748 15.8906 6.18748ZM2.8125 16.0312V11.8125H4.21875V16.0312H2.8125ZM13.9219 13.5885C13.0165 12.7764 11.9901 12.0945 10.8906 11.58C9.25007 10.8121 7.4244 10.4062 5.61097 10.4062H2.10938C1.71608 10.4062 1.40625 10.0978 1.40625 9.70311V6.89061C1.40625 6.5029 1.72167 6.18748 2.10938 6.18748H5.61097C7.4244 6.18748 9.25007 5.7816 10.8906 5.01379C11.99 4.49921 13.0165 3.81735 13.9219 3.00524V13.5885ZM15.8906 8.99998H15.3281V7.59373H15.8906C16.2783 7.59373 16.5938 7.90915 16.5938 8.29686C16.5938 8.68456 16.2783 8.99998 15.8906 8.99998Z" fill="#333333"/>
</g>
<defs>
<clipPath id="clip0_433_5451">
<rect width="18" height="18" fill="white"/>
</clipPath>
</defs>
</svg>
