<svg width="24" height="24" viewBox="0 0 24 24" fill="none" xmlns="http://www.w3.org/2000/svg">
<g clip-path="url(#clip0_433_4547)">
<path d="M12 0C5.383 0 0 5.383 0 12C0 18.617 5.383 24 12 24C18.617 24 24 18.617 24 12C24 5.383 18.617 0 12 0ZM12 22C6.486 22 2 17.514 2 12C2 6.486 6.486 2 12 2C17.514 2 22 6.486 22 12C22 17.514 17.514 22 12 22ZM16 14C16 15.654 14.654 17 13 17V18C13 18.553 12.553 19 12 19C11.447 19 11 18.553 11 18V17H10.732C9.665 17 8.669 16.426 8.134 15.501C7.857 15.022 8.021 14.411 8.498 14.135C8.977 13.856 9.589 14.022 9.864 14.499C10.043 14.809 10.375 15 10.731 15H12.999C13.551 15 13.999 14.552 13.999 14C13.999 13.622 13.728 13.302 13.355 13.24L10.314 12.733C8.972 12.51 7.999 11.36 7.999 10C7.999 8.346 9.345 7 10.999 7V6C10.999 5.448 11.446 5 11.999 5C12.552 5 12.999 5.448 12.999 6V7H13.267C14.334 7 15.33 7.575 15.865 8.5C16.142 8.978 15.978 9.589 15.501 9.866C15.021 10.143 14.41 9.979 14.135 9.501C13.956 9.192 13.624 9.001 13.268 9.001H11C10.448 9.001 10 9.45 10 10.001C10 10.379 10.271 10.699 10.644 10.761L13.685 11.268C15.027 11.491 16 12.641 16 14.001V14Z" fill="#CCCCCC"/>
</g>
<defs>
<clipPath id="clip0_433_4547">
<rect width="24" height="24" fill="white"/>
</clipPath>
</defs>
</svg>
