<svg width="24" height="24" viewBox="0 0 24 24" fill="none" xmlns="http://www.w3.org/2000/svg">
<g clip-path="url(#clip0_433_4529)">
<path d="M12 14.9926C10.3432 14.9926 9 16.3357 9 17.9926V23.9926H15V17.9926C15 16.3357 13.6568 14.9926 12 14.9926Z" fill="#27AAE1"/>
<path d="M17 17.9925V23.9925H21C22.6568 23.9925 24 22.6493 24 20.9925V11.8715C24.0002 11.352 23.7983 10.8528 23.437 10.4795L14.939 1.29249C13.4396 -0.329857 10.9089 -0.429466 9.28655 1.06997C9.20949 1.14122 9.13523 1.21542 9.06403 1.29249L0.581016 10.4765C0.208734 10.8513 -0.000140554 11.3582 7.09607e-08 11.8865V20.9925C7.09607e-08 22.6493 1.34316 23.9925 3 23.9925H6.99998V17.9925C7.01869 15.2657 9.22027 13.0389 11.8784 12.9748C14.6255 12.9085 16.9791 15.1732 17 17.9925Z" fill="#27AAE1"/>
<path d="M12 14.9926C10.3432 14.9926 9 16.3357 9 17.9926V23.9926H15V17.9926C15 16.3357 13.6568 14.9926 12 14.9926Z" fill="#27AAE1"/>
</g>
<defs>
<clipPath id="clip0_433_4529">
<rect width="24" height="24" fill="white"/>
</clipPath>
</defs>
</svg>
