<svg width="20" height="20" viewBox="0 0 20 20" fill="none" xmlns="http://www.w3.org/2000/svg">
<path fill-rule="evenodd" clip-rule="evenodd" d="M9.99996 17.0513C6.10564 17.0513 2.94868 13.8943 2.94868 9.99998C2.94868 6.10565 6.10564 2.94873 9.99996 2.94873C13.8943 2.94873 17.0512 6.10565 17.0512 9.99998C17.0512 13.8943 13.8943 17.0513 9.99996 17.0513ZM1.66663 9.99998C1.66663 14.6024 5.39758 18.3333 9.99996 18.3333C14.6023 18.3333 18.3333 14.6024 18.3333 9.99998C18.3333 5.39765 14.6023 1.66665 9.99996 1.66665C5.39758 1.66665 1.66663 5.39765 1.66663 9.99998Z" fill="#999999"/>
<path fill-rule="evenodd" clip-rule="evenodd" d="M10 13.6324C10.354 13.6324 10.641 13.3455 10.641 12.9914V9.57264C10.641 9.21855 10.354 8.93155 10 8.93155C9.64601 8.93155 9.35901 9.21855 9.35901 9.57264V12.9914C9.35901 13.3455 9.64601 13.6324 10 13.6324Z" fill="#999999"/>
<path d="M10.8546 7.00855C10.8546 6.53647 10.4719 6.1538 9.99993 6.1538C9.52793 6.1538 9.14526 6.53647 9.14526 7.00855C9.14526 7.48055 9.52793 7.86322 9.99993 7.86322C10.4719 7.86322 10.8546 7.48055 10.8546 7.00855Z" fill="#999999"/>
</svg>
