<svg width="36" height="36" viewBox="0 0 36 36" fill="none" xmlns="http://www.w3.org/2000/svg">
<g clip-path="url(#clip0_433_5113)">
<path d="M18 36C27.9411 36 36 27.9411 36 18C36 8.05887 27.9411 0 18 0C8.05887 0 0 8.05887 0 18C0 27.9411 8.05887 36 18 36Z" fill="#C5DFF5"/>
<path d="M22.1202 19.2377C24.1256 17.9026 25.4483 15.624 25.4483 13.0345C25.4483 8.92118 22.1133 5.58621 18 5.58621C13.8867 5.58621 10.5518 8.92118 10.5518 13.0345C10.5518 15.624 11.8744 17.9026 13.8799 19.2377C13.8799 19.2377 13.8805 19.2383 13.8811 19.2383C13.8805 19.2383 13.8805 19.2377 13.8805 19.2377C9.0801 20.6845 5.34231 24.5806 4.13879 29.4821L4.13941 29.4828C4.33555 29.7192 4.53914 29.9501 4.74707 30.1767C4.79735 30.2319 4.8501 30.2847 4.90162 30.3387C5.06176 30.5088 5.22376 30.6763 5.3901 30.8402C5.459 30.9079 5.52914 30.973 5.59928 31.0395C5.75321 31.1859 5.909 31.3306 6.0679 31.4715C6.14672 31.541 6.22679 31.6099 6.30624 31.6781C6.46203 31.8116 6.61969 31.9426 6.78045 32.0704C6.86486 32.1381 6.9499 32.2045 7.03493 32.2709C7.19755 32.3963 7.36266 32.5179 7.52962 32.6371C7.6159 32.6986 7.70093 32.7612 7.78845 32.8215C7.96473 32.9431 8.1441 33.0598 8.32472 33.1752C8.40603 33.2268 8.48548 33.2801 8.56741 33.331C8.77597 33.4595 8.98824 33.5824 9.20238 33.7028C9.25886 33.7345 9.3141 33.7686 9.37121 33.7997C9.64803 33.9511 9.92921 34.0963 10.2147 34.2335C10.2216 34.2366 10.229 34.2397 10.2358 34.2428C10.5083 34.3732 10.7851 34.4967 11.0651 34.6134C11.152 34.65 11.2407 34.6823 11.3282 34.717C11.5306 34.7977 11.7329 34.8772 11.939 34.9504C12.0482 34.9895 12.1587 35.0249 12.2686 35.0621C12.456 35.1255 12.6447 35.1869 12.8347 35.2434C12.9551 35.2794 13.0761 35.3129 13.1978 35.3464C13.3815 35.3973 13.5664 35.4457 13.7533 35.491C13.8793 35.5215 14.0059 35.5506 14.1331 35.5786C14.32 35.6195 14.5074 35.6568 14.6961 35.6915C14.824 35.7151 14.9512 35.7393 15.0803 35.7598C15.2752 35.7915 15.4713 35.8181 15.6681 35.8436C15.7922 35.8597 15.9158 35.8777 16.0405 35.8908C16.2578 35.9144 16.4769 35.9311 16.696 35.9466C16.8021 35.9541 16.907 35.9652 17.0131 35.9708C17.3402 35.9895 17.6686 36 18 36C18.3315 36 18.6598 35.9895 18.9869 35.9721C19.0931 35.9665 19.1986 35.9553 19.3041 35.9479C19.5238 35.9323 19.7429 35.9156 19.9596 35.892C20.0843 35.8783 20.2078 35.861 20.332 35.8448C20.5287 35.8194 20.7249 35.7927 20.9198 35.761C21.0482 35.7399 21.1761 35.7163 21.304 35.6928C21.4927 35.658 21.6807 35.6208 21.8669 35.5798C21.9942 35.5519 22.1208 35.5227 22.2468 35.4923C22.433 35.447 22.618 35.3986 22.8023 35.3477C22.9233 35.3141 23.045 35.2806 23.1654 35.2446C23.356 35.1875 23.544 35.1261 23.7315 35.0634C23.8413 35.0261 23.9524 34.9908 24.0611 34.9517C24.2665 34.8778 24.4695 34.799 24.6718 34.7183C24.7593 34.6835 24.8481 34.6506 24.935 34.6146C25.2137 34.4979 25.4893 34.3757 25.7605 34.2453C25.7686 34.2416 25.7773 34.2379 25.7853 34.2341C26.0709 34.097 26.352 33.9517 26.6289 33.8003C26.686 33.7692 26.7412 33.7351 26.7977 33.7035C27.0118 33.583 27.2241 33.4601 27.4327 33.3317C27.5146 33.2814 27.5947 33.228 27.6753 33.1759C27.856 33.0604 28.0353 32.9431 28.2116 32.8221C28.2985 32.7619 28.3842 32.6998 28.4704 32.6377C28.6374 32.5179 28.8025 32.3963 28.9651 32.2715C29.0508 32.2057 29.1352 32.1387 29.2196 32.071C29.3798 31.9432 29.538 31.8122 29.6938 31.6788C29.7739 31.6105 29.854 31.5416 29.9322 31.4721C30.0911 31.3312 30.2469 31.1866 30.4008 31.0401C30.4703 30.9737 30.5411 30.9079 30.61 30.8408C30.7763 30.677 30.9389 30.5094 31.0984 30.3393C31.1493 30.2847 31.2021 30.2319 31.253 30.1773C31.4609 29.9508 31.6645 29.7199 31.8607 29.4834L31.8613 29.4828C30.6584 24.5806 26.9206 20.6845 22.1202 19.2377Z" fill="#E3F4FB"/>
</g>
<defs>
<clipPath id="clip0_433_5113">
<rect width="36" height="36" fill="white"/>
</clipPath>
</defs>
</svg>
