<svg width="18" height="18" viewBox="0 0 18 18" fill="none" xmlns="http://www.w3.org/2000/svg">
<path fill-rule="evenodd" clip-rule="evenodd" d="M18 9C18 13.9706 13.9706 18 9 18C4.02944 18 0 13.9706 0 9C0 4.02944 4.02944 0 9 0C13.9706 0 18 4.02944 18 9ZM12.3535 5.64645C12.5487 5.84171 12.5487 6.15829 12.3535 6.35355L9.70704 9L12.3535 11.6464C12.5487 11.8417 12.5487 12.1583 12.3535 12.3536C12.1582 12.5488 11.8416 12.5488 11.6464 12.3536L8.99993 9.70711L6.35348 12.3536C6.15822 12.5488 5.84164 12.5488 5.64638 12.3536C5.45111 12.1583 5.45111 11.8417 5.64638 11.6464L8.29282 9L5.64638 6.35355C5.45111 6.15829 5.45111 5.84171 5.64638 5.64645C5.84164 5.45118 6.15822 5.45118 6.35348 5.64645L8.99993 8.29289L11.6464 5.64645C11.8416 5.45118 12.1582 5.45118 12.3535 5.64645Z" fill="#B8C1CA"/>
</svg>
