<svg width="20" height="20" viewBox="0 0 20 20" fill="none" xmlns="http://www.w3.org/2000/svg">
<path fill-rule="evenodd" clip-rule="evenodd" d="M17.9999 9.99994C17.9999 14.4182 14.4182 17.9999 9.99988 17.9999C5.5816 17.9999 1.99988 14.4182 1.99988 9.99994C1.99988 5.58166 5.5816 1.99994 9.99988 1.99994C14.4182 1.99994 17.9999 5.58166 17.9999 9.99994ZM10 6.36761C10.354 6.36761 10.641 6.65461 10.641 7.00864V10.4274C10.641 10.7815 10.354 11.0685 10 11.0685C9.64601 11.0685 9.35901 10.7815 9.35901 10.4274V7.00864C9.35901 6.65461 9.64601 6.36761 10 6.36761ZM10.0001 13.8461C10.4721 13.8461 10.8547 13.4634 10.8547 12.9913C10.8547 12.5193 10.4721 12.1367 10.0001 12.1367C9.52805 12.1367 9.14539 12.5193 9.14539 12.9913C9.14539 13.4634 9.52805 13.8461 10.0001 13.8461Z" fill="#F56065"/>
</svg>
